Yatra_1.ufo
<glyph name="dollar" format="1">
  <advance width="623"/>
  <unicode hex="0024"/>
  <outline>
    <contour>
      <point x="372" y="508" type="line"/>
      <point x="282" y="537" type="line"/>
      <point x="282" y="724" type="line"/>
      <point x="370" y="683" type="line"/>
    </contour>
    <contour>
      <point x="463" y="473" type="line"/>
      <point x="411" y="488"/>
      <point x="349" y="496"/>
      <point x="334" y="497" type="curve" smooth="yes"/>
      <point x="303" y="499"/>
      <point x="188" y="438"/>
      <point x="189" y="370" type="curve" smooth="yes"/>
      <point x="189" y="347"/>
      <point x="420" y="393"/>
      <point x="454" y="372" type="curve" smooth="yes"/>
      <point x="619" y="268"/>
      <point x="529" y="66"/>
      <point x="342" y="70" type="curve" smooth="yes"/>
      <point x="239" y="72"/>
      <point x="205" y="97"/>
      <point x="76" y="191" type="curve"/>
      <point x="96" y="221" type="line"/>
      <point x="226" y="142"/>
      <point x="468" y="94"/>
      <point x="470" y="301" type="curve" smooth="yes"/>
      <point x="470" y="321"/>
      <point x="256" y="248"/>
      <point x="205" y="286" type="curve" smooth="yes"/>
      <point x="169" y="313"/>
      <point x="116" y="359"/>
      <point x="108" y="394" type="curve" smooth="yes"/>
      <point x="82" y="512"/>
      <point x="221" y="580"/>
      <point x="304" y="580" type="curve" smooth="yes"/>
      <point x="338" y="580"/>
      <point x="415" y="536"/>
      <point x="479" y="505" type="curve"/>
    </contour>
    <contour>
      <point x="372" y="-88" type="line"/>
      <point x="282" y="-59" type="line"/>
      <point x="282" y="128" type="line"/>
      <point x="370" y="87" type="line"/>
    </contour>
  </outline>
</glyph>
<glyph name="parenleft" format="1">
  <advance width="478"/>
  <unicode hex="0028"/>
  <outline>
    <contour>
      <point x="483" y="721" type="line"/>
      <point x="327" y="599"/>
      <point x="46" y="273"/>
      <point x="298" y="60" type="curve" smooth="yes"/>
      <point x="324" y="38"/>
      <point x="365" y="4"/>
      <point x="433" y="-41" type="curve"/>
      <point x="426" y="-94" type="line"/>
      <point x="360" y="-48"/>
      <point x="174" y="60"/>
      <point x="108" y="147" type="curve" smooth="yes"/>
      <point x="-21" y="317"/>
      <point x="198" y="698"/>
      <point x="398" y="814" type="curve"/>
    </contour>
  </outline>
</glyph>
<glyph name="asterisk" format="1">
  <advance width="367"/>
  <unicode hex="002A"/>
  <outline>
    <contour>
      <point x="53" y="673" type="line"/>
      <point x="79" y="698" type="line"/>
      <point x="162" y="644" type="line"/>
      <point x="160" y="753" type="line"/>
      <point x="211" y="745" type="line"/>
      <point x="211" y="668" type="line"/>
      <point x="270" y="710" type="line"/>
      <point x="337" y="655" type="line"/>
      <point x="248" y="590" type="line"/>
      <point x="337" y="533" type="line"/>
      <point x="304" y="493" type="line"/>
      <point x="212" y="559" type="line"/>
      <point x="213" y="436" type="line"/>
      <point x="167" y="448" type="line"/>
      <point x="165" y="529" type="line"/>
      <point x="110" y="489" type="line"/>
      <point x="40" y="547" type="line"/>
      <point x="135" y="614" type="line"/>
    </contour>
  </outline>
</glyph>
<glyph name="hyphen" format="1">
  <advance width="474"/>
  <unicode hex="002D"/>
  <outline>
    <contour>
      <point x="30" y="358" type="line"/>
      <point x="413" y="358" type="line"/>
      <point x="444" y="277" type="line"/>
      <point x="61" y="277" type="line"/>
    </contour>
  </outline>
</glyph>
<glyph name="period" format="1">
  <advance width="237"/>
  <unicode hex="002E"/>
  <outline>
    <contour>
      <point x="141" y="110" type="curve" smooth="yes"/>
      <point x="172" y="110"/>
      <point x="201" y="86"/>
      <point x="201" y="51" type="curve" smooth="yes"/>
      <point x="201" y="14"/>
      <point x="171" y="-9"/>
      <point x="141" y="-9" type="curve" smooth="yes"/>
      <point x="109" y="-9"/>
      <point x="80" y="15"/>
      <point x="80" y="51" type="curve" smooth="yes"/>
      <point x="80" y="86"/>
      <point x="109" y="110"/>
    </contour>
  </outline>
</glyph>
<glyph name="two" format="1">
  <advance width="574"/>
  <unicode hex="0032"/>
  <outline>
    <contour>
      <point x="40" y="90" type="line"/>
      <point x="48" y="96"/>
      <point x="198" y="225"/>
      <point x="245" y="273" type="curve" smooth="yes"/>
      <point x="340" y="369"/>
      <point x="436" y="465"/>
      <point x="377" y="537" type="curve" smooth="yes"/>
      <point x="300" y="631"/>
      <point x="159" y="492"/>
      <point x="130" y="445" type="curve"/>
      <point x="52" y="541" type="line"/>
      <point x="79" y="574"/>
      <point x="255" y="710"/>
      <point x="326" y="651" type="curve" smooth="yes"/>
      <point x="383" y="603"/>
      <point x="433" y="553"/>
      <point x="485" y="489" type="curve" smooth="yes"/>
      <point x="549" y="410"/>
      <point x="410" y="270"/>
      <point x="351" y="211" type="curve" smooth="yes"/>
      <point x="321" y="181"/>
      <point x="268" y="132"/>
      <point x="221" y="90" type="curve"/>
      <point x="474" y="90" type="line"/>
      <point x="554" y="0" type="line"/>
      <point x="120" y="0" type="line"/>
    </contour>
  </outline>
</glyph>
<glyph name="three" format="1">
  <advance width="627"/>
  <unicode hex="0033"/>
  <outline>
    <contour>
      <point x="519" y="519" type="curve" smooth="yes"/>
      <point x="461" y="579"/>
      <point x="440" y="595"/>
      <point x="381" y="646" type="curve" smooth="yes"/>
      <point x="308" y="708"/>
      <point x="159" y="615"/>
      <point x="121" y="589" type="curve"/>
      <point x="192" y="492" type="line"/>
      <point x="257" y="558"/>
      <point x="408" y="625"/>
      <point x="443" y="533" type="curve"/>
      <point x="479" y="442"/>
      <point x="391" y="379"/>
      <point x="253" y="363" type="curve"/>
      <point x="309" y="265" type="line"/>
      <point x="360" y="267"/>
      <point x="407" y="283"/>
      <point x="444" y="306" type="curve"/>
      <point x="600" y="140"/>
      <point x="284" y="-27"/>
      <point x="134" y="180" type="curve"/>
      <point x="88" y="137" type="line"/>
      <point x="148" y="75"/>
      <point x="171" y="57"/>
      <point x="212" y="22" type="curve" smooth="yes"/>
      <point x="410" y="-148"/>
      <point x="674" y="155"/>
      <point x="580" y="253" type="curve" smooth="yes"/>
      <point x="552" y="282"/>
      <point x="528" y="306"/>
      <point x="488" y="340" type="curve"/>
      <point x="546" y="396"/>
      <point x="566" y="471"/>
    </contour>
  </outline>
</glyph>
<glyph name="four" format="1">
  <advance width="572"/>
  <unicode hex="0034"/>
  <outline>
    <contour>
      <point x="25" y="260" type="line"/>
      <point x="33" y="260" type="line"/>
      <point x="28" y="261" type="line"/>
      <point x="170" y="588" type="line"/>
      <point x="291" y="551" type="line"/>
      <point x="161" y="260" type="line"/>
      <point x="377" y="260" type="line"/>
      <point x="377" y="666" type="line"/>
      <point x="505" y="625" type="line"/>
      <point x="507" y="-29" type="line"/>
      <point x="377" y="0" type="line"/>
      <point x="377" y="170" type="line"/>
      <point x="105" y="170" type="line"/>
    </contour>
  </outline>
</glyph>
<glyph name="six" format="1">
  <advance width="589"/>
  <unicode hex="0036"/>
  <outline>
    <contour>
      <point x="355" y="672" type="line"/>
      <point x="147" y="533"/>
      <point x="10" y="206"/>
      <point x="84" y="127" type="curve" smooth="yes"/>
      <point x="135" y="72"/>
      <point x="211" y="18"/>
      <point x="286" y="-18" type="curve" smooth="yes"/>
      <point x="386" y="-66"/>
      <point x="589" y="141"/>
      <point x="496" y="262" type="curve" smooth="yes"/>
      <point x="473" y="292"/>
      <point x="424" y="329"/>
      <point x="359" y="379" type="curve" smooth="yes"/>
      <point x="341" y="392"/>
      <point x="279" y="362"/>
      <point x="237" y="341" type="curve"/>
      <point x="287" y="445"/>
      <point x="365" y="550"/>
      <point x="450" y="604" type="curve"/>
    </contour>
    <contour>
      <point x="380" y="293" type="curve" smooth="yes"/>
      <point x="456" y="215"/>
      <point x="318" y="21"/>
      <point x="215" y="78" type="curve" smooth="yes"/>
      <point x="169" y="103"/>
      <point x="177" y="193"/>
      <point x="216" y="293" type="curve"/>
      <point x="277" y="305"/>
      <point x="357" y="317"/>
    </contour>
  </outline>
</glyph>
<glyph name="eight" format="1">
  <advance width="544"/>
  <unicode hex="0038"/>
  <outline>
    <contour>
      <point x="249" y="379" type="curve"/>
      <point x="313" y="419"/>
      <point x="406" y="507"/>
      <point x="354" y="556" type="curve" smooth="yes"/>
      <point x="260" y="645"/>
      <point x="81" y="467"/>
    </contour>
    <contour>
      <point x="204" y="53" type="curve" smooth="yes"/>
      <point x="284" y="14"/>
      <point x="494" y="162"/>
      <point x="306" y="281" type="curve"/>
      <point x="198" y="241"/>
      <point x="94" y="107"/>
    </contour>
    <contour>
      <point x="474" y="508" type="curve" smooth="yes"/>
      <point x="512" y="454"/>
      <point x="464" y="394"/>
      <point x="354" y="317" type="curve"/>
      <point x="420" y="274"/>
      <point x="488" y="207"/>
      <point x="499" y="190" type="curve" smooth="yes"/>
      <point x="530" y="143"/>
      <point x="447" y="-45"/>
      <point x="292" y="-37" type="curve" smooth="yes"/>
      <point x="267" y="-36"/>
      <point x="82" y="63"/>
      <point x="65" y="92" type="curve" smooth="yes"/>
      <point x="7" y="186"/>
      <point x="82" y="301"/>
      <point x="201" y="350" type="curve"/>
      <point x="144" y="386"/>
      <point x="77" y="434"/>
      <point x="67" y="465" type="curve" smooth="yes"/>
      <point x="50" y="518"/>
      <point x="140" y="676"/>
      <point x="295" y="668" type="curve" smooth="yes"/>
      <point x="320" y="667"/>
      <point x="455" y="536"/>
    </contour>
  </outline>
</glyph>
<glyph name="greater" format="1">
  <advance width="499"/>
  <unicode hex="003E"/>
  <outline>
    <contour>
      <point x="459" y="341" type="line"/>
      <point x="136" y="75" type="line"/>
      <point x="81" y="139" type="line"/>
      <point x="308" y="316" type="line"/>
      <point x="43" y="520" type="line"/>
      <point x="140" y="582" type="line"/>
    </contour>
  </outline>
</glyph>
<glyph name="A" format="1">
  <advance width="697"/>
  <unicode hex="0041"/>
  <outline>
    <contour>
      <point x="423" y="8" type="move" name="ogonek"/>
    </contour>
    <contour>
      <point x="358" y="743" type="move" name="top"/>
    </contour>
    <contour>
      <point x="548" y="0" type="line"/>
      <point x="667" y="-29" type="line"/>
      <point x="409" y="622" type="line"/>
      <point x="410" y="625" type="line"/>
      <point x="282" y="666" type="line"/>
      <point x="30" y="0" type="line"/>
      <point x="160" y="-29" type="line"/>
      <point x="235" y="167" type="line"/>
      <point x="481" y="183" type="line"/>
    </contour>
    <contour>
      <point x="364" y="504" type="line"/>
      <point x="451" y="266" type="line"/>
      <point x="268" y="254" type="line"/>
    </contour>
  </outline>
</glyph>
<glyph name="C" format="1">
  <advance width="706"/>
  <unicode hex="0043"/>
  <outline>
    <contour>
      <point x="188" y="8" type="move" name="cedilla"/>
    </contour>
    <contour>
      <point x="418" y="743" type="move" name="top"/>
    </contour>
    <contour>
      <point x="634" y="527" type="curve"/>
      <point x="634" y="527"/>
      <point x="683" y="580"/>
      <point x="683" y="581" type="curve"/>
      <point x="614" y="616"/>
      <point x="572" y="636"/>
      <point x="447" y="693" type="curve" smooth="yes"/>
      <point x="222" y="796"/>
      <point x="-112" y="379"/>
      <point x="141" y="146" type="curve" smooth="yes"/>
      <point x="209" y="84"/>
      <point x="251" y="52"/>
      <point x="331" y="5" type="curve" smooth="yes"/>
      <point x="451" y="-66"/>
      <point x="589" y="-12"/>
      <point x="688" y="72" type="curve"/>
      <point x="581" y="155" type="line"/>
      <point x="502" y="95"/>
      <point x="396" y="39"/>
      <point x="295" y="106" type="curve" smooth="yes"/>
      <point x="56" y="264"/>
      <point x="298" y="700"/>
      <point x="491" y="605" type="curve" smooth="yes"/>
      <point x="562" y="570"/>
      <point x="605" y="545"/>
    </contour>
  </outline>
</glyph>
<glyph name="D" format="1">
  <advance width="766"/>
  <unicode hex="0044"/>
  <outline>
    <contour>
      <point x="375" y="683" type="move" name="top"/>
    </contour>
    <contour>
      <point x="210" y="1" type="curve"/>
      <point x="209" y="1" type="line"/>
      <point x="70" y="30" type="line"/>
      <point x="70" y="666" type="line"/>
      <point x="71" y="665" type="line"/>
      <point x="71" y="666" type="line"/>
      <point x="120" y="682"/>
      <point x="377" y="694"/>
      <point x="422" y="663" type="curve" smooth="yes"/>
      <point x="514" y="599"/>
      <point x="615" y="489"/>
      <point x="697" y="395" type="curve" smooth="yes"/>
      <point x="729" y="359"/>
      <point x="747" y="93"/>
      <point x="516" y="4" type="curve" smooth="yes"/>
      <point x="442" y="-25"/>
      <point x="306" y="-21"/>
    </contour>
    <contour>
      <point x="512" y="506" type="curve" smooth="yes"/>
      <point x="413" y="588"/>
      <point x="301" y="574"/>
      <point x="208" y="562" type="curve"/>
      <point x="210" y="61" type="line"/>
      <point x="496" y="22"/>
      <point x="667" y="376"/>
    </contour>
  </outline>
</glyph>
<glyph name="E" format="1">
  <advance width="712"/>
  <unicode hex="0045"/>
  <outline>
    <contour>
      <point x="440" y="101" type="move" name="ogonek"/>
    </contour>
    <contour>
      <point x="342" y="743" type="move" name="top"/>
    </contour>
    <contour>
      <point x="165" y="0" type="line"/>
      <point x="632" y="0" type="line"/>
      <point x="552" y="90" type="line"/>
      <point x="215" y="90" type="line"/>
      <point x="214" y="295" type="line"/>
      <point x="552" y="295" type="line"/>
      <point x="472" y="385" type="line"/>
      <point x="213" y="385" type="line"/>
      <point x="213" y="577" type="line"/>
      <point x="592" y="577" type="line"/>
      <point x="512" y="667" type="line"/>
      <point x="85" y="667" type="line"/>
      <point x="86" y="665" type="line"/>
      <point x="85" y="666" type="line"/>
      <point x="85" y="90" type="line"/>
    </contour>
  </outline>
</glyph>
<glyph name="G" format="1">
  <advance width="823"/>
  <unicode hex="0047"/>
  <outline>
    <contour>
      <point x="452" y="723" type="move" name="top"/>
    </contour>
    <contour>
      <point x="741" y="297" type="line"/>
      <point x="741" y="297"/>
      <point x="743" y="76"/>
      <point x="743" y="47" type="curve" smooth="yes"/>
      <point x="743" y="-56"/>
      <point x="758" y="-91"/>
      <point x="828" y="-111" type="curve"/>
      <point x="735" y="-136"/>
      <point x="639" y="-76"/>
      <point x="632" y="30" type="curve" smooth="yes"/>
      <point x="629" y="74" type="line"/>
      <point x="546" y="1"/>
      <point x="450" y="-65"/>
      <point x="340" y="5" type="curve" smooth="yes"/>
      <point x="262" y="55"/>
      <point x="202" y="90"/>
      <point x="169" y="120" type="curve" smooth="yes"/>
      <point x="-119" y="385"/>
      <point x="231" y="796"/>
      <point x="456" y="693" type="curve" smooth="yes"/>
      <point x="581" y="636"/>
      <point x="623" y="616"/>
      <point x="692" y="581" type="curve"/>
      <point x="692" y="580"/>
      <point x="646" y="531"/>
      <point x="646" y="531" type="curve"/>
      <point x="617" y="549"/>
      <point x="577" y="574"/>
      <point x="506" y="609" type="curve" smooth="yes"/>
      <point x="313" y="704"/>
      <point x="50" y="249"/>
      <point x="308" y="103" type="curve" smooth="yes"/>
      <point x="433" y="32"/>
      <point x="547" y="171"/>
      <point x="616" y="248" type="curve"/>
      <point x="460" y="248" type="line"/>
      <point x="380" y="338" type="line"/>
      <point x="613" y="338" type="line"/>
    </contour>
  </outline>
</glyph>
<glyph name="I" format="1">
  <advance width="300"/>
  <unicode hex="0049"/>
  <outline>
    <contour>
      <point x="215" y="-29" type="line"/>
      <point x="85" y="0" type="line"/>
      <point x="85" y="666" type="line"/>
      <point x="213" y="625" type="line"/>
    </contour>
    <contour>
      <point x="117" y="8" type="move" name="ogonek"/>
    </contour>
    <contour>
      <point x="274" y="743" type="move" name="top"/>
    </contour>
  </outline>
</glyph>
<glyph name="J" format="1">
  <advance width="353"/>
  <unicode hex="004A"/>
  <outline>
    <contour>
      <point x="283" y="15" type="line" smooth="yes"/>
      <point x="283" y="-56"/>
      <point x="178" y="-192"/>
      <point x="38" y="-192" type="curve" smooth="yes"/>
      <point x="-20" y="-192"/>
      <point x="-100" y="-169"/>
      <point x="-175" y="-105" type="curve"/>
      <point x="-150" y="-87" type="line"/>
      <point x="76" y="-167"/>
      <point x="144" y="-37"/>
      <point x="144" y="83" type="curve" smooth="yes"/>
      <point x="144" y="667" type="line"/>
      <point x="283" y="626" type="line"/>
    </contour>
  </outline>
</glyph>
<glyph name="L" format="1">
  <advance width="607"/>
  <unicode hex="004C"/>
  <outline>
    <contour>
      <point x="323" y="743" type="move" name="top"/>
    </contour>
    <contour>
      <point x="210" y="0" type="line"/>
      <point x="70" y="29" type="line"/>
      <point x="70" y="667" type="line"/>
      <point x="208" y="626" type="line"/>
      <point x="209" y="90" type="line"/>
      <point x="517" y="90" type="line"/>
      <point x="597" y="0" type="line"/>
    </contour>
  </outline>
</glyph>
<glyph name="M" format="1">
  <advance width="891"/>
  <unicode hex="004D"/>
  <outline>
    <contour>
      <point x="381" y="1" type="line"/>
      <point x="382" y="2" type="line"/>
      <point x="381" y="0" type="line"/>
      <point x="511" y="-29" type="line"/>
      <point x="676" y="340" type="line"/>
      <point x="676" y="0" type="line"/>
      <point x="806" y="-29" type="line"/>
      <point x="804" y="626" type="line"/>
      <point x="676" y="666" type="line"/>
      <point x="676" y="665" type="line"/>
      <point x="674" y="666" type="line"/>
      <point x="432" y="116" type="line"/>
      <point x="213" y="626" type="line"/>
      <point x="85" y="666" type="line"/>
      <point x="85" y="0" type="line"/>
      <point x="215" y="-29" type="line"/>
      <point x="213" y="403" type="line"/>
    </contour>
  </outline>
</glyph>
<glyph name="N" format="1">
  <advance width="742"/>
  <unicode hex="004E"/>
  <outline>
    <contour>
      <point x="406" y="743" type="move" name="top"/>
    </contour>
    <contour>
      <point x="109" y="599" type="line" smooth="yes"/>
      <point x="109" y="599"/>
      <point x="208" y="626"/>
      <point x="208" y="626" type="curve" smooth="yes"/>
      <point x="208" y="626"/>
      <point x="564" y="128"/>
      <point x="564" y="128" type="curve"/>
      <point x="564" y="128"/>
      <point x="532" y="0"/>
      <point x="532" y="0" type="curve"/>
    </contour>
    <contour>
      <point x="672" y="-29" type="line"/>
      <point x="532" y="0" type="line"/>
      <point x="532" y="666" type="line"/>
      <point x="672" y="626" type="line"/>
    </contour>
    <contour>
      <point x="210" y="-29" type="line"/>
      <point x="70" y="0" type="line"/>
      <point x="70" y="666" type="line"/>
      <point x="208" y="626" type="line"/>
    </contour>
  </outline>
</glyph>
<glyph name="P" format="1">
  <advance width="649"/>
  <unicode hex="0050"/>
  <outline>
    <contour>
      <point x="210" y="-29" type="line"/>
      <point x="70" y="0" type="line"/>
      <point x="70" y="669" type="line"/>
      <point x="184" y="700"/>
      <point x="384" y="719"/>
      <point x="415" y="690" type="curve" smooth="yes"/>
      <point x="452" y="657"/>
      <point x="563" y="547"/>
      <point x="598" y="506" type="curve" smooth="yes"/>
      <point x="648" y="446"/>
      <point x="516" y="137"/>
      <point x="209" y="233" type="curve"/>
    </contour>
    <contour>
      <point x="458" y="578" type="curve" smooth="yes"/>
      <point x="411" y="630"/>
      <point x="297" y="616"/>
      <point x="208" y="599" type="curve"/>
      <point x="209" y="280" type="line"/>
      <point x="463" y="252"/>
      <point x="510" y="519"/>
    </contour>
  </outline>
</glyph>
<glyph name="Q" format="1">
  <advance width="843"/>
  <unicode hex="0051"/>
  <outline>
    <contour>
      <point x="671" y="537" type="curve" smooth="yes"/>
      <point x="870" y="377"/>
      <point x="733" y="-33"/>
      <point x="477" y="-29" type="curve"/>
      <point x="506" y="-46"/>
      <point x="531" y="-61"/>
      <point x="546" y="-72" type="curve" smooth="yes"/>
      <point x="626" y="-130"/>
      <point x="606" y="-254"/>
      <point x="557" y="-300" type="curve"/>
      <point x="446" y="-217" type="line"/>
      <point x="481" y="-200"/>
      <point x="527" y="-141"/>
      <point x="450" y="-77" type="curve" smooth="yes"/>
      <point x="412" y="-45"/>
      <point x="347" y="0"/>
      <point x="295" y="37" type="curve"/>
      <point x="269" y="54"/>
      <point x="247" y="70"/>
      <point x="228" y="85" type="curve" smooth="yes"/>
      <point x="215" y="95" type="line"/>
      <point x="194" y="114" type="line" smooth="yes"/>
      <point x="-94" y="379"/>
      <point x="233" y="820"/>
      <point x="458" y="686" type="curve" smooth="yes"/>
      <point x="560" y="625"/>
      <point x="605" y="590"/>
    </contour>
    <contour>
      <point x="538" y="555" type="curve" smooth="yes"/>
      <point x="301" y="719"/>
      <point x="65" y="288"/>
      <point x="321" y="111" type="curve" smooth="yes"/>
      <point x="563" y="-56"/>
      <point x="771" y="393"/>
    </contour>
  </outline>
</glyph>
<glyph name="R" format="1">
  <advance width="671"/>
  <unicode hex="0052"/>
  <outline>
    <contour>
      <point x="367" y="743" type="move" name="top"/>
    </contour>
    <contour>
      <point x="604" y="-126" type="curve" smooth="yes"/>
      <point x="697" y="-181"/>
      <point x="763" y="-156"/>
      <point x="770" y="-153" type="curve" smooth="yes"/>
      <point x="761" y="-157"/>
      <point x="701" y="-175"/>
      <point x="616" y="-83" type="curve" smooth="yes"/>
      <point x="560" y="-22"/>
      <point x="482" y="166"/>
      <point x="442" y="268" type="curve"/>
      <point x="562" y="330"/>
      <point x="606" y="467"/>
      <point x="573" y="506" type="curve" smooth="yes"/>
      <point x="538" y="547"/>
      <point x="427" y="657"/>
      <point x="390" y="690" type="curve" smooth="yes"/>
      <point x="359" y="719"/>
      <point x="159" y="700"/>
      <point x="45" y="669" type="curve"/>
      <point x="45" y="0" type="line"/>
      <point x="175" y="-29" type="line"/>
      <point x="174" y="261" type="line"/>
      <point x="227" y="242"/>
      <point x="276" y="235"/>
      <point x="319" y="236" type="curve"/>
      <point x="366" y="140"/>
      <point x="482" y="-54"/>
    </contour>
    <contour>
      <point x="421" y="563" type="curve" smooth="yes"/>
      <point x="490" y="492"/>
      <point x="425" y="293"/>
      <point x="174" y="323" type="curve"/>
      <point x="173" y="595" type="line"/>
      <point x="258" y="608"/>
      <point x="371" y="614"/>
    </contour>
  </outline>
</glyph>
<glyph name="S" format="1">
  <advance width="726"/>
  <unicode hex="0053"/>
  <outline>
    <contour>
      <point x="226" y="0" type="move" name="cedilla"/>
    </contour>
    <contour>
      <point x="435" y="743" type="move" name="top"/>
    </contour>
    <contour>
      <point x="392" y="572" type="curve" smooth="yes"/>
      <point x="473" y="569"/>
      <point x="491" y="564"/>
      <point x="584" y="531" type="curve"/>
      <point x="597" y="575" type="line"/>
      <point x="516" y="615"/>
      <point x="395" y="684"/>
      <point x="365" y="684" type="curve" smooth="yes"/>
      <point x="191" y="684"/>
      <point x="14" y="502"/>
      <point x="112" y="395" type="curve" smooth="yes"/>
      <point x="169" y="332"/>
      <point x="197" y="301"/>
      <point x="237" y="269" type="curve" smooth="yes"/>
      <point x="295" y="221"/>
      <point x="571" y="333"/>
      <point x="574" y="310" type="curve" smooth="yes"/>
      <point x="593" y="187"/>
      <point x="465" y="92"/>
      <point x="338" y="95" type="curve" smooth="yes"/>
      <point x="249" y="97"/>
      <point x="147" y="135"/>
      <point x="62" y="191" type="curve"/>
      <point x="35" y="186" type="line"/>
      <point x="456" y="-271"/>
      <point x="736" y="133"/>
      <point x="685" y="227" type="curve" smooth="yes"/>
      <point x="657" y="279"/>
      <point x="612" y="331"/>
      <point x="546" y="390" type="curve" smooth="yes"/>
      <point x="511" y="421"/>
      <point x="210" y="363"/>
      <point x="204" y="389" type="curve" smooth="yes"/>
      <point x="182" y="486"/>
      <point x="338" y="574"/>
    </contour>
  </outline>
</glyph>
<glyph name="U" format="1">
  <advance width="666"/>
  <unicode hex="0055"/>
  <outline>
    <contour>
      <point x="250" y="23" type="move" name="ogonek"/>
    </contour>
    <contour>
      <point x="322" y="743" type="move" name="top"/>
    </contour>
    <contour>
      <point x="621" y="626" type="line"/>
      <point x="492" y="667" type="line"/>
      <point x="492" y="196" type="line"/>
      <point x="447" y="85"/>
      <point x="322" y="3"/>
      <point x="176" y="118" type="curve"/>
      <point x="171" y="124"/>
      <point x="175" y="626"/>
      <point x="175" y="626" type="curve"/>
      <point x="175" y="627"/>
      <point x="46" y="666"/>
      <point x="47" y="667" type="curve"/>
      <point x="47" y="667"/>
      <point x="41" y="181"/>
      <point x="50" y="171" type="curve" smooth="yes"/>
      <point x="140" y="71"/>
      <point x="273" y="-30"/>
      <point x="356" y="-30" type="curve" smooth="yes"/>
      <point x="496" y="-30"/>
      <point x="621" y="87"/>
      <point x="621" y="158" type="curve"/>
    </contour>
  </outline>
</glyph>
<glyph name="W" format="1">
  <advance width="1108"/>
  <unicode hex="0057"/>
  <outline>
    <contour>
      <point x="483" y="667" type="line"/>
      <point x="613" y="637" type="line"/>
      <point x="785" y="153" type="line"/>
      <point x="947" y="667" type="line"/>
      <point x="1077" y="637" type="line"/>
      <point x="869" y="-29" type="line"/>
      <point x="741" y="12" type="line"/>
      <point x="742" y="15" type="line"/>
      <point x="564" y="480" type="line"/>
      <point x="405" y="-29" type="line"/>
      <point x="277" y="12" type="line"/>
      <point x="278" y="15" type="line"/>
      <point x="30" y="666" type="line"/>
      <point x="149" y="637" type="line"/>
      <point x="321" y="153" type="line"/>
    </contour>
  </outline>
</glyph>
<glyph name="X" format="1">
  <advance width="710"/>
  <unicode hex="0058"/>
  <outline>
    <contour>
      <point x="680" y="-29" type="line"/>
      <point x="550" y="0" type="line"/>
      <point x="364" y="244" type="line"/>
      <point x="159" y="-29" type="line"/>
      <point x="30" y="0" type="line"/>
      <point x="287" y="345" type="line"/>
      <point x="42" y="667" type="line"/>
      <point x="167" y="638" type="line"/>
      <point x="339" y="414" type="line"/>
      <point x="527" y="666" type="line"/>
      <point x="657" y="637" type="line"/>
      <point x="416" y="314" type="line"/>
    </contour>
  </outline>
</glyph>
<glyph name="Y" format="1">
  <advance width="561"/>
  <unicode hex="0059"/>
  <outline>
    <contour>
      <point x="336" y="743" type="move" name="top"/>
    </contour>
  </outline>
</glyph>
<glyph name="b" format="1">
  <advance width="610"/>
  <unicode hex="0062"/>
  <outline>
    <contour>
      <point x="175" y="683" type="line"/>
      <point x="60" y="711" type="line"/>
      <point x="60" y="69" type="line"/>
      <point x="382" y="-219"/>
      <point x="713" y="187"/>
      <point x="448" y="426" type="curve" smooth="yes"/>
      <point x="312" y="549"/>
      <point x="240" y="485"/>
      <point x="178" y="405" type="curve"/>
    </contour>
    <contour>
      <point x="399" y="377" type="curve" smooth="yes"/>
      <point x="509" y="271"/>
      <point x="364" y="-44"/>
      <point x="175" y="67" type="curve"/>
      <point x="175" y="260" type="line"/>
      <point x="221" y="337"/>
      <point x="349" y="425"/>
    </contour>
  </outline>
</glyph>
<glyph name="c" format="1">
  <advance width="546"/>
  <unicode hex="0063"/>
  <outline>
    <contour>
      <point x="164" y="7" type="move" name="cedilla"/>
    </contour>
    <contour>
      <point x="279" y="507" type="move" name="top"/>
    </contour>
    <contour>
      <point x="414" y="305" type="curve"/>
      <point x="427" y="368"/>
      <point x="415" y="398"/>
      <point x="381" y="420" type="curve" smooth="yes"/>
      <point x="252" y="502"/>
      <point x="99" y="178"/>
      <point x="212" y="84" type="curve" smooth="yes"/>
      <point x="261" y="43"/>
      <point x="382" y="87"/>
      <point x="455" y="137" type="curve"/>
      <point x="458" y="137"/>
      <point x="536" y="57"/>
      <point x="536" y="57" type="curve"/>
      <point x="440" y="0"/>
      <point x="345" y="-72"/>
      <point x="232" y="6" type="curve" smooth="yes"/>
      <point x="209" y="22"/>
      <point x="178" y="45"/>
      <point x="143" y="77" type="curve" smooth="yes"/>
      <point x="-61" y="262"/>
      <point x="160" y="638"/>
      <point x="374" y="502" type="curve" smooth="yes"/>
      <point x="410" y="479"/>
      <point x="444" y="453"/>
      <point x="469" y="420" type="curve" smooth="yes"/>
      <point x="499" y="381"/>
      <point x="517" y="343"/>
      <point x="519" y="281" type="curve"/>
      <point x="520" y="280"/>
      <point x="415" y="304"/>
    </contour>
  </outline>
</glyph>
<glyph name="d" format="1">
  <advance width="606"/>
  <unicode hex="0064"/>
  <outline>
    <contour>
      <point x="539" y="682" type="line"/>
      <point x="424" y="710" type="line"/>
      <point x="424" y="425" type="line"/>
      <point x="387" y="449"/>
      <point x="348" y="473"/>
      <point x="310" y="485" type="curve" smooth="yes"/>
      <point x="176" y="527"/>
      <point x="-87" y="175"/>
      <point x="177" y="19" type="curve" smooth="yes"/>
      <point x="283" y="-43"/>
      <point x="347" y="-44"/>
      <point x="536" y="0" type="curve"/>
      <point x="539" y="0" type="line"/>
      <point x="539" y="1" type="line"/>
      <point x="539" y="1"/>
      <point x="540" y="2"/>
      <point x="541" y="2" type="curve" smooth="yes"/>
      <point x="541" y="2"/>
      <point x="540" y="2"/>
      <point x="539" y="3" type="curve"/>
    </contour>
    <contour>
      <point x="218" y="67" type="curve" smooth="yes"/>
      <point x="118" y="131"/>
      <point x="214" y="395"/>
      <point x="343" y="391" type="curve" smooth="yes"/>
      <point x="371" y="390"/>
      <point x="394" y="378"/>
      <point x="424" y="360" type="curve"/>
      <point x="424" y="79" type="line"/>
      <point x="328" y="34"/>
      <point x="267" y="36"/>
    </contour>
  </outline>
</glyph>
<glyph name="e" format="1">
  <advance width="590"/>
  <unicode hex="0065"/>
  <outline>
    <contour>
      <point x="304" y="43" type="move" name="ogonek"/>
    </contour>
    <contour>
      <point x="288" y="507" type="move" name="top"/>
    </contour>
    <contour>
      <point x="217" y="79" type="curve" smooth="yes"/>
      <point x="290" y="26"/>
      <point x="389" y="86"/>
      <point x="434" y="160" type="curve" smooth="yes"/>
      <point x="435" y="161"/>
      <point x="524" y="97"/>
      <point x="524" y="97" type="curve"/>
      <point x="413" y="-46"/>
      <point x="284" y="-55"/>
      <point x="191" y="7" type="curve" smooth="yes"/>
      <point x="-47" y="166"/>
      <point x="111" y="489"/>
      <point x="293" y="489" type="curve" smooth="yes"/>
      <point x="308" y="489"/>
      <point x="459" y="426"/>
      <point x="529" y="292" type="curve"/>
      <point x="509" y="278"/>
      <point x="447" y="264"/>
      <point x="172" y="170" type="curve"/>
      <point x="174" y="130"/>
      <point x="197" y="93"/>
    </contour>
    <contour>
      <point x="323" y="396" type="curve" smooth="yes"/>
      <point x="263" y="395"/>
      <point x="203" y="317"/>
      <point x="182" y="237" type="curve"/>
      <point x="182" y="237"/>
      <point x="402" y="316"/>
      <point x="405" y="332" type="curve"/>
      <point x="397" y="350"/>
      <point x="356" y="397"/>
    </contour>
  </outline>
</glyph>
<glyph name="f" format="1">
  <advance width="403"/>
  <unicode hex="0066"/>
  <outline>
    <contour>
      <point x="23" y="478" type="line"/>
      <point x="127" y="478" type="line"/>
      <point x="127" y="565" type="line" smooth="yes"/>
      <point x="127" y="626"/>
      <point x="277" y="740"/>
      <point x="341" y="704" type="curve" smooth="yes"/>
      <point x="370" y="688"/>
      <point x="397" y="667"/>
      <point x="438" y="630" type="curve"/>
      <point x="419" y="617" type="line"/>
      <point x="253" y="698"/>
      <point x="240" y="571"/>
      <point x="238" y="478" type="curve"/>
      <point x="350" y="478" type="line"/>
      <point x="380" y="408" type="line"/>
      <point x="238" y="408" type="line"/>
      <point x="243" y="-29" type="line"/>
      <point x="128" y="-1" type="line"/>
      <point x="127" y="176"/>
      <point x="127" y="287"/>
      <point x="127" y="408" type="curve"/>
      <point x="53" y="408" type="line"/>
    </contour>
  </outline>
</glyph>
<glyph name="g" format="1">
  <advance width="608"/>
  <unicode hex="0067"/>
  <outline>
    <contour>
      <point x="343" y="507" type="move" name="top"/>
    </contour>
    <contour>
      <point x="360" y="432" type="line"/>
      <point x="548" y="432" type="line"/>
      <point x="578" y="362" type="line"/>
      <point x="390" y="362" type="line"/>
    </contour>
    <contour>
      <point x="174" y="19" type="curve" smooth="yes"/>
      <point x="186" y="-5"/>
      <point x="444" y="64"/>
      <point x="463" y="46" type="curve" smooth="yes"/>
      <point x="614" y="-100"/>
      <point x="452" y="-255"/>
      <point x="302" y="-255" type="curve" smooth="yes"/>
      <point x="189" y="-255"/>
      <point x="73" y="-167"/>
      <point x="57" y="-134" type="curve" smooth="yes"/>
      <point x="51" y="-122"/>
      <point x="93" y="-94"/>
      <point x="153" y="-30" type="curve" smooth="yes"/>
      <point x="159" y="-23"/>
      <point x="173" y="-51"/>
      <point x="180" y="-65" type="curve"/>
      <point x="180" y="-65"/>
      <point x="141" y="-109"/>
      <point x="117" y="-137" type="curve"/>
      <point x="262" y="-255"/>
      <point x="456" y="-112"/>
      <point x="447" y="-19" type="curve" smooth="yes"/>
      <point x="445" y="0"/>
      <point x="226" y="-134"/>
      <point x="174" y="-84" type="curve" smooth="yes"/>
      <point x="152" y="-63"/>
      <point x="86" y="50"/>
      <point x="68" y="77" type="curve" smooth="yes"/>
      <point x="49" y="106"/>
      <point x="114" y="102"/>
      <point x="198" y="127" type="curve"/>
      <point x="174" y="142"/>
      <point x="158" y="157"/>
      <point x="123" y="187" type="curve" smooth="yes"/>
      <point x="-48" y="333"/>
      <point x="176" y="533"/>
      <point x="274" y="482" type="curve" smooth="yes"/>
      <point x="348" y="444"/>
      <point x="396" y="442"/>
      <point x="439" y="369" type="curve" smooth="yes"/>
      <point x="604" y="91"/>
      <point x="162" y="42"/>
    </contour>
    <contour>
      <point x="332" y="390" type="curve" smooth="yes"/>
      <point x="228" y="468"/>
      <point x="100" y="266"/>
      <point x="209" y="179" type="curve" smooth="yes"/>
      <point x="297" y="109"/>
      <point x="460" y="294"/>
    </contour>
  </outline>
</glyph>
<glyph name="j" format="1">
  <advance width="252"/>
  <unicode hex="006A"/>
  <outline>
    <contour>
      <point x="127" y="668" type="curve" smooth="yes"/>
      <point x="158" y="668"/>
      <point x="187" y="644"/>
      <point x="187" y="609" type="curve" smooth="yes"/>
      <point x="187" y="572"/>
      <point x="157" y="549"/>
      <point x="127" y="549" type="curve" smooth="yes"/>
      <point x="95" y="549"/>
      <point x="66" y="573"/>
      <point x="66" y="609" type="curve" smooth="yes"/>
      <point x="66" y="644"/>
      <point x="95" y="668"/>
    </contour>
    <contour>
      <point x="183" y="450" type="line"/>
      <point x="68" y="478" type="line"/>
      <point x="68" y="-26" type="line"/>
      <point x="65" y="-88"/>
      <point x="16" y="-174"/>
      <point x="-118" y="-126" type="curve"/>
      <point x="-135" y="-139" type="line"/>
      <point x="-94" y="-176"/>
      <point x="-67" y="-197"/>
      <point x="-38" y="-213" type="curve" smooth="yes"/>
      <point x="26" y="-249"/>
      <point x="183" y="-136"/>
      <point x="183" y="-75" type="curve" smooth="yes"/>
    </contour>
  </outline>
</glyph>
<glyph name="l" format="1">
  <advance width="245"/>
  <unicode hex="006C"/>
  <outline>
    <contour>
      <point x="253" y="733" type="move" name="top"/>
    </contour>
    <contour>
      <point x="180" y="682" type="line"/>
      <point x="65" y="710" type="line"/>
      <point x="65" y="-1" type="line"/>
      <point x="180" y="-29" type="line"/>
    </contour>
  </outline>
</glyph>
<glyph name="m" format="1">
  <advance width="877"/>
  <unicode hex="006D"/>
  <outline>
    <contour>
      <point x="180" y="450" type="line"/>
      <point x="65" y="478" type="line"/>
      <point x="65" y="-1" type="line"/>
      <point x="180" y="-29" type="line"/>
      <point x="180" y="273" type="line"/>
      <point x="246" y="355"/>
      <point x="354" y="401"/>
      <point x="394" y="329" type="curve" smooth="yes"/>
      <point x="405" y="309"/>
      <point x="399" y="-1"/>
      <point x="399" y="-1" type="curve"/>
      <point x="399" y="-1"/>
      <point x="514" y="-29"/>
      <point x="513" y="-29" type="curve" smooth="yes"/>
      <point x="513" y="-29"/>
      <point x="514" y="210"/>
      <point x="510" y="284" type="curve"/>
      <point x="577" y="359"/>
      <point x="677" y="398"/>
      <point x="715" y="329" type="curve" smooth="yes"/>
      <point x="726" y="309"/>
      <point x="720" y="-1"/>
      <point x="720" y="-1" type="curve"/>
      <point x="720" y="-1"/>
      <point x="835" y="-29"/>
      <point x="834" y="-29" type="curve" smooth="yes"/>
      <point x="834" y="-29"/>
      <point x="835" y="270"/>
      <point x="830" y="303" type="curve" smooth="yes"/>
      <point x="824" y="339"/>
      <point x="706" y="485"/>
      <point x="662" y="488" type="curve" smooth="yes"/>
      <point x="588" y="493"/>
      <point x="510" y="412"/>
      <point x="472" y="366" type="curve"/>
      <point x="432" y="420"/>
      <point x="370" y="486"/>
      <point x="341" y="488" type="curve" smooth="yes"/>
      <point x="283" y="492"/>
      <point x="222" y="442"/>
      <point x="180" y="398" type="curve"/>
    </contour>
  </outline>
</glyph>
<glyph name="n" format="1">
  <advance width="614"/>
  <unicode hex="006E"/>
  <outline>
    <contour>
      <point x="293" y="507" type="move" name="top"/>
    </contour>
    <contour>
      <point x="180" y="450" type="line"/>
      <point x="65" y="478" type="line"/>
      <point x="65" y="-1" type="line"/>
      <point x="180" y="-29" type="line"/>
      <point x="180" y="272" type="line"/>
      <point x="250" y="355"/>
      <point x="384" y="401"/>
      <point x="424" y="329" type="curve" smooth="yes"/>
      <point x="435" y="309"/>
      <point x="429" y="-1"/>
      <point x="429" y="-1" type="curve"/>
      <point x="429" y="-1"/>
      <point x="544" y="-29"/>
      <point x="543" y="-29" type="curve" smooth="yes"/>
      <point x="543" y="-29"/>
      <point x="544" y="270"/>
      <point x="539" y="303" type="curve" smooth="yes"/>
      <point x="533" y="339"/>
      <point x="415" y="485"/>
      <point x="371" y="488" type="curve" smooth="yes"/>
      <point x="308" y="492"/>
      <point x="230" y="433"/>
      <point x="180" y="388" type="curve"/>
    </contour>
  </outline>
</glyph>
<glyph name="q" format="1">
  <advance width="604"/>
  <unicode hex="0071"/>
  <outline>
    <contour>
      <point x="424" y="377" type="line"/>
      <point x="203" y="485"/>
      <point x="64" y="160"/>
      <point x="191" y="74" type="curve" smooth="yes"/>
      <point x="232" y="46"/>
      <point x="340" y="52"/>
      <point x="424" y="211" type="curve"/>
    </contour>
    <contour>
      <point x="424" y="31" type="line"/>
      <point x="357" y="-29"/>
      <point x="311" y="-41"/>
      <point x="240" y="-13" type="curve" smooth="yes"/>
      <point x="205" y="1"/>
      <point x="146" y="41"/>
      <point x="101" y="83" type="curve" smooth="yes"/>
      <point x="-61" y="231"/>
      <point x="134" y="546"/>
      <point x="313" y="477" type="curve" smooth="yes"/>
      <point x="392" y="447"/>
      <point x="476" y="405"/>
      <point x="539" y="367" type="curve"/>
      <point x="539" y="-250" type="line"/>
      <point x="424" y="-222" type="line"/>
    </contour>
  </outline>
</glyph>
<glyph name="s" format="1">
  <advance width="573"/>
  <unicode hex="0073"/>
  <outline>
    <contour>
      <point x="267" y="7" type="move" name="cedilla"/>
    </contour>
    <contour>
      <point x="358" y="507" type="move" name="top"/>
    </contour>
    <contour>
      <point x="443" y="370" type="line"/>
      <point x="310" y="431"/>
      <point x="189" y="405"/>
      <point x="191" y="288" type="curve" smooth="yes"/>
      <point x="191" y="265"/>
      <point x="378" y="312"/>
      <point x="413" y="292" type="curve" smooth="yes"/>
      <point x="623" y="172"/>
      <point x="502" y="-39"/>
      <point x="315" y="-30" type="curve" smooth="yes"/>
      <point x="230" y="-26"/>
      <point x="167" y="4"/>
      <point x="38" y="98" type="curve"/>
      <point x="60" y="148" type="line"/>
      <point x="178" y="76"/>
      <point x="389" y="3"/>
      <point x="425" y="208" type="curve" smooth="yes"/>
      <point x="428" y="228"/>
      <point x="231" y="151"/>
      <point x="180" y="189" type="curve" smooth="yes"/>
      <point x="144" y="216"/>
      <point x="89" y="246"/>
      <point x="81" y="281" type="curve" smooth="yes"/>
      <point x="55" y="399"/>
      <point x="178" y="489"/>
      <point x="261" y="489" type="curve" smooth="yes"/>
      <point x="319" y="489"/>
      <point x="412" y="457"/>
      <point x="478" y="432" type="curve"/>
    </contour>
  </outline>
</glyph>
<glyph name="u" format="1">
  <advance width="570"/>
  <unicode hex="0075"/>
  <outline>
    <contour>
      <point x="241" y="7" type="move" name="ogonek"/>
    </contour>
    <contour>
      <point x="245" y="507" type="move" name="top"/>
    </contour>
    <contour>
      <point x="408" y="170" type="line"/>
      <point x="359" y="65"/>
      <point x="206" y="42"/>
      <point x="160" y="118" type="curve"/>
      <point x="150" y="138"/>
      <point x="153" y="522"/>
      <point x="153" y="522" type="curve"/>
      <point x="153" y="522"/>
      <point x="40" y="522"/>
      <point x="41" y="522" type="curve" smooth="yes"/>
      <point x="41" y="522"/>
      <point x="38" y="186"/>
      <point x="43" y="153" type="curve" smooth="yes"/>
      <point x="49" y="117"/>
      <point x="167" y="-19"/>
      <point x="211" y="-22" type="curve" smooth="yes"/>
      <point x="313" y="-29"/>
      <point x="450" y="93"/>
      <point x="450" y="93" type="curve"/>
    </contour>
    <contour>
      <point x="508" y="522" type="line"/>
      <point x="395" y="522" type="line"/>
      <point x="395" y="-1" type="line"/>
      <point x="510" y="-29" type="line"/>
    </contour>
    <contour>
      <point x="508" y="522" type="line"/>
      <point x="395" y="522" type="line"/>
      <point x="395" y="-1" type="line"/>
      <point x="510" y="-29" type="line"/>
    </contour>
  </outline>
</glyph>
<glyph name="x" format="1">
  <advance width="510"/>
  <unicode hex="0078"/>
  <outline>
    <contour>
      <point x="466" y="450" type="line"/>
      <point x="351" y="478" type="line"/>
      <point x="252" y="317" type="line"/>
      <point x="161" y="450" type="line"/>
      <point x="46" y="478" type="line"/>
      <point x="206" y="244" type="line"/>
      <point x="55" y="-1" type="line"/>
      <point x="170" y="-29" type="line"/>
      <point x="276" y="142" type="line"/>
      <point x="374" y="-1" type="line"/>
      <point x="489" y="-29" type="line"/>
      <point x="321" y="216" type="line"/>
    </contour>
  </outline>
</glyph>
<glyph name="brokenbar" format="1">
  <advance width="275"/>
  <unicode hex="00A6"/>
  <outline>
    <contour>
      <point x="200" y="-110" type="line"/>
      <point x="76" y="-54" type="line"/>
      <point x="76" y="302" type="line"/>
      <point x="200" y="246" type="line"/>
    </contour>
    <contour>
      <point x="200" y="355" type="line"/>
      <point x="76" y="411" type="line"/>
      <point x="76" y="767" type="line"/>
      <point x="200" y="711" type="line"/>
    </contour>
  </outline>
</glyph>
<glyph name="section" format="1">
  <advance width="529"/>
  <unicode hex="00A7"/>
  <outline>
    <contour>
      <point x="445" y="413" type="curve"/>
      <point x="413" y="439"/>
      <point x="385" y="456"/>
      <point x="343" y="478" type="curve"/>
      <point x="344" y="478" type="line"/>
      <point x="342" y="478" type="line"/>
      <point x="332" y="484" type="line"/>
      <point x="321" y="488" type="line"/>
      <point x="152" y="577"/>
      <point x="291" y="721"/>
      <point x="402" y="644" type="curve"/>
      <point x="425" y="672" type="line"/>
      <point x="381" y="709"/>
      <point x="339" y="738"/>
      <point x="326" y="739" type="curve" smooth="yes"/>
      <point x="171" y="747"/>
      <point x="140" y="623"/>
      <point x="157" y="570" type="curve" smooth="yes"/>
      <point x="163" y="551"/>
      <point x="213" y="518"/>
      <point x="255" y="492" type="curve"/>
      <point x="149" y="465"/>
      <point x="61" y="296"/>
      <point x="183" y="198" type="curve" smooth="yes"/>
      <point x="204" y="181"/>
      <point x="219" y="168"/>
      <point x="263" y="146" type="curve" smooth="yes"/>
      <point x="264" y="145" type="line" smooth="yes"/>
      <point x="397" y="53"/>
      <point x="279" y="-96"/>
      <point x="170" y="-20" type="curve"/>
      <point x="153" y="-43" type="line"/>
      <point x="197" y="-80"/>
      <point x="246" y="-103"/>
      <point x="259" y="-104" type="curve" smooth="yes"/>
      <point x="414" y="-112"/>
      <point x="445" y="12"/>
      <point x="428" y="65" type="curve" smooth="yes"/>
      <point x="423" y="80"/>
      <point x="387" y="106"/>
      <point x="349" y="130" type="curve"/>
      <point x="470" y="148"/>
      <point x="539" y="333"/>
    </contour>
    <contour>
      <point x="362" y="412" type="curve" smooth="yes"/>
      <point x="458" y="350"/>
      <point x="356" y="144"/>
      <point x="256" y="203" type="curve" smooth="yes"/>
      <point x="156" y="261"/>
      <point x="268" y="474"/>
    </contour>
  </outline>
</glyph>
<glyph name="Acircumflex" format="1">
  <advance width="657"/>
  <unicode hex="00C2"/>
  <outline>
    <contour>
      <point x="397" y="8" type="move" name="ogonek"/>
    </contour>
    <contour>
      <point x="332" y="743" type="move" name="top"/>
    </contour>
    <component base="A"/>
    <component base="circumflex" xOffset="147" yOffset="158"/>
  </outline>
</glyph>
<glyph name="Egrave" format="1">
  <advance width="551"/>
  <unicode hex="00C8"/>
  <outline>
    <contour>
      <point x="440" y="101" type="move" name="ogonek"/>
    </contour>
    <contour>
      <point x="342" y="743" type="move" name="top"/>
    </contour>
  </outline>
</glyph>
<glyph name="Igrave" format="1">
  <advance width="300"/>
  <unicode hex="00CC"/>
  <outline>
    <component base="I"/>
    <component base="grave" xOffset="-137" yOffset="157"/>
    <contour>
      <point x="77" y="8" type="move" name="ogonek"/>
    </contour>
    <contour>
      <point x="234" y="743" type="move" name="top"/>
    </contour>
  </outline>
</glyph>
<glyph name="Iacute" format="1">
  <advance width="300"/>
  <unicode hex="00CD"/>
  <outline>
    <contour>
      <point x="77" y="8" type="move" name="ogonek"/>
    </contour>
    <contour>
      <point x="234" y="743" type="move" name="top"/>
    </contour>
    <component base="I" xOffset="15"/>
    <component base="acute" xOffset="-76" yOffset="159"/>
  </outline>
</glyph>
<glyph name="Icircumflex" format="1">
  <advance width="300"/>
  <unicode hex="00CE"/>
  <outline>
    <component base="I"/>
    <component base="circumflex" xOffset="-21" yOffset="159"/>
    <contour>
      <point x="77" y="8" type="move" name="ogonek"/>
    </contour>
    <contour>
      <point x="234" y="743" type="move" name="top"/>
    </contour>
  </outline>
</glyph>
<glyph name="Idieresis" format="1">
  <advance width="300"/>
  <unicode hex="00CF"/>
  <outline>
    <component base="I"/>
    <component base="dieresis" xOffset="-26" yOffset="159"/>
    <contour>
      <point x="77" y="8" type="move" name="ogonek"/>
    </contour>
    <contour>
      <point x="234" y="743" type="move" name="top"/>
    </contour>
  </outline>
</glyph>
<glyph name="Eth" format="1">
  <advance width="809"/>
  <unicode hex="00D0"/>
  <outline>
    <contour>
      <point x="343" y="657" type="move" name="top"/>
    </contour>
    <contour>
      <point x="269" y="387" type="line"/>
      <point x="336" y="332" type="line"/>
      <point x="47" y="278" type="line"/>
      <point x="-23" y="336" type="line"/>
    </contour>
    <component base="D"/>
  </outline>
</glyph>
<glyph name="Odieresis" format="1">
  <advance width="823"/>
  <unicode hex="00D6"/>
  <outline>
    <contour>
      <point x="454" y="743" type="move" name="top"/>
    </contour>
    <component base="O" xOffset="10"/>
    <component base="dieresis" xOffset="272" yOffset="195"/>
  </outline>
</glyph>
<glyph name="Thorn" format="1">
  <advance width="565"/>
  <unicode hex="00DE"/>
  <outline>
    <contour>
      <point x="188" y="-29" type="line"/>
      <point x="63" y="-1" type="line"/>
      <point x="63" y="710" type="line"/>
      <point x="188" y="682" type="line"/>
      <point x="188" y="573" type="line"/>
      <point x="261" y="597"/>
      <point x="342" y="594"/>
      <point x="421" y="543" type="curve"/>
      <point x="674" y="376"/>
      <point x="459" y="78"/>
      <point x="307" y="117" type="curve" smooth="yes"/>
      <point x="283" y="123"/>
      <point x="225" y="145"/>
      <point x="188" y="160" type="curve"/>
    </contour>
    <contour>
      <point x="376" y="281" type="curve" smooth="yes"/>
      <point x="504" y="467"/>
      <point x="344" y="610"/>
      <point x="188" y="433" type="curve"/>
      <point x="188" y="215" type="line"/>
      <point x="236" y="201"/>
      <point x="312" y="189"/>
    </contour>
  </outline>
</glyph>
<glyph name="ae" format="1">
  <advance width="770"/>
  <unicode hex="00E6"/>
  <outline>
    <contour>
      <point x="421" y="17" type="move" name="ogonek"/>
    </contour>
    <contour>
      <point x="500" y="507" type="move" name="top"/>
    </contour>
  </outline>
</glyph>
<glyph name="ccedilla" format="1">
  <advance width="493"/>
  <unicode hex="00E7"/>
  <outline>
    <contour>
      <point x="164" y="7" type="move" name="cedilla"/>
    </contour>
    <contour>
      <point x="279" y="507" type="move" name="top"/>
    </contour>
  </outline>
</glyph>
<glyph name="divide" format="1">
  <advance width="600"/>
  <unicode hex="00F7"/>
  <outline>
    <contour>
      <point x="276" y="84" type="curve"/>
      <point x="317" y="105"/>
      <point x="341" y="133"/>
      <point x="350" y="156" type="curve"/>
      <point x="341" y="174"/>
      <point x="320" y="207"/>
      <point x="275" y="227" type="curve"/>
      <point x="254" y="222"/>
      <point x="203" y="180"/>
      <point x="200" y="157" type="curve"/>
      <point x="217" y="123"/>
      <point x="248" y="97"/>
    </contour>
    <contour>
      <point x="270" y="408" type="curve"/>
      <point x="311" y="429"/>
      <point x="335" y="457"/>
      <point x="344" y="480" type="curve"/>
      <point x="335" y="498"/>
      <point x="314" y="531"/>
      <point x="269" y="551" type="curve"/>
      <point x="248" y="546"/>
      <point x="197" y="504"/>
      <point x="194" y="481" type="curve"/>
      <point x="211" y="447"/>
      <point x="242" y="421"/>
    </contour>
    <contour>
      <point x="30" y="358" type="line"/>
      <point x="483" y="358" type="line"/>
      <point x="514" y="277" type="line"/>
      <point x="61" y="277" type="line"/>
    </contour>
  </outline>
</glyph>
<glyph name="aogonek" format="1">
  <advance width="518"/>
  <unicode hex="0105"/>
  <outline>
    <contour>
      <point x="344" y="7" type="move" name="ogonek"/>
    </contour>
    <contour>
      <point x="374" y="507" type="move" name="top"/>
    </contour>
  </outline>
</glyph>
<glyph name="ccaron" format="1">
  <advance width="493"/>
  <unicode hex="010D"/>
  <outline>
    <contour>
      <point x="175" y="7" type="move" name="cedilla"/>
    </contour>
    <contour>
      <point x="290" y="507" type="move" name="top"/>
    </contour>
  </outline>
</glyph>
<glyph name="Gbreve" format="1">
  <advance width="823"/>
  <unicode hex="011E"/>
  <outline>
    <contour>
      <point x="461" y="723" type="move" name="top"/>
    </contour>
    <component base="G"/>
    <component base="breve" xOffset="234" yOffset="215"/>
  </outline>
</glyph>
<glyph name="Gcommaaccent" format="1">
  <advance width="597"/>
  <unicode hex="0122"/>
  <outline>
    <contour>
      <point x="461" y="723" type="move" name="top"/>
    </contour>
  </outline>
</glyph>
<glyph name="Iogonek" format="1">
  <advance width="309"/>
  <unicode hex="012E"/>
  <outline>
    <contour>
      <point x="77" y="8" type="move" name="ogonek"/>
    </contour>
    <contour>
      <point x="234" y="743" type="move" name="top"/>
    </contour>
  </outline>
</glyph>
<glyph name="Idotaccent" format="1">
  <advance width="300"/>
  <unicode hex="0130"/>
  <outline>
    <component base="I"/>
    <component base="dotaccent" xOffset="66" yOffset="143"/>
    <contour>
      <point x="77" y="8" type="move" name="ogonek"/>
    </contour>
    <contour>
      <point x="234" y="743" type="move" name="top"/>
    </contour>
  </outline>
</glyph>
<glyph name="Lacute" format="1">
  <advance width="670"/>
  <unicode hex="0139"/>
  <outline>
    <contour>
      <point x="338" y="743" type="move" name="top"/>
    </contour>
    <component base="L" xOffset="15"/>
    <component base="acute" xOffset="132" yOffset="156"/>
  </outline>
</glyph>
<glyph name="Nacute" format="1">
  <advance width="762"/>
  <unicode hex="0143"/>
  <outline>
    <contour>
      <point x="381" y="743" type="move" name="top"/>
    </contour>
    <component base="N"/>
    <component base="acute" xOffset="187" yOffset="159"/>
  </outline>
</glyph>
<glyph name="ncaron" format="1">
  <advance width="610"/>
  <unicode hex="0148"/>
  <outline>
    <contour>
      <point x="287" y="507" type="move" name="top"/>
    </contour>
    <component base="n" xOffset="62"/>
    <component base="caron" xOffset="134"/>
  </outline>
</glyph>
<glyph name="Omacron" format="1">
  <advance width="823"/>
  <unicode hex="014C"/>
  <outline>
    <contour>
      <point x="454" y="743" type="move" name="top"/>
    </contour>
    <component base="O" xOffset="10"/>
    <component base="macron" xOffset="240" yOffset="232"/>
  </outline>
</glyph>
<glyph name="Sacute" format="1">
  <advance width="539"/>
  <unicode hex="015A"/>
  <outline>
    <contour>
      <point x="191" y="0" type="move" name="cedilla"/>
    </contour>
    <contour>
      <point x="400" y="743" type="move" name="top"/>
    </contour>
  </outline>
</glyph>
<glyph name="Tcedilla" format="1">
  <advance width="647"/>
  <unicode hex="0162"/>
  <outline>
    <contour>
      <point x="193" y="0" type="move" name="cedilla"/>
    </contour>
    <contour>
      <point x="365" y="743" type="move" name="top"/>
    </contour>
    <component base="T"/>
    <component base="cedilla" xOffset="160"/>
  </outline>
</glyph>
<glyph name="Tcaron" format="1">
  <advance width="647"/>
  <unicode hex="0164"/>
  <outline>
    <contour>
      <point x="156" y="0" type="move" name="cedilla"/>
    </contour>
    <contour>
      <point x="328" y="743" type="move" name="top"/>
    </contour>
    <component base="T"/>
    <component base="caron" xOffset="153" yOffset="185"/>
  </outline>
</glyph>
<glyph name="zcaron" format="1">
  <advance width="459"/>
  <unicode hex="017E"/>
  <outline>
    <contour>
      <point x="256" y="507" type="move" name="top"/>
    </contour>
  </outline>
</glyph>
<glyph name="Scommaaccent" format="1">
  <advance width="756"/>
  <unicode hex="0218"/>
  <outline>
    <contour>
      <point x="191" y="0" type="move" name="cedilla"/>
    </contour>
    <contour>
      <point x="400" y="743" type="move" name="top"/>
    </contour>
    <component base="S" xOffset="15"/>
    <component base="comma" xOffset="281" yOffset="-177"/>
  </outline>
</glyph>
<glyph name="tilde" format="1">
  <advance width="414"/>
  <unicode hex="02DC"/>
  <outline>
    <contour>
      <point x="138" y="722" type="curve" smooth="yes"/>
      <point x="111" y="725"/>
      <point x="-2" y="632"/>
      <point x="-2" y="632" type="curve"/>
      <point x="64" y="541" type="line"/>
      <point x="64" y="541"/>
      <point x="132" y="626"/>
      <point x="163" y="627" type="curve" smooth="yes"/>
      <point x="178" y="628"/>
      <point x="261" y="539"/>
      <point x="288" y="539" type="curve" smooth="yes"/>
      <point x="338" y="539"/>
      <point x="422" y="625"/>
      <point x="422" y="625" type="curve"/>
      <point x="361" y="699" type="line"/>
      <point x="361" y="699"/>
      <point x="298" y="625"/>
      <point x="275" y="625" type="curve" smooth="yes"/>
      <point x="254" y="625"/>
      <point x="165" y="719"/>
    </contour>
  </outline>
</glyph>
<glyph name="pi" format="1">
  <advance width="760"/>
  <unicode hex="03C0"/>
  <outline>
    <contour>
      <point x="127" y="389" type="line"/>
      <point x="220" y="389" type="line"/>
      <point x="257" y="311"/>
      <point x="246" y="209"/>
      <point x="228" y="162" type="curve" smooth="yes"/>
      <point x="199" y="86"/>
      <point x="177" y="62"/>
      <point x="151" y="25" type="curve"/>
      <point x="163" y="6"/>
      <point x="229" y="-29"/>
      <point x="254" y="-29" type="curve" smooth="yes"/>
      <point x="299" y="-29"/>
      <point x="413" y="189"/>
      <point x="300" y="389" type="curve"/>
      <point x="485" y="389" type="line"/>
      <point x="485" y="-1" type="line"/>
      <point x="600" y="-29" type="line"/>
      <point x="600" y="389" type="line"/>
      <point x="694" y="389" type="line"/>
      <point x="614" y="479" type="line"/>
      <point x="47" y="479" type="line"/>
    </contour>
  </outline>
</glyph>
<glyph name="quoteright" format="1">
  <advance width="258"/>
  <unicode hex="2019"/>
  <outline>
    <contour>
      <point x="162" y="551" type="curve"/>
      <point x="121" y="578" type="line"/>
      <point x="131" y="608"/>
      <point x="140" y="637"/>
      <point x="142" y="661" type="curve"/>
      <point x="137" y="687"/>
      <point x="128" y="724"/>
      <point x="112" y="750" type="curve"/>
      <point x="109" y="773"/>
      <point x="241" y="818"/>
      <point x="250" y="806" type="curve"/>
      <point x="255" y="725"/>
      <point x="211" y="607"/>
    </contour>
  </outline>
</glyph>
<glyph name="guilsinglleft" format="1">
  <advance width="389"/>
  <unicode hex="2039"/>
  <outline>
    <contour>
      <point x="322" y="119" type="line"/>
      <point x="275" y="67" type="line"/>
      <point x="20" y="285" type="line"/>
      <point x="237" y="489" type="line"/>
      <point x="329" y="421" type="line"/>
      <point x="147" y="262" type="line"/>
    </contour>
  </outline>
</glyph>
<glyph name="Delta.math" format="1">
  <advance width="681"/>
  <unicode hex="2206"/>
  <outline>
    <contour>
      <point x="653" y="0" type="line"/>
      <point x="146" y="0" type="line"/>
      <point x="144" y="1" type="line"/>
      <point x="17" y="30" type="line"/>
      <point x="259" y="666" type="line"/>
      <point x="387" y="625" type="line"/>
      <point x="386" y="622" type="line"/>
      <point x="654" y="1" type="line"/>
      <point x="651" y="1" type="line"/>
    </contour>
    <contour>
      <point x="181" y="90" type="line"/>
      <point x="511" y="90" type="line"/>
      <point x="342" y="509" type="line"/>
    </contour>
  </outline>
</glyph>
<glyph name="minus" format="1">
  <advance width="566"/>
  <unicode hex="2212"/>
  <outline>
    <contour>
      <point x="61" y="277" type="line"/>
      <point x="514" y="277" type="line"/>
      <point x="483" y="358" type="line"/>
      <point x="30" y="358" type="line"/>
    </contour>
  </outline>
</glyph>
<glyph name="fi" format="1">
  <advance width="631"/>
  <unicode hex="FB01"/>
  <outline>
    <contour>
      <point x="538" y="529" type="curve"/>
      <point x="510" y="542"/>
      <point x="479" y="568"/>
      <point x="462" y="602" type="curve"/>
      <point x="465" y="625"/>
      <point x="516" y="667"/>
      <point x="537" y="672" type="curve"/>
      <point x="582" y="652"/>
      <point x="603" y="619"/>
      <point x="612" y="601" type="curve"/>
      <point x="603" y="578"/>
      <point x="579" y="550"/>
    </contour>
    <contour>
      <point x="606" y="-29" type="line"/>
      <point x="481" y="-1" type="line"/>
      <point x="481" y="478" type="line"/>
      <point x="606" y="450" type="line"/>
    </contour>
    <contour>
      <point x="140" y="565" type="line" smooth="yes"/>
      <point x="140" y="626"/>
      <point x="290" y="740"/>
      <point x="354" y="704" type="curve" smooth="yes"/>
      <point x="383" y="688"/>
      <point x="443" y="653"/>
      <point x="484" y="616" type="curve"/>
      <point x="462" y="602" type="line"/>
      <point x="277" y="666"/>
      <point x="263" y="571"/>
      <point x="261" y="478" type="curve"/>
      <point x="266" y="-29" type="line"/>
      <point x="141" y="-1" type="line"/>
      <point x="140" y="210"/>
      <point x="140" y="327"/>
      <point x="140" y="478" type="curve" smooth="yes"/>
    </contour>
    <contour>
      <point x="36" y="478" type="line"/>
      <point x="483" y="478" type="line"/>
      <point x="513" y="408" type="line"/>
      <point x="66" y="408" type="line"/>
    </contour>
  </outline>
</glyph>
<glyph name="ffi" format="1">
  <advance width="929"/>
  <unicode hex="FB03"/>
  <outline>
    <contour>
      <point x="23" y="478" type="line"/>
      <point x="127" y="478" type="line"/>
      <point x="127" y="565" type="line" smooth="yes"/>
      <point x="127" y="626"/>
      <point x="267" y="705"/>
      <point x="335" y="677" type="curve" smooth="yes"/>
      <point x="366" y="665"/>
      <point x="439" y="628"/>
      <point x="489" y="607" type="curve"/>
      <point x="470" y="569" type="line"/>
      <point x="284" y="638"/>
      <point x="250" y="571"/>
      <point x="248" y="478" type="curve"/>
      <point x="380" y="478" type="line"/>
      <point x="410" y="408" type="line"/>
      <point x="248" y="408" type="line"/>
      <point x="253" y="-29" type="line"/>
      <point x="128" y="-1" type="line"/>
      <point x="127" y="176"/>
      <point x="127" y="287"/>
      <point x="127" y="408" type="curve"/>
      <point x="53" y="408" type="line"/>
    </contour>
    <component base="fi" xOffset="298"/>
  </outline>
</glyph>
<glyph name="dvAA" format="1">
  <advance width="1049"/>
  <outline>
    <component base="dvAA.init"/>
    <contour>
      <point x="935" y="658" type="move" name="abvm.bindu"/>
    </contour>
  </outline>
</glyph>
<glyph name="dvAU" format="1">
  <advance width="1041"/>
  <outline>
    <contour>
      <point x="1012" y="667" type="move" name="abvm.bindu"/>
    </contour>
    <component base="dvmAI" xOffset="1080"/>
    <component base="dvAA.init"/>
  </outline>
</glyph>
<glyph name="dvAU.init" format="1">
  <advance width="1030"/>
  <outline>
    <component base="dvmAI" xOffset="1067"/>
    <component base="dvAA.init"/>
    <contour>
      <point x="980" y="625" type="move" name="abvm.bindu"/>
    </contour>
  </outline>
</glyph>
<glyph name="dvA.init" format="1">
  <advance width="800"/>
  <outline>
    <contour>
      <point x="473" y="469"/>
      <point x="481" y="448"/>
      <point x="481" y="426" type="curve" smooth="yes"/>
      <point x="481" y="389"/>
      <point x="459" y="349"/>
      <point x="421" y="317" type="curve"/>
      <point x="434" y="315"/>
      <point x="456" y="313"/>
      <point x="467" y="313" type="curve" smooth="yes"/>
      <point x="539" y="313"/>
      <point x="581" y="342"/>
      <point x="614" y="375" type="curve"/>
      <point x="614" y="523" type="line"/>
      <point x="521" y="523" type="line"/>
      <point x="483" y="619" type="line"/>
      <point x="804" y="619" type="line"/>
      <point x="804" y="523" type="line"/>
      <point x="738" y="523" type="line"/>
      <point x="738" y="-56" type="line"/>
      <point x="614" y="0" type="line"/>
      <point x="614" y="267" type="line"/>
      <point x="596" y="261"/>
      <point x="579" y="258"/>
      <point x="563" y="258" type="curve" smooth="yes"/>
      <point x="522" y="258"/>
      <point x="485" y="265"/>
      <point x="446" y="277" type="curve"/>
      <point x="444" y="275" type="line"/>
      <point x="503" y="218"/>
      <point x="536" y="174"/>
      <point x="536" y="138" type="curve" smooth="yes"/>
      <point x="536" y="60"/>
      <point x="411" y="-22"/>
      <point x="313" y="-22" type="curve" smooth="yes"/>
      <point x="289" y="-22"/>
      <point x="272" y="-17"/>
      <point x="255" y="-6" type="curve" smooth="yes"/>
      <point x="205" y="27"/>
      <point x="139" y="109"/>
      <point x="29" y="267" type="curve"/>
      <point x="57" y="285" type="line"/>
      <point x="201" y="105"/>
      <point x="245" y="84"/>
      <point x="303" y="84" type="curve" smooth="yes"/>
      <point x="327" y="84"/>
      <point x="351" y="90"/>
      <point x="376" y="103" type="curve" smooth="yes"/>
      <point x="410" y="121"/>
      <point x="426" y="146"/>
      <point x="426" y="174" type="curve" smooth="yes"/>
      <point x="426" y="211"/>
      <point x="411" y="245"/>
      <point x="369" y="280" type="curve"/>
      <point x="336" y="265"/>
      <point x="293" y="255"/>
      <point x="251" y="253" type="curve"/>
      <point x="197" y="346" type="line"/>
      <point x="316" y="359"/>
      <point x="397" y="402"/>
      <point x="397" y="453" type="curve" smooth="yes"/>
      <point x="397" y="460"/>
      <point x="396" y="466"/>
      <point x="393" y="473" type="curve" smooth="yes"/>
      <point x="378" y="512"/>
      <point x="349" y="525"/>
      <point x="317" y="525" type="curve" smooth="yes"/>
      <point x="256" y="525"/>
      <point x="180" y="475"/>
      <point x="150" y="455" type="curve"/>
      <point x="89" y="542" type="line"/>
      <point x="117" y="561"/>
      <point x="199" y="624"/>
      <point x="268" y="624" type="curve" smooth="yes"/>
      <point x="288" y="624"/>
      <point x="306" y="619"/>
      <point x="322" y="606" type="curve" smooth="yes"/>
      <point x="379" y="558"/>
      <point x="399" y="543"/>
      <point x="456" y="486" type="curve" smooth="yes"/>
    </contour>
    <contour>
      <point x="656.0" y="-19.0" type="move" name="blwm.virama"/>
    </contour>
    <contour>
      <point x="695.0" y="618.0" type="move" name="abvm.bindu"/>
    </contour>
    <contour>
      <point x="679.0" y="-29.0" type="move" name="blwm.u"/>
    </contour>
    <contour>
      <point x="677.0" y="618.0" type="move" name="abvm.e"/>
    </contour>
  </outline>
</glyph>
<glyph name="dvAcandra.init" format="1">
  <advance width="800"/>
  <outline>
    <component base="dvA.init"/>
    <component base="dvmEcandra" xOffset="733"/>
    <contour>
      <point x="653" y="-19" type="move" name="blwm.virama"/>
    </contour>
    <contour>
      <point x="653" y="772" type="move" name="abvm.bindu"/>
    </contour>
    <contour>
      <point x="666" y="-24" type="move" name="blwm.u"/>
    </contour>
    <contour>
      <point x="683" y="619" type="move" name="abvm.e"/>
    </contour>
  </outline>
</glyph>
<glyph name="dvAnusvara" format="1">
  <advance width="0"/>
  <outline>
    <contour>
      <point x="-97" y="625" type="move" name="_abvm.bindu"/>
    </contour>
    <contour>
      <point x="-42" y="693" type="curve"/>
      <point x="0" y="715"/>
      <point x="26" y="745"/>
      <point x="35" y="770" type="curve"/>
      <point x="26" y="789"/>
      <point x="4" y="824"/>
      <point x="-44" y="845" type="curve"/>
      <point x="-65" y="840"/>
      <point x="-119" y="795"/>
      <point x="-122" y="771" type="curve"/>
      <point x="-104" y="734"/>
      <point x="-72" y="707"/>
    </contour>
  </outline>
</glyph>
<glyph name="dvB" format="1">
  <advance width="375"/>
  <outline>
    <contour>
      <point x="421" y="314" type="line"/>
      <point x="271" y="445"/>
      <point x="97" y="258"/>
      <point x="151" y="201" type="curve" smooth="yes"/>
      <point x="178" y="171"/>
      <point x="304" y="120"/>
      <point x="417" y="306" type="curve"/>
      <point x="417" y="306"/>
      <point x="442" y="214"/>
      <point x="442" y="214" type="curve"/>
      <point x="442" y="214"/>
      <point x="374" y="72"/>
      <point x="272" y="71" type="curve"/>
      <point x="166" y="71"/>
      <point x="91" y="191"/>
      <point x="54" y="263" type="curve" smooth="yes"/>
      <point x="9" y="348"/>
      <point x="228" y="500"/>
      <point x="287" y="460" type="curve" smooth="yes"/>
      <point x="321" y="436"/>
      <point x="388" y="391"/>
      <point x="424" y="368" type="curve"/>
    </contour>
    <contour>
      <point x="167" y="340" type="line"/>
      <point x="191" y="368" type="line"/>
      <point x="389" y="176" type="line"/>
      <point x="365" y="149" type="line"/>
    </contour>
    <contour>
      <point x="-8" y="619" type="line"/>
      <point x="594" y="619" type="line"/>
      <point x="594" y="523" type="line"/>
      <point x="-8" y="523" type="line"/>
    </contour>
  </outline>
</glyph>
<glyph name="dvBA" format="1">
  <advance width="588"/>
  <outline>
    <contour>
      <point x="-7" y="522" type="line"/>
      <point x="394" y="522" type="line"/>
      <point x="394" y="387" type="line"/>
      <point x="358" y="410"/>
      <point x="313" y="441"/>
      <point x="287" y="460" type="curve"/>
      <point x="228" y="500"/>
      <point x="9" y="348"/>
      <point x="54" y="263" type="curve" smooth="yes"/>
      <point x="91" y="191"/>
      <point x="166" y="71"/>
      <point x="272" y="71" type="curve" smooth="yes"/>
      <point x="322" y="71"/>
      <point x="364" y="106"/>
      <point x="394" y="141" type="curve"/>
      <point x="394" y="1" type="line"/>
      <point x="519" y="-55" type="line"/>
      <point x="519" y="522" type="line"/>
      <point x="595" y="522" type="line"/>
      <point x="594" y="619" type="line"/>
      <point x="-8" y="619" type="line"/>
    </contour>
    <contour>
      <point x="151" y="201" type="curve" smooth="yes"/>
      <point x="127" y="226"/>
      <point x="148" y="277"/>
      <point x="192" y="315" type="curve"/>
      <point x="316" y="196" type="line"/>
      <point x="238" y="148"/>
      <point x="170" y="180"/>
    </contour>
    <contour>
      <point x="345" y="218" type="curve"/>
      <point x="223" y="336" type="line"/>
      <point x="271" y="363"/>
      <point x="333" y="372"/>
      <point x="394" y="334" type="curve"/>
      <point x="394" y="271" type="line"/>
      <point x="378" y="249"/>
      <point x="361" y="232"/>
    </contour>
  </outline>
</glyph>
<glyph name="dvBH" format="1">
  <advance width="499"/>
  <outline>
    <contour>
      <point x="344" y="384" type="line" smooth="yes"/>
      <point x="343" y="348"/>
      <point x="189" y="330"/>
      <point x="174" y="345" type="curve" smooth="yes"/>
      <point x="119" y="400"/>
      <point x="93" y="414"/>
      <point x="42" y="462" type="curve"/>
      <point x="-21" y="519"/>
      <point x="101" y="679"/>
      <point x="187" y="607" type="curve" smooth="yes"/>
      <point x="250" y="554"/>
      <point x="308" y="510"/>
      <point x="346" y="467" type="curve"/>
    </contour>
    <contour>
      <point x="220" y="432" type="curve"/>
      <point x="220" y="472"/>
      <point x="221" y="521"/>
      <point x="214" y="528" type="curve" smooth="yes"/>
      <point x="163" y="580"/>
      <point x="90" y="465"/>
      <point x="124" y="437" type="curve" smooth="yes"/>
      <point x="138" y="426"/>
      <point x="183" y="426"/>
    </contour>
    <contour>
      <point x="219" y="176" type="curve"/>
      <point x="153" y="184"/>
      <point x="137" y="138"/>
      <point x="157" y="115" type="curve" smooth="yes"/>
      <point x="173" y="97"/>
      <point x="220" y="99"/>
    </contour>
    <contour>
      <point x="344" y="172" type="line"/>
      <point x="344" y="-9"/>
      <point x="216" y="7"/>
      <point x="188" y="26" type="curve" smooth="yes"/>
      <point x="166" y="41"/>
      <point x="115" y="80"/>
      <point x="82" y="119" type="curve" smooth="yes"/>
      <point x="51" y="156"/>
      <point x="62" y="280"/>
      <point x="220" y="273" type="curve"/>
      <point x="220" y="350" type="line"/>
      <point x="344" y="391" type="line"/>
      <point x="344" y="270" type="line"/>
      <point x="562" y="271" type="line"/>
      <point x="562" y="172" type="line"/>
    </contour>
    <contour>
      <point x="318" y="619" type="line"/>
      <point x="699" y="619" type="line"/>
      <point x="699" y="523" type="line"/>
      <point x="356" y="523" type="line"/>
    </contour>
  </outline>
</glyph>
<glyph name="dvBHA" format="1">
  <advance width="712"/>
  <outline>
    <contour>
      <point x="237" y="441"/>
      <point x="237" y="450"/>
      <point x="237" y="459" type="curve" smooth="yes"/>
      <point x="237" y="492"/>
      <point x="235" y="523"/>
      <point x="230" y="528" type="curve" smooth="yes"/>
      <point x="221" y="537"/>
      <point x="212" y="541"/>
      <point x="202" y="541" type="curve" smooth="yes"/>
      <point x="167" y="541"/>
      <point x="132" y="491"/>
      <point x="132" y="459" type="curve" smooth="yes"/>
      <point x="132" y="450"/>
      <point x="135" y="442"/>
      <point x="141" y="437" type="curve" smooth="yes"/>
      <point x="149" y="431"/>
      <point x="167" y="428"/>
      <point x="189" y="428" type="curve" smooth="yes"/>
      <point x="204" y="428"/>
      <point x="221" y="429"/>
      <point x="237" y="432" type="curve"/>
    </contour>
    <contour>
      <point x="237" y="340" type="line"/>
      <point x="231" y="339"/>
      <point x="225" y="339"/>
      <point x="220" y="339" type="curve" smooth="yes"/>
      <point x="201" y="339"/>
      <point x="189" y="341"/>
      <point x="181" y="345" type="curve" smooth="yes"/>
      <point x="138" y="366"/>
      <point x="96" y="403"/>
      <point x="59" y="442" type="curve" smooth="yes"/>
      <point x="48" y="454"/>
      <point x="42" y="478"/>
      <point x="42" y="504" type="curve" smooth="yes"/>
      <point x="42" y="557"/>
      <point x="78" y="625"/>
      <point x="156" y="625" type="curve" smooth="yes"/>
      <point x="186" y="625"/>
      <point x="231" y="591"/>
      <point x="292" y="536" type="curve" smooth="yes"/>
      <point x="346" y="488"/>
      <point x="361" y="464"/>
      <point x="361" y="402" type="curve" smooth="yes"/>
      <point x="361" y="288" type="line"/>
      <point x="517" y="288" type="line"/>
      <point x="517" y="523" type="line"/>
      <point x="373" y="523" type="line"/>
      <point x="335" y="619" type="line"/>
      <point x="716" y="619" type="line"/>
      <point x="716" y="523" type="line"/>
      <point x="641" y="523" type="line"/>
      <point x="641" y="-56" type="line"/>
      <point x="517" y="0" type="line"/>
      <point x="517" y="192" type="line"/>
      <point x="361" y="192" type="line"/>
      <point x="361" y="144" type="line" smooth="yes"/>
      <point x="361" y="88"/>
      <point x="306" y="19"/>
      <point x="249" y="19" type="curve" smooth="yes"/>
      <point x="205" y="19"/>
      <point x="152" y="46"/>
      <point x="114" y="84" type="curve" smooth="yes"/>
      <point x="78" y="120"/>
      <point x="46" y="160"/>
      <point x="46" y="196" type="curve" smooth="yes"/>
      <point x="46" y="252"/>
      <point x="103" y="288"/>
      <point x="157" y="288" type="curve" smooth="yes"/>
      <point x="237" y="288" type="line"/>
    </contour>
    <contour>
      <point x="235" y="193"/>
      <point x="215" y="193"/>
      <point x="212" y="193" type="curve" smooth="yes"/>
      <point x="165" y="193"/>
      <point x="149" y="167"/>
      <point x="149" y="146" type="curve" smooth="yes"/>
      <point x="149" y="124"/>
      <point x="164" y="106"/>
      <point x="177" y="106" type="curve" smooth="yes"/>
      <point x="209" y="106"/>
      <point x="239" y="124"/>
      <point x="239" y="193" type="curve"/>
    </contour>
  </outline>
</glyph>
<glyph name="dvBH_LA" format="1">
  <advance width="1128"/>
  <outline>
    <contour>
      <point x="378" y="619" type="line"/>
      <point x="759" y="619" type="line"/>
      <point x="759" y="523" type="line"/>
      <point x="416" y="523" type="line"/>
    </contour>
    <component base="dvBH" xOffset="-9"/>
    <component base="dvLA" xOffset="454"/>
  </outline>
</glyph>
<glyph name="dvBH_RA" format="1">
  <advance width="695"/>
  <outline>
    <contour>
      <point x="542" y="114" type="line"/>
      <point x="501" y="58"/>
      <point x="420" y="-20"/>
      <point x="327" y="-94" type="curve"/>
      <point x="214" y="-34" type="line"/>
      <point x="317" y="28"/>
      <point x="471" y="169"/>
      <point x="533" y="242" type="curve"/>
    </contour>
    <contour>
      <point x="237" y="441"/>
      <point x="237" y="450"/>
      <point x="237" y="459" type="curve" smooth="yes"/>
      <point x="237" y="492"/>
      <point x="235" y="523"/>
      <point x="230" y="528" type="curve" smooth="yes"/>
      <point x="221" y="537"/>
      <point x="212" y="541"/>
      <point x="202" y="541" type="curve" smooth="yes"/>
      <point x="167" y="541"/>
      <point x="132" y="491"/>
      <point x="132" y="459" type="curve" smooth="yes"/>
      <point x="132" y="450"/>
      <point x="135" y="442"/>
      <point x="141" y="437" type="curve" smooth="yes"/>
      <point x="149" y="431"/>
      <point x="167" y="428"/>
      <point x="189" y="428" type="curve" smooth="yes"/>
      <point x="204" y="428"/>
      <point x="221" y="429"/>
      <point x="237" y="432" type="curve"/>
    </contour>
    <contour>
      <point x="237" y="340" type="line"/>
      <point x="231" y="339"/>
      <point x="225" y="339"/>
      <point x="220" y="339" type="curve" smooth="yes"/>
      <point x="201" y="339"/>
      <point x="189" y="341"/>
      <point x="181" y="345" type="curve" smooth="yes"/>
      <point x="138" y="366"/>
      <point x="96" y="403"/>
      <point x="59" y="442" type="curve" smooth="yes"/>
      <point x="48" y="454"/>
      <point x="42" y="478"/>
      <point x="42" y="504" type="curve" smooth="yes"/>
      <point x="42" y="557"/>
      <point x="78" y="625"/>
      <point x="156" y="625" type="curve" smooth="yes"/>
      <point x="186" y="625"/>
      <point x="231" y="591"/>
      <point x="292" y="536" type="curve" smooth="yes"/>
      <point x="346" y="488"/>
      <point x="361" y="464"/>
      <point x="361" y="402" type="curve" smooth="yes"/>
      <point x="361" y="308" type="line"/>
      <point x="517" y="308" type="line"/>
      <point x="517" y="523" type="line"/>
      <point x="373" y="523" type="line"/>
      <point x="335" y="619" type="line"/>
      <point x="716" y="619" type="line"/>
      <point x="716" y="523" type="line"/>
      <point x="641" y="523" type="line"/>
      <point x="641" y="-56" type="line"/>
      <point x="517" y="0" type="line"/>
      <point x="517" y="212" type="line"/>
      <point x="361" y="212" type="line"/>
      <point x="361" y="164" type="line" smooth="yes"/>
      <point x="361" y="108"/>
      <point x="306" y="46"/>
      <point x="249" y="46" type="curve" smooth="yes"/>
      <point x="205" y="46"/>
      <point x="152" y="73"/>
      <point x="114" y="111" type="curve" smooth="yes"/>
      <point x="78" y="147"/>
      <point x="46" y="180"/>
      <point x="46" y="216" type="curve" smooth="yes"/>
      <point x="46" y="272"/>
      <point x="103" y="308"/>
      <point x="157" y="308" type="curve" smooth="yes"/>
      <point x="237" y="308" type="line"/>
    </contour>
    <contour>
      <point x="235" y="213"/>
      <point x="215" y="213"/>
      <point x="212" y="213" type="curve" smooth="yes"/>
      <point x="165" y="213"/>
      <point x="149" y="187"/>
      <point x="149" y="166" type="curve" smooth="yes"/>
      <point x="149" y="149"/>
      <point x="164" y="133"/>
      <point x="177" y="133" type="curve" smooth="yes"/>
      <point x="209" y="133"/>
      <point x="239" y="144"/>
      <point x="239" y="213" type="curve"/>
    </contour>
  </outline>
</glyph>
<glyph name="dvBH_R_YA" format="1">
  <advance width="1041"/>
  <outline>
    <contour>
      <point x="297" y="619" type="line"/>
      <point x="624" y="619" type="line"/>
      <point x="624" y="523" type="line"/>
      <point x="336" y="523" type="line"/>
    </contour>
    <contour>
      <point x="536" y="138" type="line"/>
      <point x="515" y="82"/>
      <point x="424" y="-10"/>
      <point x="331" y="-64" type="curve"/>
      <point x="247" y="2" type="line"/>
      <point x="350" y="44"/>
      <point x="446" y="111"/>
      <point x="508" y="184" type="curve"/>
    </contour>
    <component base="dvYA" xOffset="362"/>
    <component base="dvBH" xOffset="-49"/>
  </outline>
</glyph>
<glyph name="dvB_DA" format="1">
  <advance width="925"/>
  <outline>
    <component base="dvDA" xOffset="331"/>
    <component base="dvB" xOffset="-4"/>
    <contour>
      <point x="558" y="-231" type="move" name="blwm.virama"/>
    </contour>
    <contour>
      <point x="763" y="662" type="move" name="abvm.bindu"/>
    </contour>
    <contour>
      <point x="778" y="-160" type="move" name="blwm.u"/>
    </contour>
    <contour>
      <point x="762" y="672" type="move" name="abvm.e"/>
    </contour>
  </outline>
</glyph>
<glyph name="dvB_DA_mU" format="1">
  <advance width="945"/>
  <outline>
    <contour>
      <point x="760" y="619" type="move" name="abvm.bindu"/>
    </contour>
    <contour>
      <point x="740" y="618" type="move" name="abvm.e"/>
    </contour>
    <component base="dvB"/>
    <component base="dvDA" xOffset="340"/>
    <component base="dvmU" xOffset="834"/>
  </outline>
</glyph>
<glyph name="dvB_DA_mUU" format="1">
  <advance width="945"/>
  <outline>
    <component base="dvB"/>
    <component base="dvDA" xOffset="340"/>
    <component base="dvmUU" xOffset="794"/>
    <contour>
      <point x="769" y="619" type="move" name="abvm.bindu"/>
    </contour>
    <contour>
      <point x="754" y="619" type="move" name="abvm.e"/>
    </contour>
  </outline>
</glyph>
<glyph name="dvB_DHA" format="1">
  <advance width="974"/>
  <outline>
    <contour>
      <point x="457" y="323" type="line"/>
      <point x="282" y="444"/>
      <point x="98" y="258"/>
      <point x="152" y="201" type="curve" smooth="yes"/>
      <point x="176" y="175"/>
      <point x="300" y="145"/>
      <point x="406" y="264" type="curve" smooth="yes"/>
      <point x="469" y="332"/>
      <point x="499" y="278"/>
      <point x="452" y="209" type="curve" smooth="yes"/>
      <point x="418" y="160"/>
      <point x="346" y="72"/>
      <point x="273" y="71" type="curve"/>
      <point x="167" y="71"/>
      <point x="92" y="191"/>
      <point x="55" y="263" type="curve" smooth="yes"/>
      <point x="10" y="348"/>
      <point x="220" y="482"/>
      <point x="288" y="460" type="curve" smooth="yes"/>
      <point x="322" y="449"/>
      <point x="446" y="383"/>
      <point x="471" y="338" type="curve"/>
    </contour>
    <contour>
      <point x="168" y="340" type="line"/>
      <point x="192" y="368" type="line"/>
      <point x="390" y="176" type="line"/>
      <point x="366" y="149" type="line"/>
    </contour>
    <contour>
      <point x="-7" y="619" type="line"/>
      <point x="485" y="619" type="line"/>
      <point x="455" y="523" type="line"/>
      <point x="-7" y="523" type="line"/>
    </contour>
    <component base="dvDHA" xOffset="295"/>
  </outline>
</glyph>
<glyph name="dvB_JA" format="1">
  <advance width="1150"/>
  <outline>
    <contour>
      <point x="418" y="314" type="line"/>
      <point x="349" y="374"/>
      <point x="275" y="367"/>
      <point x="220" y="336" type="curve"/>
      <point x="340" y="221" type="line"/>
      <point x="375" y="244"/>
      <point x="410" y="280"/>
      <point x="442" y="333" type="curve"/>
      <point x="469" y="242" type="line"/>
      <point x="469" y="242"/>
      <point x="371" y="72"/>
      <point x="269" y="71" type="curve"/>
      <point x="163" y="71"/>
      <point x="88" y="191"/>
      <point x="51" y="263" type="curve" smooth="yes"/>
      <point x="6" y="348"/>
      <point x="216" y="482"/>
      <point x="284" y="460" type="curve" smooth="yes"/>
      <point x="318" y="449"/>
      <point x="395" y="409"/>
      <point x="420" y="364" type="curve"/>
    </contour>
    <contour>
      <point x="-11" y="619" type="line"/>
      <point x="591" y="619" type="line"/>
      <point x="591" y="523" type="line"/>
      <point x="-11" y="523" type="line"/>
    </contour>
    <contour>
      <point x="148" y="201" type="curve" smooth="yes"/>
      <point x="165" y="182"/>
      <point x="231" y="166"/>
      <point x="307" y="202" type="curve"/>
      <point x="189" y="315" type="line"/>
      <point x="145" y="277"/>
      <point x="124" y="226"/>
    </contour>
    <component base="dvJA" xOffset="347"/>
  </outline>
</glyph>
<glyph name="dvB_LA" format="1">
  <advance width="1026"/>
  <outline>
    <contour>
      <point x="414" y="314" type="line"/>
      <point x="345" y="374"/>
      <point x="271" y="367"/>
      <point x="216" y="336" type="curve"/>
      <point x="338" y="218" type="line"/>
      <point x="362" y="239"/>
      <point x="386" y="267"/>
      <point x="410" y="306" type="curve"/>
      <point x="435" y="214" type="line"/>
      <point x="435" y="214"/>
      <point x="367" y="72"/>
      <point x="265" y="71" type="curve"/>
      <point x="159" y="71"/>
      <point x="84" y="191"/>
      <point x="47" y="263" type="curve" smooth="yes"/>
      <point x="2" y="348"/>
      <point x="221" y="500"/>
      <point x="280" y="460" type="curve" smooth="yes"/>
      <point x="314" y="436"/>
      <point x="402" y="378"/>
      <point x="438" y="355" type="curve"/>
    </contour>
    <contour>
      <point x="-15" y="619" type="line"/>
      <point x="587" y="619" type="line"/>
      <point x="587" y="523" type="line"/>
      <point x="-15" y="523" type="line"/>
    </contour>
    <contour>
      <point x="144" y="201" type="curve" smooth="yes"/>
      <point x="163" y="180"/>
      <point x="231" y="148"/>
      <point x="309" y="196" type="curve"/>
      <point x="185" y="315" type="line"/>
      <point x="141" y="277"/>
      <point x="120" y="226"/>
    </contour>
    <component base="dvLA" xOffset="366"/>
  </outline>
</glyph>
<glyph name="dvB_L_YA" format="1">
  <advance width="1530"/>
  <outline>
    <contour>
      <point x="918" y="237" type="line"/>
      <point x="910" y="246"/>
      <point x="861" y="303"/>
      <point x="830" y="293" type="curve" smooth="yes"/>
      <point x="795" y="282"/>
      <point x="749" y="200"/>
      <point x="712" y="135" type="curve"/>
      <point x="635" y="200" type="line"/>
      <point x="642" y="222"/>
      <point x="658" y="250"/>
      <point x="681" y="279" type="curve"/>
      <point x="507" y="400"/>
      <point x="440" y="219"/>
      <point x="532" y="105" type="curve" smooth="yes"/>
      <point x="560" y="69"/>
      <point x="596" y="24"/>
      <point x="646" y="-23" type="curve"/>
      <point x="619" y="-57" type="line"/>
      <point x="548" y="5"/>
      <point x="459" y="104"/>
      <point x="411" y="178" type="curve"/>
      <point x="384" y="136"/>
      <point x="331" y="71"/>
      <point x="262" y="71" type="curve" smooth="yes"/>
      <point x="156" y="71"/>
      <point x="81" y="191"/>
      <point x="44" y="263" type="curve" smooth="yes"/>
      <point x="-1" y="348"/>
      <point x="215" y="495"/>
      <point x="277" y="460" type="curve" smooth="yes"/>
      <point x="314" y="439"/>
      <point x="401" y="384"/>
      <point x="438" y="355" type="curve"/>
      <point x="483" y="395"/>
      <point x="540" y="424"/>
      <point x="570" y="414" type="curve" smooth="yes"/>
      <point x="607" y="402"/>
      <point x="667" y="344"/>
      <point x="704" y="305" type="curve"/>
      <point x="737" y="341"/>
      <point x="779" y="375"/>
      <point x="822" y="394" type="curve" smooth="yes"/>
      <point x="843" y="403"/>
      <point x="949" y="268"/>
      <point x="955" y="255" type="curve"/>
    </contour>
    <contour>
      <point x="-18" y="619" type="line"/>
      <point x="898" y="619" type="line"/>
      <point x="898" y="523" type="line"/>
      <point x="-18" y="523" type="line"/>
    </contour>
    <contour>
      <point x="404" y="319" type="curve"/>
      <point x="337" y="373"/>
      <point x="266" y="366"/>
      <point x="213" y="336" type="curve"/>
      <point x="335" y="218" type="line"/>
      <point x="349" y="230"/>
      <point x="363" y="244"/>
      <point x="377" y="262" type="curve"/>
      <point x="378" y="279"/>
      <point x="388" y="300"/>
    </contour>
    <contour>
      <point x="141" y="201" type="curve" smooth="yes"/>
      <point x="160" y="180"/>
      <point x="228" y="148"/>
      <point x="306" y="196" type="curve"/>
      <point x="182" y="315" type="line"/>
      <point x="138" y="277"/>
      <point x="117" y="226"/>
    </contour>
    <component base="dvYA" xOffset="852"/>
  </outline>
</glyph>
<glyph name="dvB_TA" format="1">
  <advance width="982"/>
  <outline>
    <contour>
      <point x="477" y="242" type="line"/>
      <point x="477" y="242"/>
      <point x="379" y="71"/>
      <point x="277" y="71" type="curve" smooth="yes"/>
      <point x="171" y="71"/>
      <point x="96" y="191"/>
      <point x="59" y="263" type="curve" smooth="yes"/>
      <point x="14" y="348"/>
      <point x="224" y="482"/>
      <point x="292" y="460" type="curve" smooth="yes"/>
      <point x="326" y="449"/>
      <point x="452" y="370"/>
      <point x="477" y="325" type="curve"/>
      <point x="457" y="307" type="line"/>
    </contour>
    <contour>
      <point x="-3" y="619" type="line"/>
      <point x="599" y="619" type="line"/>
      <point x="599" y="523" type="line"/>
      <point x="-3" y="523" type="line"/>
    </contour>
    <contour>
      <point x="224" y="340" type="curve"/>
      <point x="348" y="221" type="line"/>
      <point x="376" y="240"/>
      <point x="405" y="267"/>
      <point x="432" y="306" type="curve"/>
      <point x="351" y="371"/>
      <point x="277" y="368"/>
    </contour>
    <contour>
      <point x="156" y="201" type="curve" smooth="yes"/>
      <point x="173" y="182"/>
      <point x="239" y="166"/>
      <point x="315" y="202" type="curve"/>
      <point x="193" y="319" type="line"/>
      <point x="150" y="281"/>
      <point x="132" y="226"/>
    </contour>
    <component base="dvTA" xOffset="372"/>
  </outline>
</glyph>
<glyph name="dvB_YA" format="1">
  <advance width="999"/>
  <outline>
    <contour>
      <point x="416" y="314" type="line"/>
      <point x="347" y="374"/>
      <point x="273" y="367"/>
      <point x="218" y="336" type="curve"/>
      <point x="340" y="218" type="line"/>
      <point x="364" y="239"/>
      <point x="388" y="267"/>
      <point x="412" y="306" type="curve"/>
      <point x="437" y="214" type="line"/>
      <point x="437" y="214"/>
      <point x="369" y="72"/>
      <point x="267" y="71" type="curve"/>
      <point x="161" y="71"/>
      <point x="86" y="191"/>
      <point x="49" y="263" type="curve" smooth="yes"/>
      <point x="4" y="348"/>
      <point x="223" y="500"/>
      <point x="282" y="460" type="curve" smooth="yes"/>
      <point x="316" y="436"/>
      <point x="404" y="378"/>
      <point x="440" y="355" type="curve"/>
    </contour>
    <contour>
      <point x="-13" y="619" type="line"/>
      <point x="589" y="619" type="line"/>
      <point x="589" y="523" type="line"/>
      <point x="-13" y="523" type="line"/>
    </contour>
    <contour>
      <point x="146" y="201" type="curve" smooth="yes"/>
      <point x="165" y="180"/>
      <point x="233" y="148"/>
      <point x="311" y="196" type="curve"/>
      <point x="187" y="315" type="line"/>
      <point x="143" y="277"/>
      <point x="122" y="226"/>
    </contour>
    <component base="dvYA" xOffset="328"/>
  </outline>
</glyph>
<glyph name="dvC" format="1">
  <advance width="530"/>
  <outline>
    <contour>
      <point x="408" y="319" type="line"/>
      <point x="97" y="212"/>
      <point x="344" y="9"/>
      <point x="580" y="363" type="curve"/>
      <point x="679" y="296" type="line"/>
      <point x="539" y="78"/>
      <point x="365" y="39"/>
      <point x="303" y="89" type="curve" smooth="yes"/>
      <point x="242" y="138"/>
      <point x="218" y="159"/>
      <point x="165" y="220" type="curve" smooth="yes"/>
      <point x="140" y="248"/>
      <point x="153" y="285"/>
      <point x="180" y="319" type="curve"/>
      <point x="88" y="319" type="line"/>
      <point x="-8" y="402" type="line"/>
      <point x="310" y="402" type="line"/>
    </contour>
    <contour>
      <point x="-70" y="619" type="line"/>
      <point x="657" y="619" type="line"/>
      <point x="657" y="523" type="line"/>
      <point x="-70" y="523" type="line"/>
    </contour>
  </outline>
</glyph>
<glyph name="dvCA" format="1">
  <advance width="756"/>
  <outline>
    <contour>
      <point x="408" y="319" type="line"/>
      <point x="99" y="212"/>
      <point x="329" y="27"/>
      <point x="564" y="340" type="curve"/>
      <point x="564" y="523" type="line"/>
      <point x="-70" y="523" type="line"/>
      <point x="-70" y="619" type="line"/>
      <point x="774" y="619" type="line"/>
      <point x="774" y="523" type="line"/>
      <point x="688" y="523" type="line"/>
      <point x="688" y="-56" type="line"/>
      <point x="564" y="0" type="line"/>
      <point x="564" y="163" type="line"/>
      <point x="463" y="62"/>
      <point x="351" y="50"/>
      <point x="303" y="89" type="curve" smooth="yes"/>
      <point x="242" y="138"/>
      <point x="218" y="159"/>
      <point x="165" y="220" type="curve" smooth="yes"/>
      <point x="140" y="248"/>
      <point x="153" y="285"/>
      <point x="180" y="319" type="curve"/>
      <point x="88" y="319" type="line"/>
      <point x="-8" y="402" type="line"/>
      <point x="310" y="402" type="line"/>
    </contour>
  </outline>
</glyph>
<glyph name="dvCH" format="1">
  <advance width="599"/>
  <outline>
    <contour>
      <point x="637" y="397" type="curve" smooth="yes"/>
      <point x="736" y="223"/>
      <point x="334" y="-125"/>
      <point x="202" y="7" type="curve" smooth="yes"/>
      <point x="143" y="66"/>
      <point x="106" y="112"/>
      <point x="56" y="177" type="curve" smooth="yes"/>
      <point x="32" y="208"/>
      <point x="75" y="258"/>
      <point x="130" y="297" type="curve"/>
      <point x="62" y="341"/>
      <point x="-39" y="437"/>
      <point x="94" y="523" type="curve"/>
      <point x="-28" y="523" type="line"/>
      <point x="-28" y="619" type="line"/>
      <point x="697" y="619" type="line"/>
      <point x="697" y="523" type="line"/>
      <point x="537" y="523" type="line"/>
      <point x="570" y="497"/>
      <point x="623" y="421"/>
    </contour>
    <contour>
      <point x="251" y="351" type="curve"/>
      <point x="322" y="279" type="line"/>
      <point x="227" y="241"/>
      <point x="123" y="173"/>
      <point x="175" y="114" type="curve" smooth="yes"/>
      <point x="237" y="44"/>
      <point x="356" y="102"/>
      <point x="447" y="189" type="curve"/>
      <point x="418" y="219"/>
      <point x="388" y="257"/>
      <point x="376" y="276" type="curve" smooth="yes"/>
      <point x="349" y="317"/>
      <point x="407" y="482"/>
      <point x="485" y="523" type="curve"/>
      <point x="272" y="523" type="line"/>
      <point x="154" y="474"/>
      <point x="86" y="406"/>
      <point x="172" y="322" type="curve"/>
      <point x="201" y="337"/>
      <point x="229" y="348"/>
    </contour>
    <contour>
      <point x="555" y="439" type="curve" smooth="yes"/>
      <point x="522" y="474"/>
      <point x="423" y="312"/>
      <point x="471" y="213" type="curve"/>
      <point x="548" y="296"/>
      <point x="597" y="394"/>
    </contour>
  </outline>
</glyph>
<glyph name="dvCHA" format="1">
  <advance width="778"/>
  <outline>
    <contour>
      <point x="341" y="0" type="move" name="blwm.virama"/>
    </contour>
    <contour>
      <point x="608" y="616" type="move" name="abvm.bindu"/>
    </contour>
    <contour>
      <point x="391" y="-10" type="move" name="blwm.u"/>
    </contour>
    <contour>
      <point x="590" y="620" type="move" name="abvm.e"/>
    </contour>
    <contour>
      <point x="708" y="397" type="curve" smooth="yes"/>
      <point x="807" y="223"/>
      <point x="425" y="-125"/>
      <point x="293" y="7" type="curve" smooth="yes"/>
      <point x="234" y="66"/>
      <point x="197" y="112"/>
      <point x="147" y="177" type="curve" smooth="yes"/>
      <point x="106" y="231"/>
      <point x="265" y="342"/>
      <point x="342" y="351" type="curve"/>
      <point x="404" y="286" type="line"/>
      <point x="309" y="248"/>
      <point x="208" y="169"/>
      <point x="260" y="110" type="curve" smooth="yes"/>
      <point x="383" y="-29"/>
      <point x="719" y="341"/>
      <point x="626" y="439" type="curve" smooth="yes"/>
      <point x="589" y="478"/>
      <point x="469" y="271"/>
      <point x="567" y="181" type="curve"/>
      <point x="549" y="160" type="line"/>
      <point x="514" y="191"/>
      <point x="463" y="250"/>
      <point x="447" y="276" type="curve" smooth="yes"/>
      <point x="416" y="323"/>
      <point x="496" y="532"/>
      <point x="591" y="532" type="curve" smooth="yes"/>
      <point x="616" y="532"/>
      <point x="691" y="426"/>
    </contour>
    <contour>
      <point x="260" y="560" type="curve"/>
      <point x="359" y="523" type="line"/>
      <point x="231" y="466"/>
      <point x="161" y="418"/>
      <point x="272" y="324" type="curve"/>
      <point x="253" y="304" type="line"/>
      <point x="180" y="344"/>
      <point x="17" y="467"/>
    </contour>
    <contour>
      <point x="560" y="186" type="line" smooth="yes"/>
      <point x="561" y="187"/>
      <point x="732" y="11"/>
      <point x="732" y="11" type="curve"/>
      <point x="700" y="-20" type="line"/>
      <point x="543" y="164" type="line"/>
    </contour>
    <contour>
      <point x="-8" y="619" type="line"/>
      <point x="787" y="619" type="line"/>
      <point x="787" y="523" type="line"/>
      <point x="-8" y="523" type="line"/>
    </contour>
  </outline>
</glyph>
<glyph name="dvCH_RA" format="1">
  <advance width="728"/>
  <outline>
    <component base="dvCHA"/>
    <component base="dvRashtrasign" xOffset="617"/>
    <contour>
      <point x="344" y="-200" type="move" name="blwm.virama"/>
    </contour>
    <contour>
      <point x="604" y="619" type="move" name="abvm.bindu"/>
    </contour>
    <contour>
      <point x="344" y="-190" type="move" name="blwm.u"/>
    </contour>
    <contour>
      <point x="591" y="621" type="move" name="abvm.e"/>
    </contour>
  </outline>
</glyph>
<glyph name="dvC_CA" format="1">
  <advance width="1203"/>
  <outline>
    <contour>
      <point x="428" y="321" type="line"/>
      <point x="191" y="232"/>
      <point x="435" y="10"/>
      <point x="597" y="282" type="curve"/>
      <point x="680" y="211" type="line"/>
      <point x="584" y="61"/>
      <point x="423" y="49"/>
      <point x="365" y="104" type="curve" smooth="yes"/>
      <point x="305" y="160"/>
      <point x="298" y="161"/>
      <point x="245" y="222" type="curve" smooth="yes"/>
      <point x="220" y="250"/>
      <point x="221" y="287"/>
      <point x="236" y="321" type="curve"/>
      <point x="138" y="321" type="line"/>
      <point x="42" y="404" type="line"/>
      <point x="330" y="404" type="line"/>
    </contour>
    <contour>
      <point x="-9" y="619" type="line"/>
      <point x="436" y="619" type="line"/>
      <point x="436" y="523" type="line"/>
      <point x="-9" y="523" type="line"/>
    </contour>
    <component base="dvCA" xOffset="437"/>
  </outline>
</glyph>
<glyph name="dvC_CHA" format="1">
  <advance width="1149"/>
  <outline>
    <contour>
      <point x="762" y="0" type="move" name="blwm.virama"/>
    </contour>
    <contour>
      <point x="990" y="662" type="move" name="abvm.bindu"/>
    </contour>
    <contour>
      <point x="812" y="-10" type="move" name="blwm.u"/>
    </contour>
    <contour>
      <point x="1037" y="672" type="move" name="abvm.e"/>
    </contour>
    <contour>
      <point x="475" y="319" type="line"/>
      <point x="359" y="322"/>
      <point x="274" y="229"/>
      <point x="338" y="169" type="curve" smooth="yes"/>
      <point x="396" y="114"/>
      <point x="580" y="229"/>
      <point x="626" y="347" type="curve"/>
      <point x="716" y="275" type="line"/>
      <point x="638" y="113"/>
      <point x="412" y="37"/>
      <point x="354" y="92" type="curve" smooth="yes"/>
      <point x="294" y="148"/>
      <point x="275" y="159"/>
      <point x="222" y="220" type="curve" smooth="yes"/>
      <point x="197" y="248"/>
      <point x="211" y="285"/>
      <point x="241" y="319" type="curve"/>
      <point x="155" y="319" type="line"/>
      <point x="59" y="402" type="line"/>
      <point x="377" y="402" type="line"/>
    </contour>
    <contour>
      <point x="-13" y="619" type="line"/>
      <point x="714" y="619" type="line"/>
      <point x="714" y="522" type="line"/>
      <point x="-13" y="522" type="line"/>
    </contour>
    <component base="dvCHA" xOffset="420"/>
  </outline>
</glyph>
<glyph name="dvC_NA" format="1">
  <advance width="788"/>
  <outline>
    <contour>
      <point x="623" y="140" type="line"/>
      <point x="377" y="46" type="line"/>
      <point x="476" y="-18"/>
      <point x="374" y="-160"/>
      <point x="326" y="-143" type="curve"/>
      <point x="268" y="-125"/>
      <point x="237" y="-112"/>
      <point x="194" y="-89" type="curve" smooth="yes"/>
      <point x="126" y="-53"/>
      <point x="147" y="31"/>
      <point x="196" y="75" type="curve" smooth="yes"/>
      <point x="206" y="83"/>
      <point x="163" y="64"/>
      <point x="588" y="229" type="curve"/>
    </contour>
    <component base="dvCA" xOffset="32"/>
  </outline>
</glyph>
<glyph name="dvC_RA" format="1">
  <advance width="756"/>
  <outline>
    <contour>
      <point x="591" y="141" type="line"/>
      <point x="560" y="91"/>
      <point x="513" y="4"/>
      <point x="411" y="-77" type="curve"/>
      <point x="327" y="-11" type="line"/>
      <point x="416" y="55"/>
      <point x="498" y="117"/>
      <point x="560" y="190" type="curve"/>
    </contour>
    <component base="dvCA"/>
  </outline>
</glyph>
<glyph name="dvC_YA" format="1">
  <advance width="1194"/>
  <outline>
    <contour>
      <point x="440" y="319" type="line"/>
      <point x="324" y="322"/>
      <point x="239" y="229"/>
      <point x="303" y="169" type="curve" smooth="yes"/>
      <point x="361" y="114"/>
      <point x="545" y="211"/>
      <point x="591" y="329" type="curve"/>
      <point x="659" y="251" type="line"/>
      <point x="581" y="89"/>
      <point x="377" y="37"/>
      <point x="319" y="92" type="curve" smooth="yes"/>
      <point x="259" y="148"/>
      <point x="240" y="159"/>
      <point x="187" y="220" type="curve" smooth="yes"/>
      <point x="162" y="248"/>
      <point x="176" y="285"/>
      <point x="206" y="319" type="curve"/>
      <point x="120" y="319" type="line"/>
      <point x="24" y="402" type="line"/>
      <point x="342" y="402" type="line"/>
    </contour>
    <contour>
      <point x="-48" y="619" type="line"/>
      <point x="679" y="619" type="line"/>
      <point x="679" y="522" type="line"/>
      <point x="-48" y="522" type="line"/>
    </contour>
    <component base="dvYA" xOffset="518"/>
  </outline>
</glyph>
<glyph name="dvDA" format="1">
  <advance width="605"/>
  <outline>
    <contour>
      <point x="580" y="-119" type="line"/>
      <point x="466" y="24" type="line"/>
      <point x="433" y="1"/>
      <point x="394" y="-15"/>
      <point x="343" y="-20" type="curve" smooth="yes"/>
      <point x="339" y="-20"/>
      <point x="335" y="-21"/>
      <point x="330" y="-21" type="curve" smooth="yes"/>
      <point x="287" y="-21"/>
      <point x="258" y="-2"/>
      <point x="228" y="23" type="curve" smooth="yes"/>
      <point x="164" y="75"/>
      <point x="102" y="125"/>
      <point x="60" y="187" type="curve" smooth="yes"/>
      <point x="49" y="203"/>
      <point x="44" y="225"/>
      <point x="44" y="249" type="curve" smooth="yes"/>
      <point x="44" y="335"/>
      <point x="105" y="421"/>
      <point x="165" y="427" type="curve"/>
      <point x="349" y="438" type="line"/>
      <point x="349" y="523" type="line"/>
      <point x="-8" y="523" type="line"/>
      <point x="-8" y="619" type="line"/>
      <point x="610" y="619" type="line"/>
      <point x="610" y="523" type="line"/>
      <point x="460" y="523" type="line"/>
      <point x="460" y="351" type="line"/>
      <point x="264" y="351" type="line" smooth="yes"/>
      <point x="199" y="351"/>
      <point x="164" y="299"/>
      <point x="164" y="224" type="curve" smooth="yes"/>
      <point x="164" y="154"/>
      <point x="207" y="85"/>
      <point x="286" y="79" type="curve" smooth="yes"/>
      <point x="291" y="79"/>
      <point x="296" y="78"/>
      <point x="301" y="78" type="curve" smooth="yes"/>
      <point x="340" y="78"/>
      <point x="370" y="92"/>
      <point x="396" y="113" type="curve"/>
      <point x="367" y="151"/>
      <point x="358" y="166"/>
      <point x="358" y="174" type="curve" smooth="yes"/>
      <point x="358" y="176"/>
      <point x="358" y="178"/>
      <point x="359" y="179" type="curve" smooth="yes"/>
      <point x="374" y="209"/>
      <point x="411" y="237"/>
      <point x="429" y="248" type="curve" smooth="yes"/>
      <point x="443" y="257"/>
      <point x="456" y="261"/>
      <point x="468" y="261" type="curve" smooth="yes"/>
      <point x="496" y="261"/>
      <point x="520" y="239"/>
      <point x="543" y="212" type="curve" smooth="yes"/>
      <point x="560" y="192"/>
      <point x="573" y="166"/>
      <point x="573" y="143" type="curve" smooth="yes"/>
      <point x="573" y="129"/>
      <point x="568" y="115"/>
      <point x="557" y="104" type="curve" smooth="yes"/>
      <point x="504" y="51" type="line"/>
      <point x="619" y="-92" type="line"/>
    </contour>
    <contour>
      <point x="276" y="-4" type="move" name="blwm.virama"/>
    </contour>
    <contour>
      <point x="442" y="619" type="move" name="abvm.bindu"/>
    </contour>
    <contour>
      <point x="296" y="-10" type="move" name="blwm.u"/>
    </contour>
    <contour>
      <point x="423" y="618" type="move" name="abvm.e"/>
    </contour>
  </outline>
</glyph>
<glyph name="dvDA_mU" format="1">
  <advance width="605"/>
  <outline>
    <component base="dvDA"/>
    <component base="dvmU" xOffset="494"/>
    <contour>
      <point x="428" y="619" type="move" name="abvm.bindu"/>
    </contour>
    <contour>
      <point x="407" y="619" type="move" name="abvm.e"/>
    </contour>
  </outline>
</glyph>
<glyph name="dvDA_mUU" format="1">
  <advance width="605"/>
  <outline>
    <component base="dvDA"/>
    <component base="dvmUU" xOffset="454"/>
    <contour>
      <point x="428" y="619" type="move" name="abvm.bindu"/>
    </contour>
    <contour>
      <point x="415" y="619" type="move" name="abvm.e"/>
    </contour>
  </outline>
</glyph>
<glyph name="dvDA_mvR" format="1">
  <advance width="605"/>
  <outline>
    <contour>
      <point x="319" y="63" type="curve"/>
      <point x="428" y="2" type="line"/>
      <point x="109" y="-123"/>
      <point x="240" y="-404"/>
      <point x="431" y="-240" type="curve"/>
      <point x="543" y="-305" type="line"/>
      <point x="457" y="-394"/>
      <point x="303" y="-369"/>
      <point x="270" y="-342" type="curve" smooth="yes"/>
      <point x="222" y="-303"/>
      <point x="177" y="-262"/>
      <point x="143" y="-213" type="curve" smooth="yes"/>
      <point x="92" y="-140"/>
      <point x="143" y="-22"/>
    </contour>
    <component base="dvDA"/>
  </outline>
</glyph>
<glyph name="dvDDA" format="1">
  <advance width="644"/>
  <outline>
    <contour>
      <point x="-10" y="619" type="line"/>
      <point x="649" y="619" type="line"/>
      <point x="649" y="523" type="line"/>
      <point x="463" y="523" type="line"/>
      <point x="463" y="359" type="line"/>
      <point x="242" y="359" type="line" smooth="yes"/>
      <point x="217" y="359"/>
      <point x="196" y="326"/>
      <point x="196" y="290" type="curve" smooth="yes"/>
      <point x="196" y="265"/>
      <point x="206" y="244"/>
      <point x="233" y="244" type="curve" smooth="yes"/>
      <point x="238" y="244"/>
      <point x="244" y="244"/>
      <point x="250" y="246" type="curve" smooth="yes"/>
      <point x="291" y="257"/>
      <point x="423" y="301"/>
      <point x="460" y="301" type="curve" smooth="yes"/>
      <point x="464" y="301"/>
      <point x="467" y="300"/>
      <point x="468" y="299" type="curve" smooth="yes"/>
      <point x="516" y="259"/>
      <point x="561" y="200"/>
      <point x="590" y="155" type="curve" smooth="yes"/>
      <point x="595" y="148"/>
      <point x="597" y="139"/>
      <point x="597" y="128" type="curve" smooth="yes"/>
      <point x="597" y="67"/>
      <point x="524" y="-40"/>
      <point x="353" y="-40" type="curve" smooth="yes"/>
      <point x="178" y="-40"/>
      <point x="48" y="155"/>
      <point x="27" y="188" type="curve"/>
      <point x="47" y="207" type="line"/>
      <point x="74" y="175"/>
      <point x="188" y="47"/>
      <point x="316" y="47" type="curve" smooth="yes"/>
      <point x="422" y="47"/>
      <point x="514" y="113"/>
      <point x="514" y="166" type="curve" smooth="yes"/>
      <point x="514" y="177"/>
      <point x="509" y="188"/>
      <point x="500" y="197" type="curve" smooth="yes"/>
      <point x="493" y="204"/>
      <point x="483" y="207"/>
      <point x="472" y="207" type="curve" smooth="yes"/>
      <point x="418" y="207"/>
      <point x="324" y="138"/>
      <point x="268" y="138" type="curve" smooth="yes"/>
      <point x="257" y="138"/>
      <point x="248" y="140"/>
      <point x="241" y="146" type="curve" smooth="yes"/>
      <point x="192" y="186"/>
      <point x="134" y="233"/>
      <point x="96" y="273" type="curve" smooth="yes"/>
      <point x="86" y="284"/>
      <point x="82" y="298"/>
      <point x="82" y="315" type="curve" smooth="yes"/>
      <point x="82" y="369"/>
      <point x="127" y="433"/>
      <point x="168" y="436" type="curve"/>
      <point x="351" y="447" type="line"/>
      <point x="351" y="523" type="line"/>
      <point x="-10" y="523" type="line"/>
    </contour>
    <contour>
      <point x="279" y="-9" type="move" name="blwm.virama"/>
    </contour>
    <contour>
      <point x="413" y="619" type="move" name="abvm.bindu"/>
    </contour>
    <contour>
      <point x="326" y="-19" type="move" name="blwm.u"/>
    </contour>
    <contour>
      <point x="395" y="619" type="move" name="abvm.e"/>
    </contour>
  </outline>
</glyph>
<glyph name="dvDDHA" format="1">
  <advance width="617"/>
  <outline>
    <contour>
      <point x="258" y="0" type="move" name="blwm.virama"/>
    </contour>
    <contour>
      <point x="475" y="662" type="move" name="abvm.bindu"/>
    </contour>
    <contour>
      <point x="258" y="-10" type="move" name="blwm.u"/>
    </contour>
    <contour>
      <point x="460" y="619" type="move" name="abvm.e"/>
    </contour>
    <contour>
      <point x="-8" y="522" type="line"/>
      <point x="349" y="522" type="line"/>
      <point x="349" y="468" type="line"/>
      <point x="165" y="457" type="line"/>
      <point x="88" y="449"/>
      <point x="10" y="261"/>
      <point x="60" y="187" type="curve" smooth="yes"/>
      <point x="102" y="125"/>
      <point x="164" y="75"/>
      <point x="228" y="23" type="curve" smooth="yes"/>
      <point x="261" y="-4"/>
      <point x="293" y="-24"/>
      <point x="343" y="-20" type="curve"/>
      <point x="389" y="-15"/>
      <point x="425" y="-2"/>
      <point x="455" y="16" type="curve"/>
      <point x="455" y="16"/>
      <point x="455" y="17"/>
      <point x="456" y="17" type="curve" smooth="yes"/>
      <point x="514" y="56"/>
      <point x="583" y="127"/>
      <point x="572" y="169" type="curve" smooth="yes"/>
      <point x="566" y="190"/>
      <point x="440" y="319"/>
      <point x="415" y="319" type="curve" smooth="yes"/>
      <point x="390" y="319"/>
      <point x="255" y="232"/>
      <point x="285" y="162" type="curve" smooth="yes"/>
      <point x="296" y="137"/>
      <point x="320" y="107"/>
      <point x="340" y="85" type="curve"/>
      <point x="322" y="80"/>
      <point x="301" y="78"/>
      <point x="278" y="80" type="curve" smooth="yes"/>
      <point x="121" y="92"/>
      <point x="164" y="382"/>
      <point x="269" y="382" type="curve" smooth="yes"/>
      <point x="460" y="382" type="line"/>
      <point x="460" y="522" type="line"/>
      <point x="620" y="522" type="line"/>
      <point x="620" y="619" type="line"/>
      <point x="-8" y="619" type="line"/>
    </contour>
    <contour>
      <point x="400" y="118" type="curve" smooth="yes"/>
      <point x="395" y="114"/>
      <point x="391" y="110"/>
      <point x="386" y="107" type="curve" smooth="yes"/>
      <point x="378" y="101" type="line"/>
      <point x="372" y="98" type="line"/>
      <point x="337" y="198"/>
      <point x="441" y="252"/>
      <point x="467" y="228" type="curve" smooth="yes"/>
      <point x="477" y="218"/>
      <point x="465" y="190"/>
      <point x="442" y="161" type="curve" smooth="yes"/>
      <point x="429" y="145"/>
      <point x="415" y="131"/>
    </contour>
  </outline>
</glyph>
<glyph name="dvDDH_RA" format="1">
  <advance width="644"/>
  <outline>
    <component base="dvDDHA"/>
    <component base="dvRashtrasign" xOffset="549" yOffset="20"/>
    <contour>
      <point x="270" y="-185" type="move" name="blwm.virama"/>
    </contour>
    <contour>
      <point x="397" y="620" type="move" name="abvm.bindu"/>
    </contour>
    <contour>
      <point x="270" y="-175" type="move" name="blwm.u"/>
    </contour>
    <contour>
      <point x="414" y="619" type="move" name="abvm.e"/>
    </contour>
  </outline>
</glyph>
<glyph name="dvDDH_VA" format="1">
  <advance width="604"/>
  <outline>
    <contour>
      <point x="243" y="-395" type="move" name="blwm.virama"/>
    </contour>
    <contour>
      <point x="460" y="662" type="move" name="abvm.bindu"/>
    </contour>
    <contour>
      <point x="243" y="-380" type="move" name="blwm.u"/>
    </contour>
    <contour>
      <point x="487" y="672" type="move" name="abvm.e"/>
    </contour>
    <contour>
      <point x="349" y="467" type="line"/>
      <point x="349" y="523" type="line"/>
      <point x="-10" y="523" type="line"/>
      <point x="-10" y="619" type="line"/>
      <point x="649" y="619" type="line"/>
      <point x="649" y="523" type="line"/>
      <point x="460" y="523" type="line"/>
      <point x="460" y="390" type="line"/>
      <point x="301" y="389" type="line" smooth="yes"/>
      <point x="164" y="388"/>
      <point x="111" y="79"/>
      <point x="358" y="132" type="curve"/>
      <point x="338" y="154"/>
      <point x="317" y="186"/>
      <point x="306" y="211" type="curve" smooth="yes"/>
      <point x="276" y="281"/>
      <point x="392" y="344"/>
      <point x="417" y="344" type="curve" smooth="yes"/>
      <point x="442" y="344"/>
      <point x="580" y="210"/>
      <point x="569" y="193" type="curve" smooth="yes"/>
      <point x="545" y="156"/>
      <point x="521" y="126"/>
      <point x="496" y="101" type="curve"/>
      <point x="496" y="-264" type="line"/>
      <point x="386" y="-216" type="line"/>
      <point x="386" y="-164" type="line"/>
      <point x="263" y="-257"/>
      <point x="167" y="-152"/>
      <point x="96" y="-13" type="curve" smooth="yes"/>
      <point x="72" y="33"/>
      <point x="111" y="91"/>
      <point x="169" y="131" type="curve"/>
      <point x="143" y="160"/>
      <point x="118" y="194"/>
      <point x="92" y="235" type="curve" smooth="yes"/>
      <point x="44" y="311"/>
      <point x="117" y="448"/>
      <point x="194" y="456" type="curve"/>
    </contour>
    <contour>
      <point x="261" y="56" type="line"/>
      <point x="183" y="19"/>
      <point x="159" y="-40"/>
      <point x="193" y="-75" type="curve" smooth="yes"/>
      <point x="215" y="-99"/>
      <point x="295" y="-133"/>
      <point x="386" y="-42" type="curve"/>
      <point x="386" y="36" type="line"/>
      <point x="345" y="27"/>
      <point x="303" y="33"/>
      <point x="260" y="57" type="curve" smooth="yes"/>
    </contour>
    <contour>
      <point x="389" y="145" type="curve"/>
      <point x="439" y="183"/>
      <point x="498" y="241"/>
      <point x="476" y="263" type="curve" smooth="yes"/>
      <point x="453" y="286"/>
      <point x="365" y="221"/>
    </contour>
  </outline>
</glyph>
<glyph name="dvDD_RA" format="1">
  <advance width="542"/>
  <outline>
    <component base="dvDDA" xOffset="-14"/>
    <component base="dvRashtrasign" xOffset="549" yOffset="20"/>
    <contour>
      <point x="267" y="-185" type="move" name="blwm.virama"/>
    </contour>
    <contour>
      <point x="411" y="619" type="move" name="abvm.bindu"/>
    </contour>
    <contour>
      <point x="267" y="-175" type="move" name="blwm.u"/>
    </contour>
    <contour>
      <point x="395" y="619" type="move" name="abvm.e"/>
    </contour>
  </outline>
</glyph>
<glyph name="dvDD_YA" format="1">
  <advance width="1203"/>
  <outline>
    <contour>
      <point x="1049" y="200" type="line"/>
      <point x="1020" y="161"/>
      <point x="947" y="71"/>
      <point x="862" y="71" type="curve" smooth="yes"/>
      <point x="740" y="71"/>
      <point x="540" y="273"/>
      <point x="564" y="284" type="curve" smooth="yes"/>
      <point x="615" y="309"/>
      <point x="739" y="379"/>
      <point x="701" y="393" type="curve" smooth="yes"/>
      <point x="693" y="396"/>
      <point x="531" y="389"/>
      <point x="424" y="389" type="curve"/>
      <point x="399" y="466" type="line"/>
      <point x="588" y="471"/>
      <point x="798" y="487"/>
      <point x="830" y="425" type="curve" smooth="yes"/>
      <point x="857" y="373"/>
      <point x="736" y="262"/>
      <point x="681" y="235" type="curve"/>
      <point x="811" y="100"/>
      <point x="968" y="218"/>
      <point x="1030" y="354" type="curve"/>
    </contour>
    <contour>
      <point x="533" y="619" type="line"/>
      <point x="1223" y="619" type="line"/>
      <point x="1223" y="523" type="line"/>
      <point x="533" y="523" type="line"/>
    </contour>
    <contour>
      <point x="1023" y="538" type="line"/>
      <point x="1147" y="538" type="line"/>
      <point x="1147" y="-55" type="line"/>
      <point x="1023" y="1" type="line"/>
    </contour>
    <component base="dvDDA" xOffset="-14"/>
  </outline>
</glyph>
<glyph name="dvDDxA" format="1">
  <advance width="600"/>
  <outline>
    <component base="dvDDA" xOffset="-14"/>
    <component base="dvNukta" xOffset="478" yOffset="62"/>
    <contour>
      <point x="346" y="-20" type="move" name="blwm.virama"/>
    </contour>
    <contour>
      <point x="408" y="618" type="move" name="abvm.bindu"/>
    </contour>
    <contour>
      <point x="332" y="-20" type="move" name="blwm.u"/>
    </contour>
    <contour>
      <point x="394" y="618" type="move" name="abvm.e"/>
    </contour>
  </outline>
</glyph>
<glyph name="dvDHA" format="1">
  <advance width="692"/>
  <outline>
    <contour>
      <point x="375" y="619" type="line"/>
      <point x="697" y="619" type="line"/>
      <point x="697" y="523" type="line"/>
      <point x="613" y="523" type="line"/>
      <point x="613" y="-54" type="line"/>
      <point x="489" y="2" type="line"/>
      <point x="489" y="142" type="line"/>
      <point x="435" y="68"/>
      <point x="350" y="34"/>
      <point x="290" y="34" type="curve" smooth="yes"/>
      <point x="253" y="34"/>
      <point x="230" y="50"/>
      <point x="216" y="64" type="curve" smooth="yes"/>
      <point x="156" y="120"/>
      <point x="137" y="140"/>
      <point x="83" y="201" type="curve" smooth="yes"/>
      <point x="77" y="208"/>
      <point x="74" y="216"/>
      <point x="74" y="224" type="curve" smooth="yes"/>
      <point x="74" y="252"/>
      <point x="103" y="287"/>
      <point x="148" y="313" type="curve"/>
      <point x="122" y="339"/>
      <point x="101" y="360"/>
      <point x="64" y="402" type="curve" smooth="yes"/>
      <point x="40" y="429"/>
      <point x="19" y="459"/>
      <point x="19" y="476" type="curve" smooth="yes"/>
      <point x="19" y="547"/>
      <point x="116" y="627"/>
      <point x="203" y="627" type="curve" smooth="yes"/>
      <point x="234" y="627"/>
      <point x="285" y="585"/>
      <point x="312" y="559" type="curve" smooth="yes"/>
      <point x="331" y="541"/>
      <point x="352" y="518"/>
      <point x="352" y="497" type="curve" smooth="yes"/>
      <point x="352" y="442"/>
      <point x="247" y="382"/>
      <point x="164" y="382" type="curve" smooth="yes"/>
      <point x="157" y="382"/>
      <point x="149" y="383"/>
      <point x="142" y="384" type="curve"/>
      <point x="158" y="364"/>
      <point x="177" y="349"/>
      <point x="195" y="335" type="curve"/>
      <point x="239" y="351"/>
      <point x="276" y="360"/>
      <point x="306" y="360" type="curve" smooth="yes"/>
      <point x="307" y="360"/>
      <point x="309" y="360"/>
      <point x="311" y="360" type="curve"/>
      <point x="385" y="287" type="line"/>
      <point x="272" y="275"/>
      <point x="182" y="217"/>
      <point x="182" y="183" type="curve" smooth="yes"/>
      <point x="182" y="172"/>
      <point x="188" y="161"/>
      <point x="200" y="150" type="curve" smooth="yes"/>
      <point x="211" y="140"/>
      <point x="227" y="135"/>
      <point x="246" y="135" type="curve" smooth="yes"/>
      <point x="326" y="135"/>
      <point x="461" y="220"/>
      <point x="489" y="325" type="curve"/>
      <point x="489" y="523" type="line"/>
      <point x="414" y="523" type="line"/>
    </contour>
    <contour>
      <point x="260" y="544"/>
      <point x="251" y="546"/>
      <point x="241" y="546" type="curve" smooth="yes"/>
      <point x="196" y="546"/>
      <point x="107" y="501"/>
      <point x="107" y="449" type="curve"/>
      <point x="109" y="449"/>
      <point x="110" y="449"/>
      <point x="112" y="449" type="curve" smooth="yes"/>
      <point x="184" y="449"/>
      <point x="269" y="506"/>
      <point x="269" y="532" type="curve" smooth="yes"/>
      <point x="269" y="535"/>
      <point x="268" y="537"/>
      <point x="266" y="539" type="curve" smooth="yes"/>
    </contour>
  </outline>
</glyph>
<glyph name="dvDH_NA" format="1">
  <advance width="692"/>
  <outline>
    <contour>
      <point x="585" y="65" type="line"/>
      <point x="477" y="33"/>
      <point x="444" y="13"/>
      <point x="384" y="-14" type="curve"/>
      <point x="382" y="-14"/>
      <point x="381" y="-15"/>
      <point x="379" y="-16" type="curve"/>
      <point x="533" y="-94"/>
      <point x="389" y="-229"/>
      <point x="334" y="-206" type="curve"/>
      <point x="278" y="-184"/>
      <point x="278" y="-183"/>
      <point x="224" y="-158" type="curve" smooth="yes"/>
      <point x="149" y="-123"/>
      <point x="188" y="-1"/>
      <point x="231" y="23" type="curve" smooth="yes"/>
      <point x="291" y="57"/>
      <point x="382" y="88"/>
      <point x="531" y="118" type="curve"/>
    </contour>
    <component base="dvDHA"/>
  </outline>
</glyph>
<glyph name="dvDH_R" format="1">
  <advance width="444"/>
  <outline>
    <contour>
      <point x="574" y="203" type="line"/>
      <point x="543" y="153"/>
      <point x="393" y="34"/>
      <point x="298" y="-56" type="curve"/>
      <point x="214" y="10" type="line"/>
      <point x="303" y="76"/>
      <point x="481" y="179"/>
      <point x="543" y="252" type="curve"/>
    </contour>
    <contour>
      <point x="93" y="449" type="line"/>
      <point x="185" y="423"/>
      <point x="279" y="517"/>
      <point x="256" y="537" type="curve" smooth="yes"/>
      <point x="213" y="573"/>
      <point x="10" y="471"/>
      <point x="214" y="331" type="curve"/>
      <point x="181" y="309" type="line"/>
      <point x="145" y="332"/>
      <point x="93" y="377"/>
      <point x="63" y="411" type="curve" smooth="yes"/>
      <point x="-37" y="525"/>
      <point x="177" y="644"/>
      <point x="214" y="625" type="curve" smooth="yes"/>
      <point x="269" y="597"/>
      <point x="306" y="565"/>
      <point x="333" y="532" type="curve" smooth="yes"/>
      <point x="385" y="469"/>
      <point x="259" y="361"/>
      <point x="152" y="377" type="curve"/>
    </contour>
    <contour>
      <point x="375" y="619" type="line"/>
      <point x="697" y="619" type="line"/>
      <point x="697" y="523" type="line"/>
      <point x="414" y="523" type="line"/>
    </contour>
    <contour>
      <point x="399" y="287" type="line"/>
      <point x="291" y="268"/>
      <point x="180" y="230"/>
      <point x="243" y="170" type="curve" smooth="yes"/>
      <point x="301" y="115"/>
      <point x="463" y="187"/>
      <point x="510" y="305" type="curve"/>
      <point x="578" y="209" type="line"/>
      <point x="484" y="67"/>
      <point x="290" y="56"/>
      <point x="240" y="97" type="curve" smooth="yes"/>
      <point x="196" y="133"/>
      <point x="172" y="159"/>
      <point x="130" y="209" type="curve" smooth="yes"/>
      <point x="75" y="274"/>
      <point x="252" y="370"/>
      <point x="325" y="364" type="curve"/>
    </contour>
  </outline>
</glyph>
<glyph name="dvDH_RA" format="1">
  <advance width="692"/>
  <outline>
    <contour>
      <point x="539" y="154" type="line"/>
      <point x="518" y="98"/>
      <point x="432" y="2"/>
      <point x="359" y="-64" type="curve"/>
      <point x="275" y="2" type="line"/>
      <point x="364" y="68"/>
      <point x="446" y="130"/>
      <point x="508" y="203" type="curve"/>
    </contour>
    <component base="dvDHA"/>
  </outline>
</glyph>
<glyph name="dvDH_YA" format="1">
  <advance width="1058"/>
  <outline>
    <contour>
      <point x="380" y="313" type="line"/>
      <point x="272" y="294"/>
      <point x="139" y="230"/>
      <point x="203" y="170" type="curve" smooth="yes"/>
      <point x="242" y="132"/>
      <point x="366" y="175"/>
      <point x="443" y="244" type="curve"/>
      <point x="427" y="263"/>
      <point x="416" y="278"/>
      <point x="414" y="284" type="curve" smooth="yes"/>
      <point x="411" y="295"/>
      <point x="477" y="338"/>
      <point x="511" y="370" type="curve" smooth="yes"/>
      <point x="590" y="442"/>
      <point x="594" y="480"/>
      <point x="554" y="523" type="curve"/>
      <point x="377" y="523" type="line"/>
      <point x="338" y="619" type="line"/>
      <point x="1073" y="619" type="line"/>
      <point x="1073" y="523" type="line"/>
      <point x="997" y="523" type="line"/>
      <point x="997" y="-55" type="line"/>
      <point x="873" y="1" type="line"/>
      <point x="873" y="167" type="line"/>
      <point x="836" y="124"/>
      <point x="778" y="71"/>
      <point x="712" y="71" type="curve" smooth="yes"/>
      <point x="646" y="71"/>
      <point x="568" y="124"/>
      <point x="508" y="178" type="curve"/>
      <point x="415" y="82"/>
      <point x="265" y="48"/>
      <point x="219" y="93" type="curve"/>
      <point x="159" y="149"/>
      <point x="140" y="160"/>
      <point x="86" y="221" type="curve" smooth="yes"/>
      <point x="58" y="253"/>
      <point x="99" y="296"/>
      <point x="155" y="329" type="curve"/>
      <point x="129" y="349"/>
      <point x="108" y="371"/>
      <point x="45" y="433" type="curve"/>
      <point x="-42" y="516"/>
      <point x="181" y="646"/>
      <point x="217" y="625" type="curve"/>
      <point x="285" y="583"/>
      <point x="299" y="566"/>
      <point x="326" y="542" type="curve" smooth="yes"/>
      <point x="396" y="478"/>
      <point x="253" y="371"/>
      <point x="146" y="386" type="curve"/>
      <point x="156" y="373"/>
      <point x="169" y="359"/>
      <point x="187" y="345" type="curve"/>
      <point x="234" y="367"/>
      <point x="285" y="382"/>
      <point x="314" y="380" type="curve"/>
    </contour>
    <contour>
      <point x="685" y="426" type="curve" smooth="yes"/>
      <point x="690" y="364"/>
      <point x="617" y="309"/>
      <point x="529" y="231" type="curve"/>
      <point x="654" y="101"/>
      <point x="806" y="209"/>
      <point x="873" y="339" type="curve"/>
      <point x="873" y="523" type="line"/>
      <point x="620" y="523" type="line"/>
      <point x="657" y="492"/>
      <point x="682" y="455"/>
    </contour>
    <contour>
      <point x="269" y="539" type="curve" smooth="yes"/>
      <point x="239" y="564"/>
      <point x="123" y="520"/>
      <point x="124" y="444" type="curve"/>
      <point x="207" y="441"/>
      <point x="289" y="521"/>
    </contour>
  </outline>
</glyph>
<glyph name="dvD_BA" format="1">
  <advance width="605"/>
  <outline>
    <contour>
      <point x="201" y="-275" type="move" name="blwm.virama"/>
    </contour>
    <contour>
      <point x="382" y="620" type="move" name="abvm.bindu"/>
    </contour>
    <contour>
      <point x="201" y="-265" type="move" name="blwm.u"/>
    </contour>
    <contour>
      <point x="396" y="619" type="move" name="abvm.e"/>
    </contour>
    <contour>
      <point x="179" y="0" type="line"/>
      <point x="194" y="34" type="line"/>
      <point x="456" y="-51" type="line"/>
      <point x="442" y="-84" type="line"/>
    </contour>
    <component base="dvD_VA"/>
  </outline>
</glyph>
<glyph name="dvD_BHA" format="1">
  <advance width="721"/>
  <outline>
    <contour>
      <point x="616" y="-225" type="line"/>
      <point x="527" y="18" type="line"/>
      <point x="498" y="3"/>
      <point x="471" y="-1"/>
      <point x="438" y="-1" type="curve" smooth="yes"/>
      <point x="395" y="-1"/>
      <point x="366" y="18"/>
      <point x="336" y="43" type="curve" smooth="yes"/>
      <point x="272" y="95"/>
      <point x="222" y="125"/>
      <point x="180" y="187" type="curve" smooth="yes"/>
      <point x="169" y="203"/>
      <point x="164" y="225"/>
      <point x="164" y="249" type="curve" smooth="yes"/>
      <point x="164" y="335"/>
      <point x="225" y="421"/>
      <point x="285" y="427" type="curve"/>
      <point x="469" y="438" type="line"/>
      <point x="469" y="523" type="line"/>
      <point x="-9" y="523" type="line"/>
      <point x="-9" y="619" type="line"/>
      <point x="730" y="619" type="line"/>
      <point x="730" y="523" type="line"/>
      <point x="580" y="523" type="line"/>
      <point x="580" y="351" type="line"/>
      <point x="384" y="351" type="line" smooth="yes"/>
      <point x="319" y="351"/>
      <point x="284" y="299"/>
      <point x="284" y="224" type="curve" smooth="yes"/>
      <point x="284" y="142"/>
      <point x="376" y="98"/>
      <point x="409" y="98" type="curve" smooth="yes"/>
      <point x="448" y="98"/>
      <point x="465" y="106"/>
      <point x="489" y="117" type="curve"/>
      <point x="471" y="145"/>
      <point x="474" y="190"/>
      <point x="474" y="198" type="curve" smooth="yes"/>
      <point x="474" y="200"/>
      <point x="474" y="202"/>
      <point x="475" y="203" type="curve" smooth="yes"/>
      <point x="490" y="233"/>
      <point x="519" y="257"/>
      <point x="537" y="268" type="curve" smooth="yes"/>
      <point x="551" y="277"/>
      <point x="564" y="281"/>
      <point x="576" y="281" type="curve" smooth="yes"/>
      <point x="604" y="281"/>
      <point x="628" y="259"/>
      <point x="651" y="232" type="curve" smooth="yes"/>
      <point x="668" y="212"/>
      <point x="681" y="176"/>
      <point x="681" y="153" type="curve" smooth="yes"/>
      <point x="681" y="129"/>
      <point x="645" y="88"/>
      <point x="607" y="60" type="curve" smooth="yes"/>
      <point x="588" y="46" type="line"/>
      <point x="688" y="-239" type="line"/>
    </contour>
    <contour>
      <point x="190" y="-13"/>
      <point x="187" y="-7"/>
      <point x="183" y="-2" type="curve" smooth="yes"/>
      <point x="168" y="17"/>
      <point x="159" y="28"/>
      <point x="154" y="28" type="curve" smooth="yes"/>
      <point x="144" y="30"/>
      <point x="138" y="28"/>
      <point x="132" y="24" type="curve" smooth="yes"/>
      <point x="112" y="9"/>
      <point x="111" y="-25"/>
      <point x="125" y="-42" type="curve" smooth="yes"/>
      <point x="130" y="-49"/>
      <point x="134" y="-51"/>
      <point x="139" y="-52" type="curve" smooth="yes"/>
      <point x="146" y="-52"/>
      <point x="158" y="-47"/>
      <point x="170" y="-37" type="curve" smooth="yes"/>
      <point x="179" y="-30"/>
      <point x="187" y="-26"/>
      <point x="194" y="-18" type="curve"/>
    </contour>
    <contour>
      <point x="233" y="-71" type="line"/>
      <point x="230" y="-74"/>
      <point x="226" y="-76"/>
      <point x="224" y="-78" type="curve" smooth="yes"/>
      <point x="213" y="-86"/>
      <point x="205" y="-91"/>
      <point x="199" y="-92" type="curve" smooth="yes"/>
      <point x="165" y="-98"/>
      <point x="126" y="-95"/>
      <point x="87" y="-88" type="curve" smooth="yes"/>
      <point x="75" y="-85"/>
      <point x="62" y="-74"/>
      <point x="51" y="-59" type="curve" smooth="yes"/>
      <point x="29" y="-29"/>
      <point x="19" y="25"/>
      <point x="65" y="59" type="curve" smooth="yes"/>
      <point x="83" y="72"/>
      <point x="123" y="72"/>
      <point x="182" y="66" type="curve" smooth="yes"/>
      <point x="233" y="62"/>
      <point x="251" y="54"/>
      <point x="279" y="18" type="curve" smooth="yes"/>
      <point x="345" y="-68" type="line"/>
      <point x="524" y="42" type="line"/>
      <point x="573" y="-23" type="line"/>
      <point x="393" y="-133" type="line"/>
      <point x="406" y="-151" type="line" smooth="yes"/>
      <point x="430" y="-184"/>
      <point x="426" y="-240"/>
      <point x="393" y="-265" type="curve" smooth="yes"/>
      <point x="368" y="-284"/>
      <point x="328" y="-291"/>
      <point x="289" y="-285" type="curve" smooth="yes"/>
      <point x="254" y="-280"/>
      <point x="222" y="-270"/>
      <point x="206" y="-249" type="curve" smooth="yes"/>
      <point x="182" y="-217"/>
      <point x="197" y="-178"/>
      <point x="227" y="-155" type="curve" smooth="yes"/>
      <point x="274" y="-121" type="line"/>
    </contour>
    <contour>
      <point x="313" y="-176"/>
      <point x="302" y="-185"/>
      <point x="300" y="-187" type="curve" smooth="yes"/>
      <point x="282" y="-203"/>
      <point x="274" y="-222"/>
      <point x="284" y="-234" type="curve" smooth="yes"/>
      <point x="293" y="-247"/>
      <point x="309" y="-251"/>
      <point x="317" y="-246" type="curve" smooth="yes"/>
      <point x="335" y="-231"/>
      <point x="338" y="-208"/>
      <point x="315" y="-174" type="curve"/>
    </contour>
    <contour>
      <point x="559.0" y="-407.0" type="move" name="blwm.virama"/>
    </contour>
    <contour>
      <point x="767.0" y="662.0" type="move" name="abvm.bindu"/>
    </contour>
    <contour>
      <point x="559.0" y="-397.0" type="move" name="blwm.u"/>
    </contour>
    <contour>
      <point x="767.0" y="672.0" type="move" name="abvm.e"/>
    </contour>
  </outline>
</glyph>
<glyph name="dvD_B_RA" format="1">
  <advance width="605"/>
  <outline>
    <contour>
      <point x="315" y="-275" type="move" name="blwm.virama"/>
    </contour>
    <contour>
      <point x="411" y="619" type="move" name="abvm.bindu"/>
    </contour>
    <contour>
      <point x="315" y="-265" type="move" name="blwm.u"/>
    </contour>
    <contour>
      <point x="394" y="619" type="move" name="abvm.e"/>
    </contour>
    <contour>
      <point x="540" y="-20" type="line"/>
      <point x="515" y="-70"/>
      <point x="495" y="-127"/>
      <point x="457" y="-244" type="curve"/>
      <point x="373" y="-232" type="line"/>
      <point x="422" y="-141"/>
      <point x="464" y="-75"/>
      <point x="499" y="14" type="curve"/>
    </contour>
    <contour>
      <point x="196" y="-17" type="line"/>
      <point x="211" y="17" type="line"/>
      <point x="473" y="-68" type="line"/>
      <point x="459" y="-101" type="line"/>
    </contour>
    <component base="dvD_VA"/>
  </outline>
</glyph>
<glyph name="dvD_DA" format="1">
  <advance width="518"/>
  <outline>
    <contour>
      <point x="186" y="-231" type="move" name="blwm.virama"/>
    </contour>
    <contour>
      <point x="391" y="662" type="move" name="abvm.bindu"/>
    </contour>
    <contour>
      <point x="572" y="-84" type="move" name="blwm.u"/>
    </contour>
    <contour>
      <point x="390" y="672" type="move" name="abvm.e"/>
    </contour>
  </outline>
</glyph>
<glyph name="dvD_DHA" format="1">
  <advance width="721"/>
  <outline>
    <contour>
      <point x="455" y="-407" type="move" name="blwm.virama"/>
    </contour>
    <contour>
      <point x="522" y="619" type="move" name="abvm.bindu"/>
    </contour>
    <contour>
      <point x="455" y="-397" type="move" name="blwm.u"/>
    </contour>
    <contour>
      <point x="508" y="619" type="move" name="abvm.e"/>
    </contour>
    <contour>
      <point x="450" y="468" type="line"/>
      <point x="450" y="523" type="line"/>
      <point x="-13" y="523" type="line"/>
      <point x="-13" y="619" type="line"/>
      <point x="750" y="619" type="line"/>
      <point x="750" y="523" type="line"/>
      <point x="561" y="523" type="line"/>
      <point x="561" y="391" type="line"/>
      <point x="394" y="389" type="line" smooth="yes"/>
      <point x="289" y="388"/>
      <point x="217" y="136"/>
      <point x="399" y="123" type="curve" smooth="yes"/>
      <point x="437" y="120"/>
      <point x="469" y="130"/>
      <point x="494" y="147" type="curve"/>
      <point x="448" y="207"/>
      <point x="442" y="220"/>
      <point x="446" y="228" type="curve" smooth="yes"/>
      <point x="461" y="258"/>
      <point x="498" y="286"/>
      <point x="516" y="297" type="curve" smooth="yes"/>
      <point x="563" y="327"/>
      <point x="598" y="299"/>
      <point x="630" y="261" type="curve" smooth="yes"/>
      <point x="657" y="229"/>
      <point x="674" y="183"/>
      <point x="644" y="153" type="curve" smooth="yes"/>
      <point x="591" y="100" type="line"/>
      <point x="706" y="-43" type="line"/>
      <point x="667" y="-70" type="line"/>
      <point x="638" y="-33"/>
      <point x="612" y="-2"/>
      <point x="590" y="26" type="curve"/>
      <point x="541" y="-141"/>
      <point x="364" y="-263"/>
      <point x="298" y="-222" type="curve" smooth="yes"/>
      <point x="228" y="-179"/>
      <point x="207" y="-172"/>
      <point x="142" y="-124" type="curve" smooth="yes"/>
      <point x="108" y="-98"/>
      <point x="120" y="-55"/>
      <point x="150" y="-18" type="curve"/>
      <point x="122" y="-8"/>
      <point x="90" y="6"/>
      <point x="30" y="37" type="curve" smooth="yes"/>
      <point x="-77" y="91"/>
      <point x="86" y="284"/>
      <point x="127" y="276" type="curve" smooth="yes"/>
      <point x="150" y="271"/>
      <point x="167" y="266"/>
      <point x="182" y="262" type="curve"/>
      <point x="167" y="340"/>
      <point x="225" y="448"/>
      <point x="290" y="455" type="curve"/>
    </contour>
    <contour>
      <point x="352" y="-4" type="line"/>
      <point x="250" y="-45"/>
      <point x="192" y="-104"/>
      <point x="266" y="-150" type="curve" smooth="yes"/>
      <point x="321" y="-184"/>
      <point x="450" y="-77"/>
      <point x="493" y="39" type="curve"/>
      <point x="447" y="24"/>
      <point x="397" y="31"/>
      <point x="342" y="77" type="curve"/>
      <point x="316" y="97"/>
      <point x="295" y="115"/>
      <point x="276" y="132" type="curve"/>
      <point x="251" y="87"/>
      <point x="202" y="43"/>
      <point x="149" y="29" type="curve"/>
      <point x="158" y="24"/>
      <point x="169" y="19"/>
      <point x="181" y="14" type="curve"/>
      <point x="207" y="36"/>
      <point x="238" y="53"/>
      <point x="263" y="56" type="curve"/>
    </contour>
    <contour>
      <point x="211" y="203" type="curve"/>
      <point x="209" y="206"/>
      <point x="207" y="210"/>
      <point x="204" y="213" type="curve"/>
      <point x="166" y="225"/>
      <point x="68" y="145"/>
      <point x="101" y="75" type="curve"/>
      <point x="170" y="97"/>
      <point x="216" y="175"/>
    </contour>
  </outline>
</glyph>
<glyph name="dvD_GA" format="1">
  <advance width="608"/>
  <outline>
    <contour>
      <point x="253" y="-407" type="move" name="blwm.virama"/>
    </contour>
    <contour>
      <point x="450" y="662" type="move" name="abvm.bindu"/>
    </contour>
    <contour>
      <point x="253" y="-397" type="move" name="blwm.u"/>
    </contour>
    <contour>
      <point x="450" y="672" type="move" name="abvm.e"/>
    </contour>
    <contour>
      <point x="566" y="-70" type="line"/>
      <point x="490" y="25" type="line"/>
      <point x="490" y="-332" type="line"/>
      <point x="390" y="-286" type="line"/>
      <point x="390" y="38" type="line"/>
      <point x="356" y="28"/>
      <point x="321" y="29"/>
      <point x="283" y="49" type="curve"/>
      <point x="363" y="-126"/>
      <point x="262" y="-271"/>
      <point x="190" y="-270" type="curve" smooth="yes"/>
      <point x="148" y="-269"/>
      <point x="79" y="-117"/>
      <point x="139" y="-96" type="curve" smooth="yes"/>
      <point x="155" y="-91"/>
      <point x="207" y="-119"/>
      <point x="213" y="-128" type="curve"/>
      <point x="239" y="-83"/>
      <point x="241" y="42"/>
      <point x="188" y="121" type="curve"/>
      <point x="152" y="152"/>
      <point x="125" y="181"/>
      <point x="96" y="224" type="curve" smooth="yes"/>
      <point x="46" y="298"/>
      <point x="112" y="447"/>
      <point x="189" y="455" type="curve"/>
      <point x="349" y="468" type="line"/>
      <point x="349" y="523" type="line"/>
      <point x="-10" y="523" type="line"/>
      <point x="-10" y="619" type="line"/>
      <point x="649" y="619" type="line"/>
      <point x="649" y="523" type="line"/>
      <point x="460" y="523" type="line"/>
      <point x="460" y="391" type="line"/>
      <point x="293" y="389" type="line" smooth="yes"/>
      <point x="188" y="388"/>
      <point x="116" y="136"/>
      <point x="298" y="123" type="curve" smooth="yes"/>
      <point x="336" y="120"/>
      <point x="368" y="130"/>
      <point x="393" y="147" type="curve"/>
      <point x="347" y="207"/>
      <point x="341" y="220"/>
      <point x="345" y="228" type="curve" smooth="yes"/>
      <point x="360" y="258"/>
      <point x="397" y="286"/>
      <point x="415" y="297" type="curve" smooth="yes"/>
      <point x="462" y="327"/>
      <point x="497" y="299"/>
      <point x="529" y="261" type="curve" smooth="yes"/>
      <point x="556" y="229"/>
      <point x="573" y="183"/>
      <point x="543" y="153" type="curve" smooth="yes"/>
      <point x="490" y="100" type="line"/>
      <point x="605" y="-43" type="line"/>
    </contour>
  </outline>
</glyph>
<glyph name="dvD_GHA" format="1">
  <advance width="724"/>
  <outline>
    <contour>
      <point x="471" y="39" type="curve"/>
      <point x="568" y="26" type="line"/>
      <point x="519" y="-141"/>
      <point x="342" y="-263"/>
      <point x="276" y="-222" type="curve" smooth="yes"/>
      <point x="206" y="-179"/>
      <point x="185" y="-172"/>
      <point x="120" y="-124" type="curve" smooth="yes"/>
      <point x="80" y="-94"/>
      <point x="104" y="-40"/>
      <point x="145" y="1" type="curve"/>
      <point x="126" y="9"/>
      <point x="99" y="23"/>
      <point x="60" y="49" type="curve" smooth="yes"/>
      <point x="-8" y="95"/>
      <point x="31" y="163"/>
      <point x="170" y="232" type="curve"/>
      <point x="220" y="166" type="line"/>
      <point x="136" y="123"/>
      <point x="99" y="77"/>
      <point x="174" y="25" type="curve"/>
      <point x="196" y="42"/>
      <point x="220" y="53"/>
      <point x="241" y="56" type="curve"/>
      <point x="330" y="-4" type="line"/>
      <point x="228" y="-45"/>
      <point x="170" y="-104"/>
      <point x="244" y="-150" type="curve" smooth="yes"/>
      <point x="299" y="-184"/>
      <point x="428" y="-77"/>
    </contour>
    <contour>
      <point x="616" y="-225" type="line"/>
      <point x="527" y="18" type="line"/>
      <point x="498" y="3"/>
      <point x="471" y="-1"/>
      <point x="438" y="-1" type="curve" smooth="yes"/>
      <point x="395" y="-1"/>
      <point x="366" y="18"/>
      <point x="336" y="43" type="curve" smooth="yes"/>
      <point x="272" y="95"/>
      <point x="222" y="125"/>
      <point x="180" y="187" type="curve" smooth="yes"/>
      <point x="169" y="203"/>
      <point x="164" y="225"/>
      <point x="164" y="249" type="curve" smooth="yes"/>
      <point x="164" y="335"/>
      <point x="225" y="421"/>
      <point x="285" y="427" type="curve"/>
      <point x="469" y="438" type="line"/>
      <point x="469" y="523" type="line"/>
      <point x="-9" y="523" type="line"/>
      <point x="-9" y="619" type="line"/>
      <point x="730" y="619" type="line"/>
      <point x="730" y="523" type="line"/>
      <point x="580" y="523" type="line"/>
      <point x="580" y="351" type="line"/>
      <point x="384" y="351" type="line" smooth="yes"/>
      <point x="319" y="351"/>
      <point x="284" y="299"/>
      <point x="284" y="224" type="curve" smooth="yes"/>
      <point x="284" y="142"/>
      <point x="376" y="98"/>
      <point x="409" y="98" type="curve" smooth="yes"/>
      <point x="448" y="98"/>
      <point x="465" y="106"/>
      <point x="489" y="117" type="curve"/>
      <point x="471" y="145"/>
      <point x="474" y="190"/>
      <point x="474" y="198" type="curve" smooth="yes"/>
      <point x="474" y="200"/>
      <point x="474" y="202"/>
      <point x="475" y="203" type="curve" smooth="yes"/>
      <point x="490" y="233"/>
      <point x="519" y="257"/>
      <point x="537" y="268" type="curve" smooth="yes"/>
      <point x="551" y="277"/>
      <point x="564" y="281"/>
      <point x="576" y="281" type="curve" smooth="yes"/>
      <point x="604" y="281"/>
      <point x="628" y="259"/>
      <point x="651" y="232" type="curve" smooth="yes"/>
      <point x="668" y="212"/>
      <point x="681" y="176"/>
      <point x="681" y="153" type="curve" smooth="yes"/>
      <point x="681" y="129"/>
      <point x="645" y="88"/>
      <point x="607" y="60" type="curve" smooth="yes"/>
      <point x="588" y="46" type="line"/>
      <point x="688" y="-239" type="line"/>
    </contour>
    <contour>
      <point x="482.0" y="-407.0" type="move" name="blwm.virama"/>
    </contour>
    <contour>
      <point x="697.0" y="662.0" type="move" name="abvm.bindu"/>
    </contour>
    <contour>
      <point x="482.0" y="-397.0" type="move" name="blwm.u"/>
    </contour>
    <contour>
      <point x="697.0" y="672.0" type="move" name="abvm.e"/>
    </contour>
  </outline>
</glyph>
<glyph name="dvD_G_RA" format="1">
  <advance width="608"/>
  <outline>
    <contour>
      <point x="313" y="-407" type="move" name="blwm.virama"/>
    </contour>
    <contour>
      <point x="535" y="662" type="move" name="abvm.bindu"/>
    </contour>
    <contour>
      <point x="313" y="-397" type="move" name="blwm.u"/>
    </contour>
    <contour>
      <point x="535" y="672" type="move" name="abvm.e"/>
    </contour>
    <contour>
      <point x="349" y="468" type="line"/>
      <point x="349" y="523" type="line"/>
      <point x="-10" y="523" type="line"/>
      <point x="-10" y="619" type="line"/>
      <point x="649" y="619" type="line"/>
      <point x="649" y="523" type="line"/>
      <point x="460" y="523" type="line"/>
      <point x="460" y="391" type="line"/>
      <point x="293" y="389" type="line" smooth="yes"/>
      <point x="188" y="388"/>
      <point x="116" y="136"/>
      <point x="298" y="123" type="curve" smooth="yes"/>
      <point x="336" y="120"/>
      <point x="368" y="130"/>
      <point x="393" y="147" type="curve"/>
      <point x="347" y="207"/>
      <point x="341" y="220"/>
      <point x="345" y="228" type="curve" smooth="yes"/>
      <point x="360" y="258"/>
      <point x="397" y="286"/>
      <point x="415" y="297" type="curve" smooth="yes"/>
      <point x="462" y="327"/>
      <point x="497" y="299"/>
      <point x="529" y="261" type="curve" smooth="yes"/>
      <point x="556" y="229"/>
      <point x="573" y="183"/>
      <point x="543" y="153" type="curve" smooth="yes"/>
      <point x="490" y="100" type="line"/>
      <point x="605" y="-43" type="line"/>
      <point x="566" y="-70" type="line"/>
      <point x="490" y="25" type="line"/>
      <point x="490" y="-332" type="line"/>
      <point x="390" y="-286" type="line"/>
      <point x="390" y="-229" type="line"/>
      <point x="362" y="-259"/>
      <point x="328" y="-291"/>
      <point x="275" y="-322" type="curve"/>
      <point x="218" y="-267" type="line"/>
      <point x="300" y="-222"/>
      <point x="341" y="-203"/>
      <point x="390" y="-153" type="curve"/>
      <point x="390" y="38" type="line"/>
      <point x="353" y="26"/>
      <point x="313" y="30"/>
      <point x="269" y="56" type="curve"/>
      <point x="340" y="-118"/>
      <point x="218" y="-265"/>
      <point x="147" y="-264" type="curve" smooth="yes"/>
      <point x="105" y="-263"/>
      <point x="36" y="-111"/>
      <point x="96" y="-90" type="curve" smooth="yes"/>
      <point x="112" y="-85"/>
      <point x="164" y="-113"/>
      <point x="170" y="-122" type="curve"/>
      <point x="196" y="-77"/>
      <point x="225" y="55"/>
      <point x="172" y="135" type="curve"/>
      <point x="144" y="161"/>
      <point x="120" y="187"/>
      <point x="96" y="224" type="curve" smooth="yes"/>
      <point x="46" y="298"/>
      <point x="112" y="447"/>
      <point x="189" y="455" type="curve"/>
    </contour>
  </outline>
</glyph>
<glyph name="dvD_RA" format="1">
  <advance width="605"/>
  <outline>
    <component base="dvDA"/>
    <component base="dvRashtrasign" xOffset="558"/>
    <contour>
      <point x="284" y="-204" type="move" name="blwm.virama"/>
    </contour>
    <contour>
      <point x="423" y="620" type="move" name="abvm.bindu"/>
    </contour>
    <contour>
      <point x="284" y="-194" type="move" name="blwm.u"/>
    </contour>
    <contour>
      <point x="409" y="620" type="move" name="abvm.e"/>
    </contour>
  </outline>
</glyph>
<glyph name="dvD_VA" format="1">
  <advance width="627"/>
  <outline>
    <contour>
      <point x="552" y="-76" type="move" name="blwm.virama"/>
    </contour>
    <contour>
      <point x="407" y="619" type="move" name="abvm.bindu"/>
    </contour>
    <contour>
      <point x="539" y="-89" type="move" name="blwm.u"/>
    </contour>
    <contour>
      <point x="393" y="619" type="move" name="abvm.e"/>
    </contour>
    <contour>
      <point x="-30" y="619" type="line"/>
      <point x="636" y="619" type="line"/>
      <point x="636" y="523" type="line"/>
      <point x="-30" y="523" type="line"/>
    </contour>
    <contour>
      <point x="336" y="468" type="line"/>
      <point x="336" y="546" type="line"/>
      <point x="447" y="546" type="line"/>
      <point x="447" y="391" type="line"/>
      <point x="280" y="389" type="line" smooth="yes"/>
      <point x="175" y="388"/>
      <point x="103" y="136"/>
      <point x="285" y="123" type="curve" smooth="yes"/>
      <point x="387" y="116"/>
      <point x="438" y="199"/>
      <point x="456" y="261" type="curve"/>
      <point x="541" y="186" type="line"/>
      <point x="452" y="65"/>
      <point x="355" y="-27"/>
      <point x="228" y="77" type="curve" smooth="yes"/>
      <point x="164" y="129"/>
      <point x="125" y="162"/>
      <point x="83" y="224" type="curve" smooth="yes"/>
      <point x="33" y="298"/>
      <point x="99" y="447"/>
      <point x="176" y="455" type="curve"/>
    </contour>
    <contour>
      <point x="553" y="-70" type="line"/>
      <point x="348" y="187"/>
      <point x="325" y="214"/>
      <point x="332" y="228" type="curve" smooth="yes"/>
      <point x="347" y="258"/>
      <point x="384" y="286"/>
      <point x="402" y="297" type="curve" smooth="yes"/>
      <point x="449" y="327"/>
      <point x="484" y="299"/>
      <point x="516" y="261" type="curve" smooth="yes"/>
      <point x="543" y="229"/>
      <point x="560" y="183"/>
      <point x="530" y="153" type="curve" smooth="yes"/>
      <point x="477" y="100" type="line"/>
      <point x="592" y="-43" type="line"/>
    </contour>
    <contour>
      <point x="295" y="56" type="line"/>
      <point x="217" y="19"/>
      <point x="190" y="-43"/>
      <point x="223" y="-79" type="curve" smooth="yes"/>
      <point x="251" y="-108"/>
      <point x="351" y="-129"/>
      <point x="464" y="57" type="curve"/>
      <point x="464" y="57"/>
      <point x="538" y="-29"/>
      <point x="538" y="-29" type="curve"/>
      <point x="375" y="-258"/>
      <point x="213" y="-187"/>
      <point x="126" y="-17" type="curve" smooth="yes"/>
      <point x="97" y="38"/>
      <point x="151" y="100"/>
      <point x="228" y="138" type="curve"/>
    </contour>
  </outline>
</glyph>
<glyph name="dvEight" format="1">
  <advance width="563"/>
  <outline>
    <contour>
      <point x="546" y="145" type="line"/>
      <point x="468" y="73"/>
      <point x="354" y="-4"/>
      <point x="275" y="-4" type="curve" smooth="yes"/>
      <point x="207" y="-4"/>
      <point x="49" y="157"/>
      <point x="49" y="230" type="curve" smooth="yes"/>
      <point x="49" y="311"/>
      <point x="201" y="512"/>
      <point x="322" y="623" type="curve"/>
      <point x="424" y="552" type="line"/>
      <point x="288" y="430"/>
      <point x="161" y="268"/>
      <point x="161" y="179" type="curve" smooth="yes"/>
      <point x="161" y="146"/>
      <point x="197" y="105"/>
      <point x="234" y="105" type="curve" smooth="yes"/>
      <point x="296" y="105"/>
      <point x="408" y="181"/>
      <point x="461" y="246" type="curve"/>
    </contour>
  </outline>
</glyph>
<glyph name="dvEyelash" format="1">
  <advance width="480"/>
  <outline>
    <contour>
      <point x="65" y="345" type="line"/>
      <point x="65" y="345"/>
      <point x="170" y="258"/>
      <point x="211" y="259" type="curve" smooth="yes"/>
      <point x="267" y="260"/>
      <point x="386" y="337"/>
      <point x="386" y="337" type="curve"/>
      <point x="457" y="262" type="line"/>
      <point x="457" y="262"/>
      <point x="347" y="175"/>
      <point x="246" y="177" type="curve" smooth="yes"/>
      <point x="180" y="178"/>
      <point x="39" y="318"/>
      <point x="39" y="318" type="curve"/>
    </contour>
    <contour>
      <point x="-8" y="523" type="line"/>
      <point x="-8" y="619" type="line"/>
      <point x="490" y="619" type="line"/>
      <point x="490" y="523" type="line"/>
    </contour>
  </outline>
</glyph>
<glyph name="dvEyelash_HA" format="1">
  <advance width="876"/>
  <outline>
    <component base="dvHA" xOffset="324"/>
    <component base="dvEyelash" xOffset="2"/>
    <contour>
      <point x="886" y="-141" type="move" name="blwm.virama"/>
    </contour>
    <contour>
      <point x="1028" y="662" type="move" name="abvm.bindu"/>
    </contour>
    <contour>
      <point x="1003" y="-6" type="move" name="blwm.u"/>
    </contour>
    <contour>
      <point x="1018" y="672" type="move" name="abvm.e"/>
    </contour>
  </outline>
</glyph>
<glyph name="dvEyelash_YA" format="1">
  <advance width="860"/>
  <outline>
    <contour>
      <point x="-16" y="619" type="line"/>
      <point x="884" y="619" type="line"/>
      <point x="884" y="523" type="line"/>
      <point x="808" y="523" type="line"/>
      <point x="808" y="-55" type="line"/>
      <point x="684" y="1" type="line"/>
      <point x="684" y="167" type="line"/>
      <point x="647" y="124"/>
      <point x="589" y="71"/>
      <point x="523" y="71" type="curve" smooth="yes"/>
      <point x="405" y="71"/>
      <point x="245" y="245"/>
      <point x="227" y="280" type="curve"/>
      <point x="145" y="302"/>
      <point x="86" y="369"/>
      <point x="14" y="452" type="curve"/>
      <point x="46" y="478" type="line"/>
      <point x="164" y="342"/>
      <point x="272" y="329"/>
      <point x="336" y="383" type="curve" smooth="yes"/>
      <point x="343" y="389"/>
      <point x="349" y="396"/>
      <point x="354" y="402" type="curve" smooth="yes"/>
      <point x="362" y="411"/>
      <point x="369" y="423"/>
      <point x="375" y="435" type="curve" smooth="yes"/>
      <point x="410" y="508"/>
      <point x="356" y="569"/>
      <point x="187" y="472" type="curve"/>
      <point x="129" y="523" type="line"/>
      <point x="-16" y="523" type="line"/>
    </contour>
    <contour>
      <point x="496" y="426" type="curve" smooth="yes"/>
      <point x="501" y="364"/>
      <point x="428" y="309"/>
      <point x="340" y="231" type="curve"/>
      <point x="465" y="101"/>
      <point x="617" y="209"/>
      <point x="684" y="339" type="curve"/>
      <point x="684" y="523" type="line"/>
      <point x="431" y="523" type="line"/>
      <point x="468" y="492"/>
      <point x="493" y="455"/>
    </contour>
  </outline>
</glyph>
<glyph name="dvFive" format="1">
  <advance width="550"/>
  <outline>
    <contour>
      <point x="527" y="-102" type="line"/>
      <point x="476" y="-6"/>
      <point x="443" y="70"/>
      <point x="414" y="135" type="curve"/>
      <point x="341" y="68"/>
      <point x="262" y="71"/>
      <point x="207" y="108" type="curve" smooth="yes"/>
      <point x="139" y="154"/>
      <point x="117" y="178"/>
      <point x="66" y="233" type="curve"/>
      <point x="-9" y="311"/>
      <point x="79" y="492"/>
      <point x="249" y="628" type="curve"/>
      <point x="344" y="560" type="line"/>
      <point x="198" y="454"/>
      <point x="104" y="259"/>
      <point x="191" y="187" type="curve" smooth="yes"/>
      <point x="248" y="139"/>
      <point x="310" y="178"/>
      <point x="358" y="239" type="curve"/>
      <point x="334" y="280"/>
      <point x="333" y="324"/>
      <point x="351" y="342" type="curve" smooth="yes"/>
      <point x="368" y="359"/>
      <point x="446" y="380"/>
      <point x="457" y="369" type="curve" smooth="yes"/>
      <point x="477" y="349"/>
      <point x="514" y="301"/>
      <point x="516" y="258" type="curve"/>
      <point x="480" y="204" type="line"/>
      <point x="474" y="193"/>
      <point x="459" y="176"/>
      <point x="451" y="166" type="curve"/>
      <point x="569" y="-76" type="line"/>
    </contour>
  </outline>
</glyph>
<glyph name="dvFour" format="1">
  <advance width="539"/>
  <outline>
    <contour>
      <point x="87" y="172"/>
      <point x="85" y="179"/>
      <point x="85" y="188" type="curve" smooth="yes"/>
      <point x="85" y="240"/>
      <point x="164" y="310"/>
      <point x="231" y="381" type="curve"/>
      <point x="170" y="430"/>
      <point x="16" y="569"/>
      <point x="16" y="569" type="curve"/>
      <point x="48" y="600" type="line"/>
      <point x="262" y="415" type="line"/>
      <point x="308" y="467"/>
      <point x="425" y="595"/>
      <point x="463" y="631" type="curve"/>
      <point x="538" y="556" type="line"/>
      <point x="512" y="524"/>
      <point x="396" y="399"/>
      <point x="346" y="345" type="curve"/>
      <point x="404" y="299"/>
      <point x="481" y="216"/>
      <point x="493" y="196" type="curve"/>
      <point x="497" y="191"/>
      <point x="498" y="183"/>
      <point x="498" y="175" type="curve" smooth="yes"/>
      <point x="498" y="112"/>
      <point x="402" y="-18"/>
      <point x="318" y="-18" type="curve" smooth="yes"/>
      <point x="293" y="-18"/>
      <point x="111" y="137"/>
      <point x="92" y="165" type="curve" smooth="yes"/>
    </contour>
    <contour>
      <point x="264" y="79"/>
      <point x="271" y="77"/>
      <point x="279" y="77" type="curve" smooth="yes"/>
      <point x="319" y="77"/>
      <point x="383" y="129"/>
      <point x="383" y="202" type="curve" smooth="yes"/>
      <point x="383" y="238"/>
      <point x="357" y="270"/>
      <point x="314" y="313" type="curve"/>
      <point x="268" y="263"/>
      <point x="211" y="214"/>
      <point x="211" y="157" type="curve" smooth="yes"/>
      <point x="211" y="132"/>
      <point x="225" y="107"/>
      <point x="259" y="83" type="curve"/>
    </contour>
  </outline>
</glyph>
<glyph name="dvGA" format="1">
  <advance width="653"/>
  <outline>
    <contour>
      <point x="-5" y="619" type="line"/>
      <point x="657" y="619" type="line"/>
      <point x="657" y="523" type="line"/>
      <point x="575" y="523" type="line"/>
      <point x="575" y="-56" type="line"/>
      <point x="451" y="0" type="line"/>
      <point x="451" y="523" type="line"/>
      <point x="207" y="523" type="line"/>
      <point x="280" y="444"/>
      <point x="309" y="362"/>
      <point x="309" y="284" type="curve" smooth="yes"/>
      <point x="309" y="189"/>
      <point x="244" y="100"/>
      <point x="141" y="100" type="curve" smooth="yes"/>
      <point x="116" y="100"/>
      <point x="53" y="175"/>
      <point x="44" y="195" type="curve" smooth="yes"/>
      <point x="41" y="201"/>
      <point x="40" y="211"/>
      <point x="40" y="221" type="curve" smooth="yes"/>
      <point x="40" y="260"/>
      <point x="56" y="318"/>
      <point x="84" y="328" type="curve" smooth="yes"/>
      <point x="84" y="328"/>
      <point x="84" y="328"/>
      <point x="84" y="328" type="curve" smooth="yes"/>
      <point x="90" y="328"/>
      <point x="137" y="298"/>
      <point x="145" y="291" type="curve" smooth="yes"/>
      <point x="157" y="280"/>
      <point x="158" y="267"/>
      <point x="164" y="242" type="curve"/>
      <point x="191" y="281"/>
      <point x="204" y="304"/>
      <point x="204" y="358" type="curve" smooth="yes"/>
      <point x="204" y="419"/>
      <point x="187" y="481"/>
      <point x="155" y="523" type="curve"/>
      <point x="-5" y="523" type="line"/>
    </contour>
  </outline>
</glyph>
<glyph name="dvGH" format="1">
  <advance width="492"/>
  <outline>
    <contour>
      <point x="398" y="329" type="line"/>
      <point x="290" y="310"/>
      <point x="157" y="229"/>
      <point x="220" y="169" type="curve" smooth="yes"/>
      <point x="278" y="114"/>
      <point x="477" y="244"/>
      <point x="524" y="362" type="curve"/>
      <point x="592" y="266" type="line"/>
      <point x="513" y="104"/>
      <point x="294" y="37"/>
      <point x="236" y="92" type="curve" smooth="yes"/>
      <point x="177" y="148"/>
      <point x="158" y="159"/>
      <point x="104" y="220" type="curve" smooth="yes"/>
      <point x="73" y="254"/>
      <point x="119" y="308"/>
      <point x="179" y="348" type="curve"/>
      <point x="162" y="360"/>
      <point x="139" y="379"/>
      <point x="105" y="414" type="curve" smooth="yes"/>
      <point x="62" y="458"/>
      <point x="65" y="486"/>
      <point x="131" y="523" type="curve"/>
      <point x="-11" y="523" type="line"/>
      <point x="-11" y="619" type="line"/>
      <point x="716" y="619" type="line"/>
      <point x="716" y="523" type="line"/>
      <point x="324" y="523" type="line"/>
      <point x="214" y="478"/>
      <point x="139" y="444"/>
      <point x="210" y="368" type="curve"/>
      <point x="253" y="392"/>
      <point x="297" y="408"/>
      <point x="324" y="406" type="curve"/>
    </contour>
  </outline>
</glyph>
<glyph name="dvGHA" format="1">
  <advance width="708"/>
  <outline>
    <contour>
      <point x="86" y="430"/>
      <point x="76" y="449"/>
      <point x="76" y="464" type="curve" smooth="yes"/>
      <point x="76" y="484"/>
      <point x="94" y="502"/>
      <point x="131" y="523" type="curve"/>
      <point x="-11" y="523" type="line"/>
      <point x="-11" y="619" type="line"/>
      <point x="716" y="619" type="line"/>
      <point x="716" y="523" type="line"/>
      <point x="631" y="523" type="line"/>
      <point x="631" y="-55" type="line"/>
      <point x="507" y="1" type="line"/>
      <point x="507" y="147" type="line"/>
      <point x="444" y="90"/>
      <point x="378" y="53"/>
      <point x="310" y="53" type="curve" smooth="yes"/>
      <point x="280" y="53"/>
      <point x="251" y="68"/>
      <point x="236" y="82" type="curve" smooth="yes"/>
      <point x="177" y="138"/>
      <point x="158" y="149"/>
      <point x="104" y="210" type="curve" smooth="yes"/>
      <point x="97" y="218"/>
      <point x="94" y="226"/>
      <point x="94" y="235" type="curve" smooth="yes"/>
      <point x="94" y="267"/>
      <point x="131" y="311"/>
      <point x="178" y="342" type="curve"/>
      <point x="161" y="354"/>
      <point x="139" y="376"/>
      <point x="105" y="411" type="curve" smooth="yes"/>
    </contour>
    <contour>
      <point x="398" y="319" type="line"/>
      <point x="309" y="303"/>
      <point x="204" y="246"/>
      <point x="204" y="193" type="curve" smooth="yes"/>
      <point x="204" y="181"/>
      <point x="209" y="170"/>
      <point x="220" y="159" type="curve" smooth="yes"/>
      <point x="230" y="149"/>
      <point x="245" y="145"/>
      <point x="261" y="145" type="curve" smooth="yes"/>
      <point x="338" y="145"/>
      <point x="466" y="237"/>
      <point x="507" y="332" type="curve"/>
      <point x="507" y="523" type="line"/>
      <point x="318" y="523" type="line"/>
      <point x="320" y="522" type="line"/>
      <point x="241" y="490"/>
      <point x="181" y="463"/>
      <point x="181" y="423" type="curve" smooth="yes"/>
      <point x="181" y="407"/>
      <point x="192" y="384"/>
      <point x="212" y="363" type="curve"/>
      <point x="253" y="386"/>
      <point x="292" y="396"/>
      <point x="319" y="396" type="curve" smooth="yes"/>
      <point x="321" y="396"/>
      <point x="322" y="396"/>
      <point x="324" y="396" type="curve"/>
    </contour>
  </outline>
</glyph>
<glyph name="dvGH_MA" format="1">
  <advance width="1071"/>
  <outline>
    <contour>
      <point x="-27" y="619" type="line"/>
      <point x="700" y="619" type="line"/>
      <point x="700" y="522" type="line"/>
      <point x="-27" y="522" type="line"/>
    </contour>
    <contour>
      <point x="382" y="329" type="line"/>
      <point x="274" y="310"/>
      <point x="141" y="229"/>
      <point x="204" y="169" type="curve" smooth="yes"/>
      <point x="240" y="135"/>
      <point x="364" y="171"/>
      <point x="435" y="229" type="curve"/>
      <point x="471" y="141" type="line"/>
      <point x="379" y="68"/>
      <point x="262" y="52"/>
      <point x="220" y="92" type="curve" smooth="yes"/>
      <point x="161" y="148"/>
      <point x="142" y="159"/>
      <point x="88" y="220" type="curve" smooth="yes"/>
      <point x="32" y="284"/>
      <point x="235" y="412"/>
      <point x="308" y="406" type="curve"/>
    </contour>
    <contour>
      <point x="89" y="414" type="curve" smooth="yes"/>
      <point x="31" y="474"/>
      <point x="58" y="504"/>
      <point x="209" y="567" type="curve"/>
      <point x="304" y="522" type="line"/>
      <point x="183" y="473"/>
      <point x="108" y="438"/>
      <point x="220" y="344" type="curve"/>
      <point x="201" y="324" type="line"/>
      <point x="184" y="338"/>
      <point x="160" y="342"/>
    </contour>
    <component base="dvMA" xOffset="390"/>
  </outline>
</glyph>
<glyph name="dvGH_NA" format="1">
  <advance width="708"/>
  <outline>
    <contour>
      <point x="612" y="54" type="line"/>
      <point x="504" y="22"/>
      <point x="438" y="-9"/>
      <point x="378" y="-36" type="curve"/>
      <point x="376" y="-36"/>
      <point x="375" y="-37"/>
      <point x="373" y="-38" type="curve"/>
      <point x="527" y="-116"/>
      <point x="383" y="-251"/>
      <point x="328" y="-228" type="curve"/>
      <point x="272" y="-206"/>
      <point x="272" y="-205"/>
      <point x="218" y="-180" type="curve" smooth="yes"/>
      <point x="143" y="-145"/>
      <point x="182" y="-23"/>
      <point x="225" y="1" type="curve" smooth="yes"/>
      <point x="285" y="35"/>
      <point x="409" y="77"/>
      <point x="558" y="107" type="curve"/>
    </contour>
    <component base="dvGHA"/>
  </outline>
</glyph>
<glyph name="dvGH_RA" format="1">
  <advance width="708"/>
  <outline>
    <contour>
      <point x="556" y="187" type="line"/>
      <point x="478" y="103"/>
      <point x="311" y="2"/>
      <point x="189" y="-86" type="curve"/>
      <point x="95" y="-10" type="line"/>
      <point x="204" y="56"/>
      <point x="394" y="163"/>
      <point x="525" y="250" type="curve"/>
    </contour>
    <component base="dvGHA"/>
  </outline>
</glyph>
<glyph name="dvGH_YA" format="1">
  <advance width="1103"/>
  <outline>
    <contour>
      <point x="398" y="329" type="line"/>
      <point x="290" y="310"/>
      <point x="157" y="229"/>
      <point x="220" y="169" type="curve" smooth="yes"/>
      <point x="278" y="114"/>
      <point x="467" y="214"/>
      <point x="511" y="337" type="curve"/>
      <point x="577" y="251" type="line"/>
      <point x="498" y="89"/>
      <point x="294" y="37"/>
      <point x="236" y="92" type="curve" smooth="yes"/>
      <point x="177" y="148"/>
      <point x="158" y="159"/>
      <point x="104" y="220" type="curve" smooth="yes"/>
      <point x="73" y="254"/>
      <point x="119" y="308"/>
      <point x="179" y="348" type="curve"/>
      <point x="162" y="360"/>
      <point x="139" y="379"/>
      <point x="105" y="414" type="curve" smooth="yes"/>
      <point x="62" y="458"/>
      <point x="65" y="485"/>
      <point x="129" y="522" type="curve"/>
      <point x="-11" y="522" type="line"/>
      <point x="-11" y="619" type="line"/>
      <point x="716" y="619" type="line"/>
      <point x="716" y="522" type="line"/>
      <point x="320" y="522" type="line"/>
      <point x="210" y="477"/>
      <point x="138" y="444"/>
      <point x="210" y="368" type="curve"/>
      <point x="253" y="392"/>
      <point x="297" y="408"/>
      <point x="324" y="406" type="curve"/>
    </contour>
    <component base="dvYA" xOffset="429"/>
  </outline>
</glyph>
<glyph name="dvG_DA" format="1">
  <advance width="933"/>
  <outline>
    <contour>
      <point x="840" y="-51" type="move" name="blwm.virama"/>
    </contour>
    <contour>
      <point x="766" y="619" type="move" name="abvm.bindu"/>
    </contour>
    <contour>
      <point x="866" y="-56" type="move" name="blwm.u"/>
    </contour>
    <contour>
      <point x="752" y="619" type="move" name="abvm.e"/>
    </contour>
    <component base="dvDA" xOffset="335"/>
    <component base="dvG" xOffset="-2"/>
  </outline>
</glyph>
<glyph name="dvG_DA_mU" format="1">
  <advance width="952"/>
  <outline>
    <component base="dvG"/>
    <component base="dvDA" xOffset="350"/>
    <component base="dvmU" xOffset="844"/>
    <contour>
      <point x="769" y="619" type="move" name="abvm.bindu"/>
    </contour>
    <contour>
      <point x="751" y="619" type="move" name="abvm.e"/>
    </contour>
  </outline>
</glyph>
<glyph name="dvG_DA_mUU" format="1">
  <advance width="955"/>
  <outline>
    <component base="dvG"/>
    <component base="dvDA" xOffset="350"/>
    <component base="dvmUU" xOffset="804"/>
    <contour>
      <point x="782" y="619" type="move" name="abvm.bindu"/>
    </contour>
    <contour>
      <point x="769" y="619" type="move" name="abvm.e"/>
    </contour>
  </outline>
</glyph>
<glyph name="dvG_DHA" format="1">
  <advance width="1031"/>
  <outline>
    <contour>
      <point x="-1" y="619" type="line"/>
      <point x="511" y="619" type="line"/>
      <point x="491" y="523" type="line"/>
      <point x="-1" y="523" type="line"/>
    </contour>
    <contour>
      <point x="209" y="526" type="line"/>
      <point x="392" y="330"/>
      <point x="319" y="70"/>
      <point x="145" y="70" type="curve" smooth="yes"/>
      <point x="120" y="70"/>
      <point x="57" y="145"/>
      <point x="48" y="165" type="curve" smooth="yes"/>
      <point x="36" y="193"/>
      <point x="52" y="285"/>
      <point x="88" y="298" type="curve" smooth="yes"/>
      <point x="92" y="299"/>
      <point x="141" y="268"/>
      <point x="149" y="261" type="curve" smooth="yes"/>
      <point x="161" y="250"/>
      <point x="162" y="237"/>
      <point x="168" y="212" type="curve"/>
      <point x="228" y="298"/>
      <point x="219" y="448"/>
      <point x="157" y="526" type="curve"/>
    </contour>
    <component base="dvDHA" xOffset="328"/>
  </outline>
</glyph>
<glyph name="dvG_DH_YA" format="1">
  <advance width="1378"/>
  <outline>
    <contour>
      <point x="1221" y="200" type="line"/>
      <point x="1192" y="161"/>
      <point x="1119" y="71"/>
      <point x="1034" y="71" type="curve" smooth="yes"/>
      <point x="912" y="71"/>
      <point x="744" y="259"/>
      <point x="736" y="284" type="curve" smooth="yes"/>
      <point x="733" y="295"/>
      <point x="799" y="338"/>
      <point x="833" y="370" type="curve" smooth="yes"/>
      <point x="930" y="459"/>
      <point x="915" y="495"/>
      <point x="842" y="554" type="curve"/>
      <point x="868" y="568" type="line"/>
      <point x="942" y="537"/>
      <point x="1003" y="473"/>
      <point x="1007" y="426" type="curve" smooth="yes"/>
      <point x="1012" y="364"/>
      <point x="939" y="309"/>
      <point x="851" y="231" type="curve"/>
      <point x="981" y="96"/>
      <point x="1140" y="218"/>
      <point x="1202" y="354" type="curve"/>
    </contour>
    <contour>
      <point x="705" y="619" type="line"/>
      <point x="1395" y="619" type="line"/>
      <point x="1395" y="523" type="line"/>
      <point x="705" y="523" type="line"/>
    </contour>
    <contour>
      <point x="1195" y="538" type="line"/>
      <point x="1319" y="538" type="line"/>
      <point x="1319" y="-55" type="line"/>
      <point x="1195" y="1" type="line"/>
    </contour>
    <contour>
      <point x="702" y="313" type="line"/>
      <point x="594" y="294"/>
      <point x="461" y="230"/>
      <point x="525" y="170" type="curve" smooth="yes"/>
      <point x="566" y="131"/>
      <point x="696" y="178"/>
      <point x="773" y="251" type="curve"/>
      <point x="833" y="182" type="line"/>
      <point x="740" y="83"/>
      <point x="588" y="48"/>
      <point x="541" y="93" type="curve" smooth="yes"/>
      <point x="481" y="149"/>
      <point x="462" y="160"/>
      <point x="408" y="221" type="curve" smooth="yes"/>
      <point x="353" y="285"/>
      <point x="563" y="386"/>
      <point x="636" y="380" type="curve"/>
    </contour>
    <contour>
      <point x="418" y="449" type="line"/>
      <point x="510" y="423"/>
      <point x="614" y="519"/>
      <point x="591" y="539" type="curve" smooth="yes"/>
      <point x="548" y="575"/>
      <point x="327" y="469"/>
      <point x="531" y="329" type="curve"/>
      <point x="506" y="309" type="line"/>
      <point x="460" y="339"/>
      <point x="451" y="352"/>
      <point x="367" y="433" type="curve" smooth="yes"/>
      <point x="280" y="516"/>
      <point x="503" y="646"/>
      <point x="539" y="625" type="curve"/>
      <point x="607" y="583"/>
      <point x="621" y="566"/>
      <point x="648" y="542" type="curve" smooth="yes"/>
      <point x="719" y="478"/>
      <point x="574" y="370"/>
      <point x="467" y="386" type="curve"/>
    </contour>
    <contour>
      <point x="660" y="619" type="line"/>
      <point x="987" y="619" type="line"/>
      <point x="987" y="523" type="line"/>
      <point x="699" y="523" type="line"/>
    </contour>
    <contour>
      <point x="-5" y="619" type="line"/>
      <point x="507" y="619" type="line"/>
      <point x="457" y="523" type="line"/>
      <point x="-5" y="523" type="line"/>
    </contour>
    <contour>
      <point x="205" y="526" type="line"/>
      <point x="388" y="330"/>
      <point x="315" y="70"/>
      <point x="141" y="70" type="curve" smooth="yes"/>
      <point x="116" y="70"/>
      <point x="53" y="145"/>
      <point x="44" y="165" type="curve" smooth="yes"/>
      <point x="32" y="193"/>
      <point x="48" y="285"/>
      <point x="84" y="298" type="curve" smooth="yes"/>
      <point x="88" y="299"/>
      <point x="137" y="268"/>
      <point x="145" y="261" type="curve" smooth="yes"/>
      <point x="157" y="250"/>
      <point x="158" y="237"/>
      <point x="164" y="212" type="curve"/>
      <point x="224" y="298"/>
      <point x="215" y="448"/>
      <point x="153" y="526" type="curve"/>
    </contour>
  </outline>
</glyph>
<glyph name="dvG_NA" format="1">
  <advance width="694"/>
  <outline>
    <contour>
      <point x="-5" y="619" type="line"/>
      <point x="697" y="619" type="line"/>
      <point x="697" y="523" type="line"/>
      <point x="615" y="523" type="line"/>
      <point x="615" y="-56" type="line"/>
      <point x="491" y="0" type="line"/>
      <point x="491" y="78" type="line"/>
      <point x="447" y="56"/>
      <point x="417" y="37"/>
      <point x="382" y="21" type="curve" smooth="yes"/>
      <point x="380" y="20"/>
      <point x="379" y="19"/>
      <point x="377" y="19" type="curve"/>
      <point x="531" y="-59"/>
      <point x="387" y="-194"/>
      <point x="332" y="-171" type="curve"/>
      <point x="276" y="-149"/>
      <point x="276" y="-149"/>
      <point x="222" y="-123" type="curve"/>
      <point x="147" y="-89"/>
      <point x="187" y="33"/>
      <point x="229" y="58" type="curve"/>
      <point x="280" y="86"/>
      <point x="374" y="127"/>
      <point x="491" y="160" type="curve"/>
      <point x="491" y="523" type="line"/>
      <point x="207" y="523" type="line"/>
      <point x="387" y="327"/>
      <point x="314" y="70"/>
      <point x="141" y="70" type="curve" smooth="yes"/>
      <point x="116" y="70"/>
      <point x="53" y="145"/>
      <point x="44" y="165" type="curve" smooth="yes"/>
      <point x="32" y="193"/>
      <point x="48" y="285"/>
      <point x="84" y="298" type="curve" smooth="yes"/>
      <point x="88" y="299"/>
      <point x="137" y="268"/>
      <point x="145" y="261" type="curve" smooth="yes"/>
      <point x="157" y="250"/>
      <point x="158" y="237"/>
      <point x="164" y="212" type="curve"/>
      <point x="223" y="297"/>
      <point x="215" y="444"/>
      <point x="155" y="523" type="curve"/>
      <point x="-5" y="523" type="line"/>
    </contour>
  </outline>
</glyph>
<glyph name="dvG_R_YA" format="1">
  <advance width="1046"/>
  <outline>
    <contour>
      <point x="-4" y="619" type="line"/>
      <point x="658" y="619" type="line"/>
      <point x="658" y="523" type="line"/>
      <point x="208" y="523" type="line"/>
      <point x="388" y="327"/>
      <point x="315" y="70"/>
      <point x="142" y="70" type="curve" smooth="yes"/>
      <point x="117" y="70"/>
      <point x="54" y="145"/>
      <point x="45" y="165" type="curve" smooth="yes"/>
      <point x="33" y="193"/>
      <point x="49" y="285"/>
      <point x="85" y="298" type="curve" smooth="yes"/>
      <point x="89" y="299"/>
      <point x="138" y="268"/>
      <point x="146" y="261" type="curve" smooth="yes"/>
      <point x="158" y="250"/>
      <point x="159" y="237"/>
      <point x="165" y="212" type="curve"/>
      <point x="224" y="297"/>
      <point x="216" y="444"/>
      <point x="156" y="523" type="curve"/>
      <point x="-4" y="523" type="line"/>
    </contour>
    <contour>
      <point x="527" y="154" type="line"/>
      <point x="496" y="104"/>
      <point x="449" y="17"/>
      <point x="347" y="-64" type="curve"/>
      <point x="263" y="2" type="line"/>
      <point x="352" y="68"/>
      <point x="434" y="130"/>
      <point x="496" y="203" type="curve"/>
    </contour>
    <component base="dvYA" xOffset="367"/>
  </outline>
</glyph>
<glyph name="dvGx_RA" format="1">
  <advance width="652"/>
  <outline>
    <contour>
      <point x="486" y="154" type="line"/>
      <point x="455" y="104"/>
      <point x="408" y="17"/>
      <point x="306" y="-64" type="curve"/>
      <point x="222" y="2" type="line"/>
      <point x="311" y="68"/>
      <point x="393" y="130"/>
      <point x="455" y="203" type="curve"/>
    </contour>
    <component base="dvNukta" xOffset="398" yOffset="120"/>
    <component base="dvGA"/>
  </outline>
</glyph>
<glyph name="dvHA" format="1">
  <advance width="547"/>
  <outline>
    <contour>
      <point x="-6" y="619" type="line"/>
      <point x="554" y="619" type="line"/>
      <point x="554" y="523" type="line"/>
      <point x="449" y="523" type="line"/>
      <point x="449" y="381" type="line"/>
      <point x="228" y="381" type="line" smooth="yes"/>
      <point x="176" y="381"/>
      <point x="145" y="340"/>
      <point x="145" y="300" type="curve" smooth="yes"/>
      <point x="145" y="278"/>
      <point x="155" y="255"/>
      <point x="178" y="241" type="curve"/>
      <point x="236" y="281"/>
      <point x="300" y="309"/>
      <point x="333" y="309" type="curve" smooth="yes"/>
      <point x="334" y="309"/>
      <point x="334" y="309"/>
      <point x="335" y="309" type="curve" smooth="yes"/>
      <point x="388" y="308"/>
      <point x="520" y="163"/>
      <point x="521" y="138" type="curve" smooth="yes"/>
      <point x="521" y="137"/>
      <point x="521" y="135"/>
      <point x="521" y="134" type="curve" smooth="yes"/>
      <point x="521" y="65"/>
      <point x="443" y="6"/>
      <point x="409" y="-8" type="curve"/>
      <point x="325" y="71" type="line"/>
      <point x="372" y="91"/>
      <point x="420" y="135"/>
      <point x="420" y="173" type="curve" smooth="yes"/>
      <point x="420" y="182"/>
      <point x="418" y="190"/>
      <point x="412" y="198" type="curve" smooth="yes"/>
      <point x="405" y="208"/>
      <point x="393" y="212"/>
      <point x="378" y="212" type="curve" smooth="yes"/>
      <point x="307" y="212"/>
      <point x="169" y="116"/>
      <point x="167" y="54" type="curve"/>
      <point x="167" y="53"/>
      <point x="167" y="52"/>
      <point x="167" y="52" type="curve" smooth="yes"/>
      <point x="167" y="-17"/>
      <point x="288" y="-103"/>
      <point x="363" y="-164" type="curve"/>
      <point x="333" y="-199" type="line"/>
      <point x="179" y="-90"/>
      <point x="66" y="25"/>
      <point x="63" y="102" type="curve" smooth="yes"/>
      <point x="63" y="103"/>
      <point x="63" y="103"/>
      <point x="63" y="104" type="curve" smooth="yes"/>
      <point x="63" y="139"/>
      <point x="91" y="172"/>
      <point x="139" y="209" type="curve"/>
      <point x="114" y="231"/>
      <point x="77" y="275"/>
      <point x="59" y="295" type="curve" smooth="yes"/>
      <point x="50" y="304"/>
      <point x="47" y="317"/>
      <point x="47" y="330" type="curve" smooth="yes"/>
      <point x="47" y="382"/>
      <point x="101" y="453"/>
      <point x="144" y="455" type="curve" smooth="yes"/>
      <point x="338" y="466" type="line"/>
      <point x="338" y="523" type="line"/>
      <point x="-6" y="523" type="line"/>
    </contour>
    <contour>
      <point x="307" y="-141" type="move" name="blwm.virama"/>
    </contour>
    <contour>
      <point x="418" y="619" type="move" name="abvm.bindu"/>
    </contour>
    <contour>
      <point x="267" y="-119" type="move" name="blwm.u"/>
    </contour>
    <contour>
      <point x="403" y="619" type="move" name="abvm.e"/>
    </contour>
  </outline>
</glyph>
<glyph name="dvHA_mUU" format="1">
  <advance width="518"/>
  <outline>
    <contour>
      <point x="377" y="619" type="move" name="abvm.bindu"/>
    </contour>
    <contour>
      <point x="366" y="619" type="move" name="abvm.e"/>
    </contour>
    <contour>
      <point x="-13" y="619" type="line"/>
      <point x="527" y="619" type="line"/>
      <point x="527" y="523" type="line"/>
      <point x="422" y="523" type="line"/>
      <point x="422" y="381" type="line"/>
      <point x="201" y="381" type="line" smooth="yes"/>
      <point x="120" y="381"/>
      <point x="86" y="278"/>
      <point x="149" y="239" type="curve"/>
      <point x="208" y="280"/>
      <point x="275" y="310"/>
      <point x="308" y="309" type="curve" smooth="yes"/>
      <point x="361" y="308"/>
      <point x="493" y="163"/>
      <point x="494" y="138" type="curve" smooth="yes"/>
      <point x="497" y="67"/>
      <point x="417" y="6"/>
      <point x="382" y="-8" type="curve"/>
      <point x="298" y="71" type="line"/>
      <point x="356" y="96"/>
      <point x="415" y="156"/>
      <point x="385" y="198" type="curve" smooth="yes"/>
      <point x="345" y="255"/>
      <point x="142" y="129"/>
      <point x="140" y="54" type="curve"/>
      <point x="137" y="0"/>
      <point x="241" y="-54"/>
      <point x="321" y="-106" type="curve" smooth="yes"/>
      <point x="338" y="-118"/>
      <point x="356" y="-131"/>
      <point x="376" y="-147" type="curve" smooth="yes"/>
      <point x="381" y="-151" type="line"/>
      <point x="363" y="-167" type="line"/>
      <point x="306" y="-135"/>
      <point x="246" y="-103"/>
      <point x="193" y="-70" type="curve"/>
      <point x="212" y="-66"/>
      <point x="231" y="-65"/>
      <point x="250" y="-68" type="curve" smooth="yes"/>
      <point x="264" y="-70"/>
      <point x="289" y="-85"/>
      <point x="321" y="-106" type="curve" smooth="yes"/>
      <point x="342" y="-120"/>
      <point x="361" y="-134"/>
      <point x="376" y="-147" type="curve"/>
      <point x="442" y="-197"/>
      <point x="518" y="-264"/>
      <point x="577" y="-322" type="curve"/>
      <point x="559" y="-343" type="line"/>
      <point x="373" y="-202"/>
      <point x="279" y="-107"/>
      <point x="188" y="-180" type="curve" smooth="yes"/>
      <point x="113" y="-240"/>
      <point x="188" y="-343"/>
      <point x="269" y="-304" type="curve" smooth="yes"/>
      <point x="319" y="-280" type="line"/>
      <point x="381" y="-354" type="line"/>
      <point x="326" y="-387"/>
      <point x="243" y="-413"/>
      <point x="220" y="-407" type="curve" smooth="yes"/>
      <point x="192" y="-401"/>
      <point x="121" y="-332"/>
      <point x="74" y="-283" type="curve" smooth="yes"/>
      <point x="1" y="-206"/>
      <point x="90" y="-91"/>
      <point x="193" y="-70" type="curve"/>
      <point x="105" y="-15"/>
      <point x="38" y="41"/>
      <point x="36" y="102" type="curve" smooth="yes"/>
      <point x="35" y="138"/>
      <point x="73" y="181"/>
      <point x="122" y="219" type="curve"/>
      <point x="97" y="241"/>
      <point x="74" y="263"/>
      <point x="56" y="283" type="curve" smooth="yes"/>
      <point x="14" y="328"/>
      <point x="73" y="452"/>
      <point x="127" y="455" type="curve" smooth="yes"/>
      <point x="311" y="466" type="line"/>
      <point x="311" y="523" type="line"/>
      <point x="-13" y="523" type="line"/>
    </contour>
  </outline>
</glyph>
<glyph name="dvH_LA" format="1">
  <advance width="707"/>
  <outline>
    <contour>
      <point x="417" y="-234" type="move" name="blwm.virama"/>
    </contour>
    <contour>
      <point x="517" y="619" type="move" name="abvm.bindu"/>
    </contour>
    <contour>
      <point x="404" y="-237" type="move" name="blwm.u"/>
    </contour>
    <contour>
      <point x="510" y="619" type="move" name="abvm.e"/>
    </contour>
    <contour>
      <point x="517" y="-41" type="line"/>
      <point x="695" y="123"/>
      <point x="519" y="193"/>
      <point x="461" y="-14" type="curve"/>
      <point x="395" y="21" type="line"/>
      <point x="399" y="34"/>
      <point x="411" y="59"/>
      <point x="428" y="85" type="curve"/>
      <point x="309" y="150"/>
      <point x="283" y="-4"/>
      <point x="383" y="-77" type="curve"/>
      <point x="359" y="-100" type="line"/>
      <point x="301" y="-67"/>
      <point x="228" y="33"/>
      <point x="224" y="65" type="curve" smooth="yes"/>
      <point x="217" y="121"/>
      <point x="318" y="198"/>
      <point x="362" y="183" type="curve" smooth="yes"/>
      <point x="386" y="175"/>
      <point x="422" y="142"/>
      <point x="450" y="113" type="curve"/>
      <point x="472" y="138"/>
      <point x="498" y="160"/>
      <point x="529" y="167" type="curve"/>
      <point x="352" y="352"/>
      <point x="54" y="110"/>
      <point x="199" y="-66" type="curve" smooth="yes"/>
      <point x="230" y="-104"/>
      <point x="310" y="-191"/>
      <point x="446" y="-133" type="curve"/>
      <point x="511" y="-213" type="line"/>
      <point x="443" y="-237"/>
      <point x="312" y="-246"/>
      <point x="294" y="-232" type="curve" smooth="yes"/>
      <point x="217" y="-173"/>
      <point x="38" y="25"/>
      <point x="36" y="102" type="curve" smooth="yes"/>
      <point x="35" y="132"/>
      <point x="78" y="172"/>
      <point x="135" y="211" type="curve"/>
      <point x="108" y="234"/>
      <point x="74" y="263"/>
      <point x="56" y="283" type="curve" smooth="yes"/>
      <point x="14" y="328"/>
      <point x="73" y="452"/>
      <point x="127" y="455" type="curve"/>
      <point x="451" y="466" type="line"/>
      <point x="451" y="523" type="line"/>
      <point x="-13" y="523" type="line"/>
      <point x="-13" y="619" type="line"/>
      <point x="716" y="619" type="line"/>
      <point x="716" y="523" type="line"/>
      <point x="562" y="523" type="line"/>
      <point x="562" y="381" type="line"/>
      <point x="201" y="381" type="line" smooth="yes"/>
      <point x="120" y="381"/>
      <point x="100" y="269"/>
      <point x="163" y="229" type="curve"/>
      <point x="260" y="289"/>
      <point x="384" y="338"/>
      <point x="421" y="330" type="curve" smooth="yes"/>
      <point x="468" y="320"/>
      <point x="625" y="157"/>
      <point x="658" y="69" type="curve" smooth="yes"/>
      <point x="665" y="49"/>
      <point x="643" y="-39"/>
      <point x="576" y="-87" type="curve"/>
    </contour>
  </outline>
</glyph>
<glyph name="dvH_RA" format="1">
  <advance width="576"/>
  <outline>
    <contour>
      <point x="-6" y="619" type="line"/>
      <point x="584" y="619" type="line"/>
      <point x="584" y="523" type="line"/>
      <point x="449" y="523" type="line"/>
      <point x="449" y="381" type="line"/>
      <point x="228" y="381" type="line" smooth="yes"/>
      <point x="176" y="381"/>
      <point x="145" y="340"/>
      <point x="145" y="300" type="curve" smooth="yes"/>
      <point x="145" y="278"/>
      <point x="155" y="255"/>
      <point x="178" y="241" type="curve"/>
      <point x="236" y="281"/>
      <point x="300" y="309"/>
      <point x="333" y="309" type="curve" smooth="yes"/>
      <point x="334" y="309"/>
      <point x="334" y="309"/>
      <point x="335" y="309" type="curve" smooth="yes"/>
      <point x="408" y="308"/>
      <point x="554" y="143"/>
      <point x="555" y="108" type="curve" smooth="yes"/>
      <point x="555" y="107"/>
      <point x="555" y="105"/>
      <point x="555" y="104" type="curve" smooth="yes"/>
      <point x="555" y="45"/>
      <point x="523" y="-34"/>
      <point x="499" y="-58" type="curve"/>
      <point x="412" y="15" type="line"/>
      <point x="445" y="56"/>
      <point x="460" y="93"/>
      <point x="460" y="131" type="curve" smooth="yes"/>
      <point x="460" y="140"/>
      <point x="458" y="148"/>
      <point x="452" y="156" type="curve" smooth="yes"/>
      <point x="445" y="166"/>
      <point x="413" y="212"/>
      <point x="378" y="212" type="curve" smooth="yes"/>
      <point x="307" y="212"/>
      <point x="169" y="116"/>
      <point x="167" y="54" type="curve"/>
      <point x="167" y="53"/>
      <point x="167" y="52"/>
      <point x="167" y="52" type="curve" smooth="yes"/>
      <point x="167" y="-17"/>
      <point x="288" y="-103"/>
      <point x="363" y="-164" type="curve"/>
      <point x="333" y="-199" type="line"/>
      <point x="179" y="-90"/>
      <point x="66" y="25"/>
      <point x="63" y="102" type="curve" smooth="yes"/>
      <point x="63" y="103"/>
      <point x="63" y="103"/>
      <point x="63" y="104" type="curve" smooth="yes"/>
      <point x="63" y="139"/>
      <point x="91" y="172"/>
      <point x="139" y="209" type="curve"/>
      <point x="114" y="231"/>
      <point x="77" y="275"/>
      <point x="59" y="295" type="curve" smooth="yes"/>
      <point x="50" y="304"/>
      <point x="47" y="317"/>
      <point x="47" y="330" type="curve" smooth="yes"/>
      <point x="47" y="382"/>
      <point x="101" y="453"/>
      <point x="144" y="455" type="curve" smooth="yes"/>
      <point x="338" y="466" type="line"/>
      <point x="338" y="523" type="line"/>
      <point x="-6" y="523" type="line"/>
    </contour>
    <contour>
      <point x="360" y="243" type="curve"/>
      <point x="442" y="200" type="line"/>
      <point x="409" y="151"/>
      <point x="364" y="40"/>
      <point x="320" y="-33" type="curve"/>
      <point x="234" y="45" type="line"/>
      <point x="286" y="115"/>
      <point x="327" y="184"/>
    </contour>
    <contour>
      <point x="357" y="-290" type="move" name="blwm.virama"/>
    </contour>
    <contour>
      <point x="462" y="662" type="move" name="abvm.bindu"/>
    </contour>
    <contour>
      <point x="357" y="-300" type="move" name="blwm.u"/>
    </contour>
    <contour>
      <point x="462" y="672" type="move" name="abvm.e"/>
    </contour>
  </outline>
</glyph>
